AGaramondPro-Bold.ufo
<glyph name="exclam" format="1">
  <advance width="254"/>
  <unicode hex="0021"/>
  <outline>
    <contour>
      <point x="127" y="646" type="curve" smooth="yes" name="hr00"/>
      <point x="75" y="646"/>
      <point x="47" y="637"/>
      <point x="47" y="603" type="curve" smooth="yes"/>
      <point x="47" y="587"/>
      <point x="53" y="556"/>
      <point x="63" y="486" type="curve" smooth="yes"/>
      <point x="105" y="205" type="line"/>
      <point x="117" y="197"/>
      <point x="137" y="197"/>
      <point x="149" y="205" type="curve"/>
      <point x="191" y="486" type="line" smooth="yes"/>
      <point x="201" y="556"/>
      <point x="207" y="587"/>
      <point x="207" y="603" type="curve" smooth="yes"/>
      <point x="207" y="637"/>
      <point x="179" y="646"/>
    </contour>
    <contour>
      <point x="127" y="-14" type="curve" smooth="yes"/>
      <point x="175" y="-14"/>
      <point x="208" y="21"/>
      <point x="208" y="67" type="curve" smooth="yes"/>
      <point x="208" y="110"/>
      <point x="175" y="150"/>
      <point x="127" y="150" type="curve" smooth="yes"/>
      <point x="82" y="150"/>
      <point x="46" y="114"/>
      <point x="46" y="67" type="curve" smooth="yes"/>
      <point x="46" y="18"/>
      <point x="87" y="-14"/>
    </contour>
  </outline>
</glyph>
<glyph name="quotedbl" format="1">
  <advance width="472"/>
  <unicode hex="0022"/>
  <outline>
    <contour>
      <point x="136" y="700" type="curve" smooth="yes" name="hr00"/>
      <point x="94" y="700"/>
      <point x="72" y="698"/>
      <point x="72" y="666" type="curve" smooth="yes"/>
      <point x="72" y="655"/>
      <point x="75" y="638"/>
      <point x="80" y="609" type="curve" smooth="yes"/>
      <point x="117" y="404" type="line"/>
      <point x="128" y="396"/>
      <point x="144" y="396"/>
      <point x="155" y="404" type="curve"/>
      <point x="192" y="609" type="line" smooth="yes"/>
      <point x="197" y="638"/>
      <point x="200" y="655"/>
      <point x="200" y="666" type="curve" smooth="yes"/>
      <point x="200" y="698"/>
      <point x="178" y="700"/>
    </contour>
    <contour>
      <point x="336" y="700" type="curve" smooth="yes"/>
      <point x="294" y="700"/>
      <point x="272" y="698"/>
      <point x="272" y="666" type="curve" smooth="yes"/>
      <point x="272" y="655"/>
      <point x="275" y="638"/>
      <point x="280" y="609" type="curve" smooth="yes"/>
      <point x="317" y="404" type="line"/>
      <point x="328" y="396"/>
      <point x="344" y="396"/>
      <point x="355" y="404" type="curve"/>
      <point x="392" y="609" type="line" smooth="yes"/>
      <point x="397" y="638"/>
      <point x="400" y="655"/>
      <point x="400" y="666" type="curve" smooth="yes"/>
      <point x="400" y="698"/>
      <point x="378" y="700"/>
    </contour>
  </outline>
</glyph>
<glyph name="dollar" format="1">
  <advance width="520"/>
  <unicode hex="0024"/>
  <outline>
    <contour>
      <point x="255" y="406" type="line" name="hr01"/>
      <point x="211" y="429"/>
      <point x="187" y="456"/>
      <point x="187" y="494" type="curve" smooth="yes"/>
      <point x="187" y="540"/>
      <point x="217" y="577"/>
      <point x="276" y="581" type="curve"/>
    </contour>
    <contour>
      <point x="284" y="253" type="line"/>
      <point x="337" y="225"/>
      <point x="359" y="186"/>
      <point x="359" y="144" type="curve" smooth="yes"/>
      <point x="359" y="90"/>
      <point x="327" y="51"/>
      <point x="260" y="46" type="curve"/>
    </contour>
    <contour>
      <point x="338" y="703" type="line" name="hr02"/>
      <point x="332" y="713"/>
      <point x="296" y="713"/>
      <point x="290" y="703" type="curve"/>
      <point x="281" y="627" type="line"/>
      <point x="152" y="622"/>
      <point x="71" y="555"/>
      <point x="72" y="455" type="curve" smooth="yes"/>
      <point x="72" y="366"/>
      <point x="138" y="318"/>
      <point x="207" y="288" type="curve" smooth="yes"/>
      <point x="239" y="274" type="line"/>
      <point x="212" y="49" type="line"/>
      <point x="140" y="64"/>
      <point x="87" y="132"/>
      <point x="70" y="185" type="curve"/>
      <point x="61" y="196"/>
      <point x="43" y="194"/>
      <point x="36" y="183" type="curve"/>
      <point x="36" y="121"/>
      <point x="49" y="60"/>
      <point x="68" y="40" type="curve"/>
      <point x="85" y="28"/>
      <point x="135" y="6"/>
      <point x="206" y="2" type="curve" name="hr03"/>
      <point x="195" y="-93" type="line"/>
      <point x="201" y="-103"/>
      <point x="237" y="-103"/>
      <point x="243" y="-93" type="curve"/>
      <point x="254" y="0" type="line" name="hr04"/>
      <point x="397" y="4"/>
      <point x="484" y="76"/>
      <point x="484" y="182" type="curve" smooth="yes"/>
      <point x="484" y="283"/>
      <point x="405" y="339"/>
      <point x="349" y="363" type="curve" smooth="yes"/>
      <point x="300" y="384" type="line"/>
      <point x="323" y="578" type="line"/>
      <point x="385" y="562"/>
      <point x="415" y="506"/>
      <point x="425" y="473" type="curve"/>
      <point x="433" y="464"/>
      <point x="454" y="467"/>
      <point x="459" y="476" type="curve"/>
      <point x="459" y="530"/>
      <point x="450" y="583"/>
      <point x="442" y="606" type="curve"/>
      <point x="416" y="612"/>
      <point x="375" y="623"/>
      <point x="329" y="626" type="curve" name="hr05"/>
    </contour>
  </outline>
</glyph>
<glyph name="ampersand" format="1">
  <advance width="825"/>
  <unicode hex="0026"/>
  <outline>
    <contour>
      <point x="313" y="640" type="curve" smooth="yes" name="hr01"/>
      <point x="232" y="640"/>
      <point x="146" y="582"/>
      <point x="146" y="481" type="curve" smooth="yes" name="hr02"/>
      <point x="146" y="433"/>
      <point x="175" y="389"/>
      <point x="211" y="361" type="curve"/>
      <point x="159" y="339"/>
      <point x="56" y="281"/>
      <point x="56" y="165" type="curve" smooth="yes" name="hr03"/>
      <point x="56" y="62"/>
      <point x="137" y="-14"/>
      <point x="270" y="-14" type="curve" smooth="yes"/>
      <point x="363" y="-14"/>
      <point x="417" y="32"/>
      <point x="472" y="84" type="curve"/>
      <point x="482" y="62"/>
      <point x="498" y="41"/>
      <point x="505" y="29" type="curve" smooth="yes"/>
      <point x="518" y="8"/>
      <point x="559" y="-14"/>
      <point x="629" y="-14" type="curve" smooth="yes"/>
      <point x="735" y="-14"/>
      <point x="803" y="36"/>
      <point x="828" y="66" type="curve"/>
      <point x="830" y="75"/>
      <point x="824" y="88"/>
      <point x="816" y="91" type="curve" name="hr04"/>
      <point x="801" y="81"/>
      <point x="762" y="64"/>
      <point x="726" y="64" type="curve" smooth="yes"/>
      <point x="639" y="64"/>
      <point x="613" y="123"/>
      <point x="578" y="169" type="curve"/>
      <point x="563" y="193"/>
      <point x="561" y="202"/>
      <point x="561" y="198" type="curve"/>
      <point x="559" y="198" type="line"/>
      <point x="561" y="207"/>
      <point x="568" y="217"/>
      <point x="573" y="224" type="curve" smooth="yes"/>
      <point x="633" y="315" type="line" smooth="yes"/>
      <point x="662" y="358"/>
      <point x="686" y="398"/>
      <point x="708" y="415" type="curve" smooth="yes"/>
      <point x="720" y="425"/>
      <point x="742" y="440"/>
      <point x="775" y="445" type="curve" smooth="yes"/>
      <point x="802" y="449" type="line"/>
      <point x="813" y="455"/>
      <point x="811" y="480"/>
      <point x="800" y="484" type="curve"/>
      <point x="748" y="482"/>
      <point x="680" y="478"/>
      <point x="603" y="478" type="curve" smooth="yes"/>
      <point x="562" y="478" type="line"/>
      <point x="551" y="474"/>
      <point x="550" y="449"/>
      <point x="559" y="443" type="curve"/>
      <point x="577" y="440" type="line" smooth="yes"/>
      <point x="594" y="437"/>
      <point x="604" y="431"/>
      <point x="604" y="422" type="curve" smooth="yes"/>
      <point x="604" y="413"/>
      <point x="593" y="384"/>
      <point x="579" y="352" type="curve" smooth="yes"/>
      <point x="562" y="312"/>
      <point x="548" y="284"/>
      <point x="526" y="246" type="curve"/>
      <point x="483" y="302"/>
      <point x="430" y="358"/>
      <point x="377" y="386" type="curve"/>
      <point x="406" y="404"/>
      <point x="469" y="434"/>
      <point x="469" y="506" type="curve" smooth="yes"/>
      <point x="469" y="581"/>
      <point x="410" y="640"/>
    </contour>
    <contour>
      <point x="189" y="203" type="curve" smooth="yes"/>
      <point x="189" y="283"/>
      <point x="251" y="323"/>
      <point x="256" y="323" type="curve" smooth="yes"/>
      <point x="261" y="323"/>
      <point x="268" y="317"/>
      <point x="280" y="309" type="curve" smooth="yes"/>
      <point x="322" y="282"/>
      <point x="389" y="227"/>
      <point x="429" y="159" type="curve" smooth="yes"/>
      <point x="441" y="138"/>
      <point x="445" y="133"/>
      <point x="445" y="130" type="curve" smooth="yes"/>
      <point x="445" y="127"/>
      <point x="399" y="67"/>
      <point x="324" y="67" type="curve" smooth="yes"/>
      <point x="251" y="67"/>
      <point x="189" y="118"/>
    </contour>
    <contour>
      <point x="375" y="520" type="curve" smooth="yes"/>
      <point x="375" y="462"/>
      <point x="342" y="420"/>
      <point x="332" y="416" type="curve"/>
      <point x="324" y="418"/>
      <point x="255" y="452"/>
      <point x="255" y="523" type="curve" smooth="yes" name="hr06"/>
      <point x="255" y="565"/>
      <point x="281" y="596"/>
      <point x="315" y="596" type="curve" smooth="yes"/>
      <point x="356" y="596"/>
      <point x="375" y="557"/>
    </contour>
  </outline>
</glyph>
<glyph name="parenleft" format="1">
  <advance width="340"/>
  <unicode hex="0028"/>
  <outline>
    <contour>
      <point x="181" y="270" type="curve" smooth="yes" name="hr00"/>
      <point x="181" y="415"/>
      <point x="222" y="587"/>
      <point x="330" y="684" type="curve"/>
      <point x="330" y="693"/>
      <point x="325" y="702"/>
      <point x="313" y="703" type="curve"/>
      <point x="157" y="618"/>
      <point x="84" y="440"/>
      <point x="84" y="270" type="curve" smooth="yes"/>
      <point x="84" y="100"/>
      <point x="157" y="-78"/>
      <point x="313" y="-163" type="curve"/>
      <point x="325" y="-162"/>
      <point x="330" y="-153"/>
      <point x="330" y="-144" type="curve"/>
      <point x="222" y="-47"/>
      <point x="181" y="125"/>
    </contour>
  </outline>
</glyph>
<glyph name="parenright" format="1">
  <advance width="340"/>
  <unicode hex="0029"/>
  <outline>
    <contour>
      <point x="159" y="270" type="curve" smooth="yes" name="hr00"/>
      <point x="159" y="125"/>
      <point x="118" y="-47"/>
      <point x="10" y="-144" type="curve"/>
      <point x="10" y="-153"/>
      <point x="15" y="-162"/>
      <point x="27" y="-163" type="curve"/>
      <point x="183" y="-78"/>
      <point x="256" y="100"/>
      <point x="256" y="270" type="curve" smooth="yes"/>
      <point x="256" y="440"/>
      <point x="183" y="618"/>
      <point x="27" y="703" type="curve"/>
      <point x="15" y="702"/>
      <point x="10" y="693"/>
      <point x="10" y="684" type="curve"/>
      <point x="118" y="587"/>
      <point x="159" y="415"/>
    </contour>
  </outline>
</glyph>
<glyph name="asterisk" format="1">
  <advance width="405"/>
  <unicode hex="002A"/>
  <outline>
    <contour>
      <point x="231" y="539" type="line" name="hr00"/>
      <point x="218" y="672" type="line"/>
      <point x="211" y="677"/>
      <point x="195" y="677"/>
      <point x="187" y="672" type="curve"/>
      <point x="174" y="539" type="line"/>
      <point x="47" y="604" type="line"/>
      <point x="37" y="599"/>
      <point x="31" y="585"/>
      <point x="34" y="575" type="curve"/>
      <point x="149" y="494" type="line"/>
      <point x="34" y="413" type="line"/>
      <point x="31" y="403"/>
      <point x="37" y="389"/>
      <point x="47" y="385" type="curve"/>
      <point x="174" y="449" type="line"/>
      <point x="187" y="317" type="line"/>
      <point x="194" y="312"/>
      <point x="212" y="312"/>
      <point x="218" y="317" type="curve"/>
      <point x="231" y="449" type="line"/>
      <point x="356" y="385" type="line"/>
      <point x="366" y="390"/>
      <point x="373" y="404"/>
      <point x="370" y="416" type="curve"/>
      <point x="257" y="494" type="line"/>
      <point x="371" y="574" type="line"/>
      <point x="373" y="588"/>
      <point x="366" y="602"/>
      <point x="355" y="605" type="curve"/>
    </contour>
  </outline>
</glyph>
<glyph name="plus" format="1">
  <advance width="520"/>
  <unicode hex="002B"/>
  <outline>
    <contour>
      <point x="305" y="0" type="line" name="hr00"/>
      <point x="305" y="177" type="line"/>
      <point x="461" y="177" type="line"/>
      <point x="461" y="249" type="line"/>
      <point x="305" y="249" type="line"/>
      <point x="305" y="408" type="line"/>
      <point x="217" y="408" type="line"/>
      <point x="217" y="249" type="line"/>
      <point x="60" y="249" type="line"/>
      <point x="60" y="177" type="line"/>
      <point x="217" y="177" type="line"/>
      <point x="217" y="0" type="line"/>
    </contour>
  </outline>
</glyph>
<glyph name="comma" format="1">
  <advance width="260"/>
  <unicode hex="002C"/>
  <outline>
    <contour>
      <point x="116" y="168" type="curve" smooth="yes" name="hr00"/>
      <point x="76" y="168"/>
      <point x="44" y="139"/>
      <point x="44" y="103" type="curve" smooth="yes"/>
      <point x="44" y="80"/>
      <point x="58" y="63"/>
      <point x="75" y="58" type="curve" smooth="yes"/>
      <point x="100" y="51"/>
      <point x="133" y="37"/>
      <point x="133" y="-7" type="curve" smooth="yes"/>
      <point x="133" y="-56"/>
      <point x="82" y="-90"/>
      <point x="44" y="-104" type="curve"/>
      <point x="33" y="-111"/>
      <point x="37" y="-134"/>
      <point x="55" y="-136" type="curve"/>
      <point x="141" y="-116"/>
      <point x="219" y="-60"/>
      <point x="219" y="39" type="curve" smooth="yes"/>
      <point x="219" y="132"/>
      <point x="159" y="168"/>
    </contour>
  </outline>
</glyph>
<glyph name="slash" format="1">
  <advance width="339"/>
  <unicode hex="002F"/>
  <outline>
    <contour>
      <point x="319" y="676" type="line" name="hr00"/>
      <point x="229" y="676" type="line"/>
      <point x="20" y="-16" type="line"/>
      <point x="110" y="-16" type="line"/>
    </contour>
  </outline>
</glyph>
<glyph name="one" format="1">
  <advance width="520"/>
  <unicode hex="0031"/>
  <outline>
    <contour>
      <point x="330" y="510" type="line" smooth="yes" name="hr00"/>
      <point x="330" y="560"/>
      <point x="331" y="606"/>
      <point x="333" y="629" type="curve"/>
      <point x="331" y="637"/>
      <point x="324" y="640"/>
      <point x="319" y="640" type="curve" smooth="yes"/>
      <point x="312" y="640"/>
      <point x="274" y="621"/>
      <point x="230" y="608" type="curve" smooth="yes"/>
      <point x="190" y="597"/>
      <point x="143" y="586"/>
      <point x="102" y="580" type="curve"/>
      <point x="94" y="574"/>
      <point x="95" y="550"/>
      <point x="104" y="545" type="curve"/>
      <point x="150" y="539" type="line" smooth="yes"/>
      <point x="194" y="533"/>
      <point x="198" y="518"/>
      <point x="198" y="452" type="curve" smooth="yes"/>
      <point x="198" y="129" type="line" smooth="yes"/>
      <point x="198" y="49"/>
      <point x="192" y="39"/>
      <point x="143" y="35" type="curve" smooth="yes"/>
      <point x="102" y="32" type="line"/>
      <point x="93" y="26"/>
      <point x="94" y="0"/>
      <point x="104" y="-3" type="curve"/>
      <point x="140" y="-1"/>
      <point x="200" y="0"/>
      <point x="266" y="0" type="curve" smooth="yes"/>
      <point x="328" y="0"/>
      <point x="388" y="-1"/>
      <point x="424" y="-3" type="curve"/>
      <point x="434" y="0"/>
      <point x="435" y="26"/>
      <point x="426" y="32" type="curve"/>
      <point x="385" y="35" type="line" smooth="yes"/>
      <point x="336" y="39"/>
      <point x="330" y="49"/>
      <point x="330" y="129" type="curve" smooth="yes"/>
    </contour>
  </outline>
</glyph>
<glyph name="four" format="1">
  <advance width="520"/>
  <unicode hex="0034"/>
  <outline>
    <contour>
      <point x="277" y="129" type="line" smooth="yes" name="hr00"/>
      <point x="277" y="47"/>
      <point x="271" y="39"/>
      <point x="222" y="35" type="curve" smooth="yes"/>
      <point x="181" y="32" type="line"/>
      <point x="172" y="26"/>
      <point x="173" y="0"/>
      <point x="183" y="-3" type="curve"/>
      <point x="217" y="-1"/>
      <point x="277" y="0"/>
      <point x="343" y="0" type="curve" smooth="yes"/>
      <point x="389" y="0"/>
      <point x="442" y="-1"/>
      <point x="478" y="-3" type="curve"/>
      <point x="488" y="0"/>
      <point x="489" y="26"/>
      <point x="480" y="32" type="curve"/>
      <point x="459" y="34" type="line" smooth="yes"/>
      <point x="415" y="38"/>
      <point x="409" y="47"/>
      <point x="409" y="129" type="curve" smooth="yes"/>
      <point x="409" y="157" type="line" smooth="yes"/>
      <point x="409" y="183"/>
      <point x="411" y="186"/>
      <point x="432" y="186" type="curve" smooth="yes"/>
      <point x="498" y="186" type="line"/>
      <point x="513" y="195"/>
      <point x="513" y="234"/>
      <point x="498" y="242" type="curve"/>
      <point x="432" y="242" type="line" smooth="yes"/>
      <point x="411" y="242"/>
      <point x="409" y="245"/>
      <point x="409" y="271" type="curve" smooth="yes"/>
      <point x="409" y="461" type="line" smooth="yes"/>
      <point x="409" y="471"/>
      <point x="405" y="478"/>
      <point x="396" y="478" type="curve" smooth="yes"/>
      <point x="379" y="478"/>
      <point x="325" y="458"/>
      <point x="299" y="447" type="curve" smooth="yes"/>
      <point x="283" y="441"/>
      <point x="277" y="434"/>
      <point x="277" y="411" type="curve" smooth="yes"/>
      <point x="277" y="271" type="line" smooth="yes"/>
      <point x="277" y="245"/>
      <point x="275" y="242"/>
      <point x="254" y="242" type="curve" smooth="yes"/>
      <point x="131" y="242" type="line" smooth="yes"/>
      <point x="99" y="242"/>
      <point x="100" y="250"/>
      <point x="109" y="263" type="curve" smooth="yes"/>
      <point x="409" y="679" type="line" smooth="yes"/>
      <point x="424" y="699"/>
      <point x="416" y="706"/>
      <point x="399" y="706" type="curve" smooth="yes"/>
      <point x="370" y="706" type="line" smooth="yes"/>
      <point x="356" y="706"/>
      <point x="348" y="698"/>
      <point x="337" y="682" type="curve" smooth="yes"/>
      <point x="12" y="218" type="line"/>
      <point x="8" y="205"/>
      <point x="11" y="191"/>
      <point x="23" y="186" type="curve"/>
      <point x="254" y="186" type="line" smooth="yes"/>
      <point x="275" y="186"/>
      <point x="277" y="183"/>
      <point x="277" y="157" type="curve" smooth="yes"/>
    </contour>
  </outline>
</glyph>
<glyph name="greater" format="1">
  <advance width="520"/>
  <unicode hex="003E"/>
  <outline>
    <contour>
      <point x="66" y="414" type="line" name="hr01"/>
      <point x="66" y="331" type="line"/>
      <point x="352" y="208" type="line" name="hr02"/>
      <point x="352" y="206" type="line"/>
      <point x="66" y="82" type="line"/>
      <point x="66" y="0" type="line"/>
      <point x="455" y="177" type="line"/>
      <point x="455" y="236" type="line"/>
    </contour>
  </outline>
</glyph>
<glyph name="question" format="1">
  <advance width="332"/>
  <unicode hex="003F"/>
  <outline>
    <contour>
      <point x="55" y="321" type="curve" smooth="yes" name="hr01"/>
      <point x="55" y="280"/>
      <point x="82" y="226"/>
      <point x="99" y="203" type="curve"/>
      <point x="107" y="195"/>
      <point x="127" y="199"/>
      <point x="132" y="208" type="curve"/>
      <point x="125" y="228"/>
      <point x="122" y="247"/>
      <point x="122" y="262" type="curve" smooth="yes"/>
      <point x="122" y="278"/>
      <point x="136" y="293"/>
      <point x="163" y="305" type="curve" smooth="yes"/>
      <point x="229" y="335" type="line" smooth="yes"/>
      <point x="266" y="352"/>
      <point x="292" y="384"/>
      <point x="292" y="442" type="curve" smooth="yes"/>
      <point x="292" y="551"/>
      <point x="202" y="646"/>
      <point x="110" y="646" type="curve" smooth="yes"/>
      <point x="68" y="646"/>
      <point x="40" y="617"/>
      <point x="40" y="584" type="curve" smooth="yes"/>
      <point x="40" y="539"/>
      <point x="76" y="520"/>
      <point x="95" y="520" type="curve" smooth="yes"/>
      <point x="201" y="520"/>
      <point x="240" y="506"/>
      <point x="240" y="476" type="curve" smooth="yes"/>
      <point x="240" y="462"/>
      <point x="222" y="453"/>
      <point x="192" y="440" type="curve" smooth="yes"/>
      <point x="145" y="420" type="line" smooth="yes"/>
      <point x="87" y="395"/>
      <point x="55" y="377"/>
    </contour>
    <contour>
      <point x="131" y="-14" type="curve" smooth="yes" name="hr02"/>
      <point x="179" y="-14"/>
      <point x="212" y="21"/>
      <point x="212" y="67" type="curve" smooth="yes"/>
      <point x="212" y="110"/>
      <point x="179" y="150"/>
      <point x="131" y="150" type="curve" smooth="yes"/>
      <point x="86" y="150"/>
      <point x="50" y="114"/>
      <point x="50" y="67" type="curve" smooth="yes"/>
      <point x="50" y="18"/>
      <point x="91" y="-14"/>
    </contour>
  </outline>
</glyph>
<glyph name="at" format="1">
  <advance width="769"/>
  <unicode hex="0040"/>
  <outline>
    <contour>
      <point x="441" y="541" type="curve" smooth="yes" name="hr00"/>
      <point x="229" y="541"/>
      <point x="40" y="395"/>
      <point x="40" y="162" type="curve" smooth="yes"/>
      <point x="40" y="-51"/>
      <point x="206" y="-150"/>
      <point x="382" y="-150" type="curve" smooth="yes"/>
      <point x="440" y="-150"/>
      <point x="517" y="-137"/>
      <point x="577" y="-104" type="curve"/>
      <point x="583" y="-95"/>
      <point x="578" y="-76"/>
      <point x="568" y="-72" type="curve"/>
      <point x="536" y="-85"/>
      <point x="490" y="-105"/>
      <point x="414" y="-105" type="curve" smooth="yes"/>
      <point x="196" y="-105"/>
      <point x="135" y="52"/>
      <point x="135" y="161" type="curve" smooth="yes"/>
      <point x="135" y="335"/>
      <point x="256" y="496"/>
      <point x="441" y="496" type="curve" smooth="yes"/>
      <point x="574" y="496"/>
      <point x="681" y="407"/>
      <point x="681" y="269" type="curve" smooth="yes"/>
      <point x="681" y="150"/>
      <point x="587" y="81"/>
      <point x="506" y="81" type="curve" smooth="yes"/>
      <point x="485" y="81"/>
      <point x="483" y="90"/>
      <point x="492" y="115" type="curve" smooth="yes"/>
      <point x="505" y="148"/>
      <point x="593" y="352"/>
      <point x="605" y="382" type="curve"/>
      <point x="593" y="391"/>
      <point x="573" y="396"/>
      <point x="552" y="396" type="curve" smooth="yes"/>
      <point x="546" y="396"/>
      <point x="541" y="395"/>
      <point x="536" y="394" type="curve"/>
      <point x="512" y="349" type="line"/>
      <point x="507" y="359"/>
      <point x="494" y="365"/>
      <point x="478" y="365" type="curve" smooth="yes"/>
      <point x="403" y="365"/>
      <point x="326" y="297"/>
      <point x="281" y="241" type="curve" smooth="yes"/>
      <point x="224" y="168"/>
      <point x="205" y="104"/>
      <point x="205" y="85" type="curve" smooth="yes"/>
      <point x="205" y="63"/>
      <point x="219" y="41"/>
      <point x="249" y="41" type="curve" smooth="yes"/>
      <point x="291" y="41"/>
      <point x="379" y="95"/>
      <point x="430" y="157" type="curve"/>
      <point x="432" y="156" type="line"/>
      <point x="411" y="101" type="line" smooth="yes"/>
      <point x="406" y="87"/>
      <point x="402" y="78"/>
      <point x="402" y="69" type="curve" smooth="yes"/>
      <point x="402" y="61"/>
      <point x="411" y="41"/>
      <point x="469" y="41" type="curve" smooth="yes"/>
      <point x="638" y="41"/>
      <point x="734" y="141"/>
      <point x="734" y="271" type="curve" smooth="yes"/>
      <point x="734" y="413"/>
      <point x="631" y="541"/>
    </contour>
    <contour>
      <point x="379" y="139" type="curve" smooth="yes"/>
      <point x="343" y="106"/>
      <point x="327" y="101"/>
      <point x="319" y="101" type="curve" smooth="yes"/>
      <point x="313" y="101"/>
      <point x="309" y="105"/>
      <point x="309" y="115" type="curve" smooth="yes"/>
      <point x="309" y="153"/>
      <point x="357" y="253"/>
      <point x="410" y="301" type="curve" smooth="yes"/>
      <point x="435" y="323"/>
      <point x="451" y="332"/>
      <point x="459" y="332" type="curve" smooth="yes"/>
      <point x="475" y="332"/>
      <point x="484" y="320"/>
      <point x="489" y="307" type="curve"/>
      <point x="478" y="270"/>
      <point x="419" y="176"/>
    </contour>
  </outline>
</glyph>
<glyph name="B" format="1">
  <advance width="635"/>
  <unicode hex="0042"/>
  <outline>
    <contour>
      <point x="114" y="144" type="line" smooth="yes" name="hr01"/>
      <point x="114" y="54"/>
      <point x="108" y="47"/>
      <point x="63" y="38" type="curve" smooth="yes" name="hr02"/>
      <point x="34" y="32" type="line"/>
      <point x="26" y="29"/>
      <point x="26" y="3"/>
      <point x="34" y="-3" type="curve" name="hr03"/>
      <point x="91" y="-1"/>
      <point x="140" y="0"/>
      <point x="189" y="0" type="curve" smooth="yes" name="hr04"/>
      <point x="218" y="0"/>
      <point x="256" y="-4"/>
      <point x="292" y="-4" type="curve" smooth="yes" name="hr05"/>
      <point x="353" y="-4"/>
      <point x="428" y="-1"/>
      <point x="491" y="21" type="curve" smooth="yes"/>
      <point x="554" y="43"/>
      <point x="609" y="97"/>
      <point x="608" y="189" type="curve" smooth="yes"/>
      <point x="607" y="286"/>
      <point x="540" y="338"/>
      <point x="461" y="355" type="curve" smooth="yes"/>
      <point x="452" y="357"/>
      <point x="447" y="360"/>
      <point x="447" y="363" type="curve" smooth="yes"/>
      <point x="447" y="368"/>
      <point x="457" y="372"/>
      <point x="467" y="374" type="curve" smooth="yes"/>
      <point x="498" y="382"/>
      <point x="569" y="415"/>
      <point x="569" y="499" type="curve" smooth="yes" name="hr06"/>
      <point x="569" y="558"/>
      <point x="543" y="600"/>
      <point x="500" y="626" type="curve" smooth="yes"/>
      <point x="456" y="652"/>
      <point x="392" y="663"/>
      <point x="296" y="663" type="curve" smooth="yes"/>
      <point x="196" y="663"/>
      <point x="123" y="659"/>
      <point x="47" y="654" type="curve" smooth="yes"/>
      <point x="32" y="653"/>
      <point x="34" y="623"/>
      <point x="43" y="618" type="curve"/>
      <point x="70" y="614" type="line" smooth="yes"/>
      <point x="112" y="608"/>
      <point x="114" y="598"/>
      <point x="114" y="497" type="curve" smooth="yes"/>
    </contour>
    <contour>
      <point x="252" y="565" type="line" smooth="yes"/>
      <point x="252" y="609"/>
      <point x="253" y="617"/>
      <point x="300" y="617" type="curve" smooth="yes"/>
      <point x="369" y="617"/>
      <point x="423" y="574"/>
      <point x="423" y="487" type="curve" smooth="yes"/>
      <point x="423" y="427"/>
      <point x="391" y="372"/>
      <point x="305" y="372" type="curve" smooth="yes"/>
      <point x="253" y="372"/>
      <point x="252" y="374"/>
      <point x="252" y="400" type="curve" smooth="yes"/>
    </contour>
    <contour>
      <point x="252" y="287" type="line" smooth="yes"/>
      <point x="252" y="327"/>
      <point x="252" y="328"/>
      <point x="307" y="328" type="curve" smooth="yes"/>
      <point x="403" y="328"/>
      <point x="453" y="267"/>
      <point x="453" y="180" type="curve" smooth="yes" name="hr07"/>
      <point x="453" y="99"/>
      <point x="414" y="42"/>
      <point x="340" y="42" type="curve" smooth="yes"/>
      <point x="262" y="42"/>
      <point x="252" y="91"/>
      <point x="252" y="169" type="curve" smooth="yes"/>
    </contour>
  </outline>
</glyph>
<glyph name="F" format="1">
  <advance width="548"/>
  <unicode hex="0046"/>
  <outline>
    <contour>
      <point x="257" y="573" type="line" smooth="yes" name="hr01"/>
      <point x="257" y="612"/>
      <point x="257" y="614"/>
      <point x="290" y="614" type="curve" smooth="yes"/>
      <point x="368" y="614" type="line" smooth="yes"/>
      <point x="419" y="614"/>
      <point x="449" y="602"/>
      <point x="466" y="581" type="curve" smooth="yes"/>
      <point x="476" y="568"/>
      <point x="484" y="544"/>
      <point x="495" y="503" type="curve"/>
      <point x="507" y="495"/>
      <point x="529" y="496"/>
      <point x="533" y="507" type="curve"/>
      <point x="531" y="574"/>
      <point x="531" y="646"/>
      <point x="531" y="663" type="curve" name="hr02"/>
      <point x="517" y="661"/>
      <point x="460" y="660"/>
      <point x="396" y="660" type="curve" smooth="yes" name="hr03"/>
      <point x="186" y="660" type="line" smooth="yes"/>
      <point x="138" y="660"/>
      <point x="88" y="661"/>
      <point x="45" y="663" type="curve" name="hr04"/>
      <point x="34" y="659"/>
      <point x="34" y="634"/>
      <point x="43" y="628" type="curve"/>
      <point x="63" y="625" type="line" smooth="yes"/>
      <point x="108" y="618"/>
      <point x="114" y="609"/>
      <point x="114" y="516" type="curve" smooth="yes"/>
      <point x="114" y="144" type="line" smooth="yes"/>
      <point x="114" y="51"/>
      <point x="108" y="44"/>
      <point x="63" y="37" type="curve" smooth="yes"/>
      <point x="30" y="32" type="line"/>
      <point x="22" y="26"/>
      <point x="22" y="3"/>
      <point x="30" y="-3" type="curve"/>
      <point x="90" y="-1"/>
      <point x="140" y="0"/>
      <point x="186" y="0" type="curve" smooth="yes"/>
      <point x="234" y="0"/>
      <point x="283" y="-1"/>
      <point x="345" y="-3" type="curve"/>
      <point x="352" y="3"/>
      <point x="352" y="26"/>
      <point x="345" y="32" type="curve"/>
      <point x="308" y="37" type="line" smooth="yes"/>
      <point x="263" y="43"/>
      <point x="257" y="51"/>
      <point x="257" y="144" type="curve" smooth="yes"/>
      <point x="257" y="279" type="line" smooth="yes"/>
      <point x="257" y="306"/>
      <point x="258" y="309"/>
      <point x="285" y="309" type="curve" smooth="yes"/>
      <point x="362" y="309" type="line" smooth="yes"/>
      <point x="415" y="309"/>
      <point x="426" y="301"/>
      <point x="436" y="253" type="curve" smooth="yes"/>
      <point x="441" y="229" type="line"/>
      <point x="448" y="220"/>
      <point x="473" y="221"/>
      <point x="479" y="230" type="curve"/>
      <point x="477" y="260"/>
      <point x="476" y="297"/>
      <point x="476" y="334" type="curve" smooth="yes"/>
      <point x="476" y="372"/>
      <point x="477" y="409"/>
      <point x="479" y="441" type="curve"/>
      <point x="473" y="450"/>
      <point x="448" y="451"/>
      <point x="441" y="442" type="curve"/>
      <point x="436" y="418" type="line" smooth="yes"/>
      <point x="426" y="369"/>
      <point x="415" y="362"/>
      <point x="362" y="362" type="curve" smooth="yes"/>
      <point x="285" y="362" type="line" smooth="yes"/>
      <point x="258" y="362"/>
      <point x="257" y="365"/>
      <point x="257" y="392" type="curve" smooth="yes"/>
    </contour>
  </outline>
</glyph>
<glyph name="H" format="1">
  <advance width="806"/>
  <unicode hex="0048"/>
  <outline>
    <contour>
      <point x="507" y="317" type="line" smooth="yes" name="hr00"/>
      <point x="549" y="317"/>
      <point x="549" y="316"/>
      <point x="549" y="288" type="curve" smooth="yes"/>
      <point x="549" y="144" type="line" smooth="yes"/>
      <point x="549" y="51"/>
      <point x="544" y="41"/>
      <point x="498" y="35" type="curve" smooth="yes"/>
      <point x="476" y="32" type="line"/>
      <point x="468" y="26"/>
      <point x="468" y="3"/>
      <point x="476" y="-3" type="curve"/>
      <point x="524" y="-1"/>
      <point x="573" y="0"/>
      <point x="623" y="0" type="curve" smooth="yes"/>
      <point x="669" y="0"/>
      <point x="718" y="-1"/>
      <point x="768" y="-3" type="curve"/>
      <point x="776" y="3"/>
      <point x="776" y="26"/>
      <point x="768" y="32" type="curve"/>
      <point x="744" y="36" type="line" smooth="yes"/>
      <point x="698" y="44"/>
      <point x="692" y="51"/>
      <point x="692" y="144" type="curve" smooth="yes"/>
      <point x="692" y="516" type="line" smooth="yes"/>
      <point x="692" y="609"/>
      <point x="698" y="618"/>
      <point x="744" y="625" type="curve" smooth="yes"/>
      <point x="764" y="628" type="line"/>
      <point x="772" y="634"/>
      <point x="772" y="657"/>
      <point x="764" y="663" type="curve"/>
      <point x="718" y="661"/>
      <point x="672" y="660"/>
      <point x="623" y="660" type="curve" smooth="yes"/>
      <point x="575" y="660"/>
      <point x="526" y="661"/>
      <point x="471" y="663" type="curve"/>
      <point x="463" y="657"/>
      <point x="463" y="634"/>
      <point x="471" y="628" type="curve"/>
      <point x="498" y="624" type="line" smooth="yes"/>
      <point x="544" y="617"/>
      <point x="549" y="609"/>
      <point x="549" y="516" type="curve" smooth="yes"/>
      <point x="549" y="400" type="line" smooth="yes"/>
      <point x="549" y="371"/>
      <point x="549" y="370"/>
      <point x="507" y="370" type="curve" smooth="yes"/>
      <point x="299" y="370" type="line" smooth="yes"/>
      <point x="258" y="370"/>
      <point x="257" y="371"/>
      <point x="257" y="400" type="curve" smooth="yes"/>
      <point x="257" y="516" type="line" smooth="yes"/>
      <point x="257" y="609"/>
      <point x="263" y="619"/>
      <point x="306" y="625" type="curve" smooth="yes"/>
      <point x="327" y="628" type="line"/>
      <point x="335" y="634"/>
      <point x="335" y="657"/>
      <point x="327" y="663" type="curve"/>
      <point x="283" y="661"/>
      <point x="233" y="660"/>
      <point x="188" y="660" type="curve" smooth="yes"/>
      <point x="140" y="660"/>
      <point x="88" y="661"/>
      <point x="39" y="663" type="curve"/>
      <point x="31" y="657"/>
      <point x="31" y="634"/>
      <point x="39" y="628" type="curve"/>
      <point x="63" y="625" type="line" smooth="yes"/>
      <point x="109" y="619"/>
      <point x="114" y="609"/>
      <point x="114" y="516" type="curve" smooth="yes"/>
      <point x="114" y="144" type="line" smooth="yes"/>
      <point x="114" y="51"/>
      <point x="109" y="41"/>
      <point x="63" y="35" type="curve" smooth="yes"/>
      <point x="39" y="32" type="line"/>
      <point x="31" y="26"/>
      <point x="31" y="3"/>
      <point x="39" y="-3" type="curve"/>
      <point x="90" y="-1"/>
      <point x="140" y="0"/>
      <point x="188" y="0" type="curve" smooth="yes"/>
      <point x="233" y="0"/>
      <point x="283" y="-1"/>
      <point x="340" y="-3" type="curve"/>
      <point x="348" y="3"/>
      <point x="348" y="26"/>
      <point x="340" y="32" type="curve"/>
      <point x="308" y="36" type="line" smooth="yes"/>
      <point x="263" y="42"/>
      <point x="257" y="51"/>
      <point x="257" y="144" type="curve" smooth="yes"/>
      <point x="257" y="288" type="line" smooth="yes"/>
      <point x="257" y="316"/>
      <point x="258" y="317"/>
      <point x="299" y="317" type="curve" smooth="yes"/>
    </contour>
  </outline>
</glyph>
<glyph name="J" format="1">
  <advance width="383"/>
  <unicode hex="004A"/>
  <outline>
    <contour>
      <point x="134" y="138" type="line" smooth="yes" name="hr00"/>
      <point x="134" y="32"/>
      <point x="127" y="-41"/>
      <point x="125" y="-58" type="curve" smooth="yes"/>
      <point x="121" y="-93"/>
      <point x="116" y="-140"/>
      <point x="93" y="-140" type="curve" smooth="yes"/>
      <point x="82" y="-140"/>
      <point x="66" y="-128"/>
      <point x="49" y="-115" type="curve" smooth="yes"/>
      <point x="32" y="-102"/>
      <point x="14" y="-90"/>
      <point x="-2" y="-90" type="curve" smooth="yes"/>
      <point x="-13" y="-90"/>
      <point x="-22" y="-95"/>
      <point x="-30" y="-103" type="curve" smooth="yes"/>
      <point x="-44" y="-117"/>
      <point x="-56" y="-142"/>
      <point x="-56" y="-161" type="curve" smooth="yes"/>
      <point x="-56" y="-195"/>
      <point x="-8" y="-202"/>
      <point x="20" y="-201" type="curve" smooth="yes"/>
      <point x="147" y="-196"/>
      <point x="220" y="-129"/>
      <point x="254" y="-41" type="curve" smooth="yes"/>
      <point x="271" y="4"/>
      <point x="277" y="73"/>
      <point x="277" y="152" type="curve" smooth="yes"/>
      <point x="277" y="514" type="line" smooth="yes"/>
      <point x="277" y="608"/>
      <point x="283" y="614"/>
      <point x="329" y="623" type="curve" smooth="yes"/>
      <point x="355" y="628" type="line"/>
      <point x="363" y="634"/>
      <point x="363" y="657"/>
      <point x="355" y="663" type="curve"/>
      <point x="303" y="661"/>
      <point x="253" y="660"/>
      <point x="205" y="660" type="curve" smooth="yes"/>
      <point x="158" y="660"/>
      <point x="108" y="661"/>
      <point x="44" y="663" type="curve"/>
      <point x="36" y="657"/>
      <point x="36" y="634"/>
      <point x="44" y="628" type="curve"/>
      <point x="82" y="622" type="line" smooth="yes"/>
      <point x="128" y="615"/>
      <point x="134" y="608"/>
      <point x="134" y="514" type="curve" smooth="yes"/>
    </contour>
  </outline>
</glyph>
<glyph name="K" format="1">
  <advance width="715"/>
  <unicode hex="004B"/>
  <outline>
    <contour>
      <point x="257" y="516" type="line" smooth="yes" name="hr00"/>
      <point x="257" y="609"/>
      <point x="263" y="618"/>
      <point x="308" y="624" type="curve" smooth="yes"/>
      <point x="336" y="628" type="line"/>
      <point x="345" y="634"/>
      <point x="345" y="657"/>
      <point x="336" y="663" type="curve"/>
      <point x="283" y="661"/>
      <point x="233" y="660"/>
      <point x="185" y="660" type="curve" smooth="yes"/>
      <point x="135" y="660"/>
      <point x="85" y="661"/>
      <point x="35" y="663" type="curve"/>
      <point x="24" y="657"/>
      <point x="24" y="634"/>
      <point x="35" y="628" type="curve"/>
      <point x="63" y="624" type="line" smooth="yes"/>
      <point x="108" y="618"/>
      <point x="114" y="609"/>
      <point x="114" y="516" type="curve" smooth="yes"/>
      <point x="114" y="144" type="line" smooth="yes"/>
      <point x="114" y="51"/>
      <point x="108" y="42"/>
      <point x="63" y="36" type="curve" smooth="yes"/>
      <point x="35" y="32" type="line"/>
      <point x="27" y="26"/>
      <point x="27" y="3"/>
      <point x="35" y="-3" type="curve"/>
      <point x="88" y="-1"/>
      <point x="140" y="0"/>
      <point x="185" y="0" type="curve" smooth="yes"/>
      <point x="233" y="0"/>
      <point x="283" y="-1"/>
      <point x="336" y="-3" type="curve"/>
      <point x="344" y="3"/>
      <point x="344" y="25"/>
      <point x="336" y="32" type="curve"/>
      <point x="308" y="36" type="line" smooth="yes"/>
      <point x="263" y="42"/>
      <point x="257" y="51"/>
      <point x="257" y="144" type="curve" smooth="yes"/>
      <point x="257" y="249" type="line" smooth="yes"/>
      <point x="257" y="303"/>
      <point x="258" y="317"/>
      <point x="281" y="317" type="curve" smooth="yes"/>
      <point x="303" y="317"/>
      <point x="320" y="293"/>
      <point x="356" y="238" type="curve" smooth="yes"/>
      <point x="409" y="157" type="line"/>
      <point x="467" y="68" type="line" smooth="yes"/>
      <point x="473" y="59"/>
      <point x="475" y="52"/>
      <point x="475" y="48" type="curve" smooth="yes"/>
      <point x="475" y="44"/>
      <point x="469" y="41"/>
      <point x="458" y="38" type="curve" smooth="yes"/>
      <point x="433" y="32" type="line"/>
      <point x="422" y="26"/>
      <point x="422" y="1"/>
      <point x="435" y="-3" type="curve"/>
      <point x="491" y="-1"/>
      <point x="541" y="0"/>
      <point x="592" y="0" type="curve" smooth="yes"/>
      <point x="638" y="0"/>
      <point x="686" y="-1"/>
      <point x="736" y="-3" type="curve"/>
      <point x="745" y="2"/>
      <point x="745" y="23"/>
      <point x="739" y="32" type="curve"/>
      <point x="707" y="37" type="line" smooth="yes"/>
      <point x="679" y="41"/>
      <point x="660" y="48"/>
      <point x="633" y="84" type="curve" smooth="yes"/>
      <point x="565" y="174"/>
      <point x="506" y="270"/>
      <point x="456" y="345" type="curve" smooth="yes"/>
      <point x="426" y="390"/>
      <point x="420" y="402"/>
      <point x="420" y="407" type="curve" smooth="yes"/>
      <point x="420" y="411"/>
      <point x="423" y="419"/>
      <point x="433" y="430" type="curve" smooth="yes"/>
      <point x="479" y="482" type="line" smooth="yes"/>
      <point x="544" y="556"/>
      <point x="587" y="594"/>
      <point x="627" y="610" type="curve" smooth="yes"/>
      <point x="648" y="619"/>
      <point x="678" y="624"/>
      <point x="713" y="628" type="curve"/>
      <point x="721" y="636"/>
      <point x="720" y="659"/>
      <point x="708" y="663" type="curve"/>
      <point x="668" y="661"/>
      <point x="624" y="660"/>
      <point x="587" y="660" type="curve" smooth="yes"/>
      <point x="551" y="660"/>
      <point x="514" y="661"/>
      <point x="463" y="663" type="curve"/>
      <point x="450" y="659"/>
      <point x="448" y="635"/>
      <point x="459" y="628" type="curve"/>
      <point x="494" y="622" type="line" smooth="yes"/>
      <point x="507" y="620"/>
      <point x="511" y="613"/>
      <point x="511" y="609" type="curve" smooth="yes"/>
      <point x="511" y="605"/>
      <point x="507" y="596"/>
      <point x="498" y="583" type="curve" smooth="yes"/>
      <point x="466" y="536"/>
      <point x="408" y="474"/>
      <point x="355" y="415" type="curve" smooth="yes"/>
      <point x="338" y="396"/>
      <point x="296" y="357"/>
      <point x="275" y="357" type="curve" smooth="yes"/>
      <point x="263" y="357"/>
      <point x="257" y="361"/>
      <point x="257" y="394" type="curve" smooth="yes"/>
    </contour>
  </outline>
</glyph>
<glyph name="P" format="1">
  <advance width="601"/>
  <unicode hex="0050"/>
  <outline>
    <contour>
      <point x="114" y="144" type="line" smooth="yes" name="hr00"/>
      <point x="114" y="51"/>
      <point x="108" y="44"/>
      <point x="63" y="36" type="curve" smooth="yes"/>
      <point x="35" y="31" type="line"/>
      <point x="24" y="26"/>
      <point x="26" y="3"/>
      <point x="37" y="-3" type="curve"/>
      <point x="91" y="-1"/>
      <point x="139" y="0"/>
      <point x="187" y="0" type="curve" smooth="yes"/>
      <point x="235" y="0"/>
      <point x="284" y="-1"/>
      <point x="340" y="-3" type="curve"/>
      <point x="351" y="3"/>
      <point x="351" y="26"/>
      <point x="340" y="31" type="curve"/>
      <point x="308" y="36" type="line" smooth="yes"/>
      <point x="263" y="43"/>
      <point x="257" y="51"/>
      <point x="257" y="144" type="curve" smooth="yes"/>
      <point x="257" y="566" type="line" smooth="yes"/>
      <point x="257" y="606"/>
      <point x="259" y="617"/>
      <point x="296" y="617" type="curve" smooth="yes"/>
      <point x="386" y="617"/>
      <point x="424" y="537"/>
      <point x="424" y="463" type="curve" smooth="yes"/>
      <point x="424" y="389"/>
      <point x="407" y="330"/>
      <point x="324" y="304" type="curve"/>
      <point x="317" y="298"/>
      <point x="319" y="282"/>
      <point x="327" y="277" type="curve"/>
      <point x="338" y="276"/>
      <point x="347" y="276"/>
      <point x="359" y="276" type="curve" smooth="yes"/>
      <point x="412" y="276"/>
      <point x="577" y="300"/>
      <point x="577" y="464" type="curve" smooth="yes"/>
      <point x="577" y="561"/>
      <point x="516" y="614"/>
      <point x="455" y="637" type="curve" smooth="yes"/>
      <point x="413" y="653"/>
      <point x="357" y="663"/>
      <point x="272" y="663" type="curve" smooth="yes"/>
      <point x="185" y="663"/>
      <point x="107" y="659"/>
      <point x="41" y="654" type="curve"/>
      <point x="30" y="647"/>
      <point x="30" y="625"/>
      <point x="39" y="620" type="curve"/>
      <point x="70" y="616" type="line" smooth="yes"/>
      <point x="112" y="611"/>
      <point x="114" y="599"/>
      <point x="114" y="498" type="curve" smooth="yes"/>
    </contour>
  </outline>
</glyph>
<glyph name="S" format="1">
  <advance width="506"/>
  <unicode hex="0053"/>
  <outline>
    <contour>
      <point x="477" y="187" type="curve" smooth="yes" name="hr00"/>
      <point x="477" y="297"/>
      <point x="398" y="355"/>
      <point x="336" y="388" type="curve" smooth="yes"/>
      <point x="270" y="423" type="line" smooth="yes"/>
      <point x="220" y="449"/>
      <point x="179" y="491"/>
      <point x="179" y="537" type="curve" smooth="yes"/>
      <point x="179" y="587"/>
      <point x="215" y="630"/>
      <point x="281" y="630" type="curve" smooth="yes"/>
      <point x="353" y="630"/>
      <point x="396" y="557"/>
      <point x="413" y="506" type="curve"/>
      <point x="422" y="496"/>
      <point x="447" y="497"/>
      <point x="452" y="509" type="curve"/>
      <point x="452" y="576"/>
      <point x="442" y="630"/>
      <point x="434" y="652" type="curve"/>
      <point x="422" y="654"/>
      <point x="413" y="656"/>
      <point x="400" y="660" type="curve" smooth="yes"/>
      <point x="360" y="672"/>
      <point x="319" y="676"/>
      <point x="286" y="676" type="curve" smooth="yes"/>
      <point x="141" y="676"/>
      <point x="53" y="598"/>
      <point x="54" y="485" type="curve" smooth="yes"/>
      <point x="54" y="386"/>
      <point x="133" y="326"/>
      <point x="205" y="290" type="curve" smooth="yes"/>
      <point x="265" y="260"/>
      <point x="341" y="212"/>
      <point x="341" y="131" type="curve" smooth="yes"/>
      <point x="341" y="81"/>
      <point x="307" y="30"/>
      <point x="233" y="30" type="curve" smooth="yes"/>
      <point x="148" y="30"/>
      <point x="81" y="122"/>
      <point x="61" y="187" type="curve"/>
      <point x="53" y="198"/>
      <point x="30" y="197"/>
      <point x="23" y="184" type="curve"/>
      <point x="23" y="116"/>
      <point x="36" y="44"/>
      <point x="55" y="22" type="curve"/>
      <point x="76" y="10"/>
      <point x="133" y="-16"/>
      <point x="225" y="-16" type="curve" smooth="yes"/>
      <point x="376" y="-16"/>
      <point x="477" y="64"/>
    </contour>
  </outline>
</glyph>
<glyph name="bracketleft" format="1">
  <advance width="340"/>
  <unicode hex="005B"/>
  <outline>
    <contour>
      <point x="121" y="-152" type="line" name="hr00"/>
      <point x="144" y="-153"/>
      <point x="166" y="-153"/>
      <point x="199" y="-153" type="curve" smooth="yes"/>
      <point x="254" y="-153"/>
      <point x="294" y="-151"/>
      <point x="309" y="-149" type="curve"/>
      <point x="317" y="-145"/>
      <point x="317" y="-122"/>
      <point x="310" y="-118" type="curve"/>
      <point x="241" y="-107" type="line" smooth="yes"/>
      <point x="209" y="-102"/>
      <point x="203" y="-87"/>
      <point x="203" y="53" type="curve" smooth="yes"/>
      <point x="203" y="483" type="line" smooth="yes"/>
      <point x="203" y="623"/>
      <point x="209" y="638"/>
      <point x="241" y="643" type="curve" smooth="yes"/>
      <point x="310" y="654" type="line"/>
      <point x="317" y="658"/>
      <point x="317" y="681"/>
      <point x="309" y="685" type="curve"/>
      <point x="294" y="687"/>
      <point x="254" y="689"/>
      <point x="199" y="689" type="curve" smooth="yes"/>
      <point x="166" y="689"/>
      <point x="144" y="689"/>
      <point x="121" y="688" type="curve"/>
    </contour>
  </outline>
</glyph>
<glyph name="backslash" format="1">
  <advance width="321"/>
  <unicode hex="005C"/>
  <outline>
    <contour>
      <point x="110" y="676" type="line" name="hr00"/>
      <point x="20" y="676" type="line"/>
      <point x="211" y="-16" type="line"/>
      <point x="301" y="-16" type="line"/>
    </contour>
  </outline>
</glyph>
<glyph name="asciicircum" format="1">
  <advance width="520"/>
  <unicode hex="005E"/>
  <outline>
    <contour>
      <point x="461" y="244" type="line" name="hr00"/>
      <point x="295" y="626" type="line"/>
      <point x="227" y="626" type="line"/>
      <point x="60" y="244" type="line"/>
      <point x="150" y="244" type="line"/>
      <point x="261" y="507" type="line"/>
      <point x="372" y="244" type="line"/>
    </contour>
  </outline>
</glyph>
<glyph name="grave" format="1">
  <advance width="380"/>
  <unicode hex="0060"/>
  <outline>
    <contour>
      <point x="185" y="655" type="line" smooth="yes" name="hr00"/>
      <point x="174" y="678"/>
      <point x="164" y="685"/>
      <point x="154" y="685" type="curve" smooth="yes"/>
      <point x="143" y="685"/>
      <point x="132" y="681"/>
      <point x="115" y="669" type="curve" smooth="yes"/>
      <point x="97" y="655"/>
      <point x="88" y="644"/>
      <point x="88" y="633" type="curve" smooth="yes"/>
      <point x="88" y="622"/>
      <point x="97" y="609"/>
      <point x="110" y="596" type="curve" smooth="yes"/>
      <point x="251" y="457" type="line"/>
      <point x="265" y="455"/>
      <point x="274" y="461"/>
      <point x="276" y="473" type="curve"/>
    </contour>
  </outline>
</glyph>
<glyph name="f" format="1">
  <advance width="311"/>
  <unicode hex="0066"/>
  <outline>
    <contour>
      <point x="329" y="346" type="line" name="hr00"/>
      <point x="338" y="352"/>
      <point x="342" y="367"/>
      <point x="342" y="380" type="curve" smooth="yes"/>
      <point x="342" y="389"/>
      <point x="340" y="397"/>
      <point x="335" y="400" type="curve"/>
      <point x="240" y="400" type="line" smooth="yes"/>
      <point x="215" y="400"/>
      <point x="214" y="401"/>
      <point x="214" y="428" type="curve" smooth="yes"/>
      <point x="214" y="541" type="line" smooth="yes"/>
      <point x="214" y="634"/>
      <point x="230" y="663"/>
      <point x="256" y="663" type="curve" smooth="yes"/>
      <point x="268" y="663"/>
      <point x="284" y="652"/>
      <point x="327" y="597" type="curve" smooth="yes"/>
      <point x="334" y="589"/>
      <point x="346" y="579"/>
      <point x="367" y="579" type="curve" smooth="yes"/>
      <point x="401" y="579"/>
      <point x="425" y="600"/>
      <point x="425" y="633" type="curve" smooth="yes"/>
      <point x="425" y="685"/>
      <point x="366" y="715"/>
      <point x="308" y="715" type="curve" smooth="yes"/>
      <point x="196" y="715"/>
      <point x="141" y="652"/>
      <point x="112" y="586" type="curve" smooth="yes"/>
      <point x="91" y="537"/>
      <point x="84" y="464"/>
      <point x="84" y="421" type="curve" smooth="yes"/>
      <point x="84" y="408"/>
      <point x="75" y="402"/>
      <point x="62" y="395" type="curve" smooth="yes"/>
      <point x="19" y="373" type="line"/>
      <point x="14" y="368"/>
      <point x="16" y="350"/>
      <point x="22" y="346" type="curve"/>
      <point x="59" y="346" type="line" smooth="yes"/>
      <point x="82" y="346"/>
      <point x="84" y="345"/>
      <point x="84" y="318" type="curve" smooth="yes"/>
      <point x="84" y="116" type="line" smooth="yes"/>
      <point x="84" y="44"/>
      <point x="80" y="36"/>
      <point x="44" y="32" type="curve" smooth="yes"/>
      <point x="28" y="30" type="line"/>
      <point x="20" y="24"/>
      <point x="20" y="3"/>
      <point x="29" y="-3" type="curve"/>
      <point x="60" y="-1"/>
      <point x="102" y="0"/>
      <point x="147" y="0" type="curve" smooth="yes"/>
      <point x="194" y="0"/>
      <point x="236" y="-1"/>
      <point x="283" y="-3" type="curve"/>
      <point x="292" y="3"/>
      <point x="292" y="24"/>
      <point x="284" y="30" type="curve"/>
      <point x="251" y="33" type="line" smooth="yes"/>
      <point x="218" y="36"/>
      <point x="214" y="44"/>
      <point x="214" y="116" type="curve" smooth="yes"/>
      <point x="214" y="318" type="line" smooth="yes"/>
      <point x="214" y="345"/>
      <point x="215" y="346"/>
      <point x="240" y="346" type="curve" smooth="yes"/>
    </contour>
  </outline>
</glyph>
<glyph name="i" format="1">
  <advance width="286"/>
  <unicode hex="0069"/>
  <outline>
    <contour>
      <point x="214" y="300" type="line" smooth="yes" name="hr01"/>
      <point x="214" y="345"/>
      <point x="215" y="389"/>
      <point x="217" y="419" type="curve"/>
      <point x="213" y="425"/>
      <point x="207" y="428"/>
      <point x="199" y="428" type="curve"/>
      <point x="169" y="410"/>
      <point x="98" y="383"/>
      <point x="51" y="370" type="curve"/>
      <point x="44" y="364"/>
      <point x="44" y="346"/>
      <point x="51" y="340" type="curve"/>
      <point x="65" y="331" type="line" smooth="yes"/>
      <point x="84" y="319"/>
      <point x="84" y="307"/>
      <point x="84" y="267" type="curve" smooth="yes"/>
      <point x="84" y="116" type="line" smooth="yes"/>
      <point x="84" y="46"/>
      <point x="80" y="37"/>
      <point x="47" y="34" type="curve" smooth="yes"/>
      <point x="28" y="32" type="line"/>
      <point x="20" y="26"/>
      <point x="20" y="3"/>
      <point x="29" y="-3" type="curve"/>
      <point x="62" y="-1"/>
      <point x="104" y="0"/>
      <point x="149" y="0" type="curve" smooth="yes"/>
      <point x="195" y="0"/>
      <point x="234" y="-1"/>
      <point x="269" y="-3" type="curve"/>
      <point x="278" y="3"/>
      <point x="278" y="26"/>
      <point x="270" y="32" type="curve"/>
      <point x="251" y="34" type="line" smooth="yes"/>
      <point x="218" y="37"/>
      <point x="214" y="46"/>
      <point x="214" y="116" type="curve" smooth="yes"/>
    </contour>
    <contour>
      <point x="152" y="639" type="curve" smooth="yes" name="hr02"/>
      <point x="112" y="639"/>
      <point x="77" y="610"/>
      <point x="77" y="566" type="curve" smooth="yes"/>
      <point x="77" y="525"/>
      <point x="103" y="495"/>
      <point x="147" y="495" type="curve" smooth="yes"/>
      <point x="185" y="495"/>
      <point x="222" y="520"/>
      <point x="222" y="568" type="curve" smooth="yes"/>
      <point x="222" y="608"/>
      <point x="194" y="639"/>
    </contour>
  </outline>
</glyph>
<glyph name="m" format="1">
  <advance width="806"/>
  <unicode hex="006D"/>
  <outline>
    <contour>
      <point x="84" y="116" type="line" smooth="yes" name="hr01"/>
      <point x="84" y="46"/>
      <point x="80" y="38"/>
      <point x="47" y="34" type="curve" smooth="yes"/>
      <point x="31" y="32" type="line"/>
      <point x="23" y="26"/>
      <point x="23" y="3"/>
      <point x="33" y="-3" type="curve"/>
      <point x="63" y="-1"/>
      <point x="102" y="0"/>
      <point x="147" y="0" type="curve" smooth="yes"/>
      <point x="195" y="0"/>
      <point x="227" y="-1"/>
      <point x="258" y="-3" type="curve"/>
      <point x="267" y="3"/>
      <point x="267" y="26"/>
      <point x="259" y="32" type="curve"/>
      <point x="243" y="34" type="line" smooth="yes"/>
      <point x="218" y="37"/>
      <point x="214" y="46"/>
      <point x="214" y="101" type="curve" smooth="yes"/>
      <point x="214" y="280" type="line" smooth="yes"/>
      <point x="214" y="298"/>
      <point x="216" y="310"/>
      <point x="222" y="317" type="curve" smooth="yes"/>
      <point x="230" y="328"/>
      <point x="250" y="341"/>
      <point x="276" y="341" type="curve" smooth="yes"/>
      <point x="324" y="341"/>
      <point x="344" y="309"/>
      <point x="344" y="271" type="curve" smooth="yes"/>
      <point x="344" y="101" type="line" smooth="yes"/>
      <point x="344" y="46"/>
      <point x="340" y="37"/>
      <point x="317" y="34" type="curve" smooth="yes"/>
      <point x="301" y="32" type="line"/>
      <point x="293" y="26"/>
      <point x="293" y="3"/>
      <point x="302" y="-3" type="curve"/>
      <point x="328" y="-1"/>
      <point x="368" y="0"/>
      <point x="408" y="0" type="curve" smooth="yes"/>
      <point x="453" y="0"/>
      <point x="485" y="-1"/>
      <point x="516" y="-3" type="curve"/>
      <point x="525" y="3"/>
      <point x="525" y="26"/>
      <point x="517" y="32" type="curve"/>
      <point x="501" y="34" type="line" smooth="yes"/>
      <point x="478" y="37"/>
      <point x="474" y="46"/>
      <point x="474" y="101" type="curve" smooth="yes"/>
      <point x="474" y="286" type="line" smooth="yes"/>
      <point x="474" y="300"/>
      <point x="477" y="310"/>
      <point x="481" y="316" type="curve" smooth="yes"/>
      <point x="488" y="328"/>
      <point x="509" y="341"/>
      <point x="537" y="341" type="curve" smooth="yes"/>
      <point x="583" y="341"/>
      <point x="604" y="309"/>
      <point x="604" y="271" type="curve" smooth="yes"/>
      <point x="604" y="101" type="line" smooth="yes"/>
      <point x="604" y="46"/>
      <point x="600" y="37"/>
      <point x="575" y="34" type="curve" smooth="yes"/>
      <point x="559" y="32" type="line"/>
      <point x="551" y="26"/>
      <point x="551" y="3"/>
      <point x="560" y="-3" type="curve"/>
      <point x="587" y="-1"/>
      <point x="629" y="0"/>
      <point x="669" y="0" type="curve" smooth="yes"/>
      <point x="717" y="0"/>
      <point x="755" y="-1"/>
      <point x="786" y="-3" type="curve"/>
      <point x="795" y="3"/>
      <point x="795" y="26"/>
      <point x="787" y="32" type="curve"/>
      <point x="771" y="34" type="line" smooth="yes"/>
      <point x="738" y="38"/>
      <point x="734" y="46"/>
      <point x="734" y="116" type="curve" smooth="yes"/>
      <point x="734" y="288" type="line" smooth="yes"/>
      <point x="734" y="357"/>
      <point x="692" y="414"/>
      <point x="613" y="414" type="curve" smooth="yes"/>
      <point x="559" y="414"/>
      <point x="521" y="387"/>
      <point x="499" y="375" type="curve" smooth="yes"/>
      <point x="480" y="365"/>
      <point x="471" y="358"/>
      <point x="467" y="358" type="curve" smooth="yes"/>
      <point x="461" y="358"/>
      <point x="455" y="362"/>
      <point x="443" y="376" type="curve" smooth="yes"/>
      <point x="420" y="402"/>
      <point x="389" y="414"/>
      <point x="353" y="414" type="curve" smooth="yes"/>
      <point x="305" y="414"/>
      <point x="260" y="387"/>
      <point x="238" y="374" type="curve" smooth="yes"/>
      <point x="232" y="371"/>
      <point x="222" y="366"/>
      <point x="219" y="366" type="curve" smooth="yes" name="hr02"/>
      <point x="216" y="366"/>
      <point x="214" y="368"/>
      <point x="214" y="374" type="curve" smooth="yes"/>
      <point x="214" y="381"/>
      <point x="217" y="405"/>
      <point x="217" y="419" type="curve"/>
      <point x="213" y="425"/>
      <point x="207" y="428"/>
      <point x="199" y="428" type="curve"/>
      <point x="168" y="410"/>
      <point x="97" y="383"/>
      <point x="51" y="370" type="curve"/>
      <point x="44" y="364"/>
      <point x="44" y="346"/>
      <point x="51" y="340" type="curve"/>
      <point x="65" y="331" type="line" smooth="yes"/>
      <point x="84" y="319"/>
      <point x="84" y="307"/>
      <point x="84" y="267" type="curve" smooth="yes"/>
    </contour>
  </outline>
</glyph>
<glyph name="o" format="1">
  <advance width="516"/>
  <unicode hex="006F"/>
  <outline>
    <contour>
      <point x="255" y="-14" type="curve" smooth="yes" name="hr00"/>
      <point x="378" y="-14"/>
      <point x="485" y="55"/>
      <point x="485" y="201" type="curve" smooth="yes"/>
      <point x="485" y="342"/>
      <point x="379" y="414"/>
      <point x="261" y="414" type="curve" smooth="yes"/>
      <point x="143" y="414"/>
      <point x="30" y="335"/>
      <point x="31" y="192" type="curve" smooth="yes"/>
      <point x="32" y="54"/>
      <point x="136" y="-14"/>
    </contour>
    <contour>
      <point x="255" y="368" type="curve" smooth="yes"/>
      <point x="312" y="368"/>
      <point x="340" y="284"/>
      <point x="341" y="187" type="curve" smooth="yes"/>
      <point x="342" y="97"/>
      <point x="323" y="32"/>
      <point x="266" y="32" type="curve" smooth="yes"/>
      <point x="208" y="32"/>
      <point x="175" y="109"/>
      <point x="175" y="214" type="curve" smooth="yes"/>
      <point x="175" y="323"/>
      <point x="211" y="368"/>
    </contour>
  </outline>
</glyph>
<glyph name="p" format="1">
  <advance width="543"/>
  <unicode hex="0070"/>
  <outline>
    <contour>
      <point x="77" y="-139" type="line" smooth="yes" name="hr01"/>
      <point x="77" y="-209"/>
      <point x="73" y="-218"/>
      <point x="40" y="-221" type="curve" smooth="yes"/>
      <point x="20" y="-223" type="line"/>
      <point x="12" y="-229"/>
      <point x="12" y="-252"/>
      <point x="21" y="-258" type="curve"/>
      <point x="57" y="-256"/>
      <point x="96" y="-255"/>
      <point x="140" y="-255" type="curve" smooth="yes"/>
      <point x="187" y="-255"/>
      <point x="227" y="-256"/>
      <point x="277" y="-258" type="curve"/>
      <point x="286" y="-252"/>
      <point x="286" y="-229"/>
      <point x="278" y="-223" type="curve"/>
      <point x="244" y="-220" type="line" smooth="yes"/>
      <point x="211" y="-217"/>
      <point x="207" y="-209"/>
      <point x="207" y="-139" type="curve" smooth="yes"/>
      <point x="207" y="-40" type="line" smooth="yes" name="hr02"/>
      <point x="207" y="-19"/>
      <point x="213" y="-13"/>
      <point x="222" y="-11" type="curve"/>
      <point x="231" y="-13"/>
      <point x="253" y="-14"/>
      <point x="267" y="-14" type="curve" smooth="yes" name="hr03"/>
      <point x="413" y="-14"/>
      <point x="512" y="83"/>
      <point x="512" y="223" type="curve" smooth="yes"/>
      <point x="512" y="331"/>
      <point x="448" y="414"/>
      <point x="342" y="414" type="curve" smooth="yes"/>
      <point x="289" y="414"/>
      <point x="245" y="389"/>
      <point x="215" y="374" type="curve"/>
      <point x="211" y="375"/>
      <point x="207" y="381"/>
      <point x="207" y="388" type="curve" smooth="yes"/>
      <point x="207" y="398"/>
      <point x="207" y="409"/>
      <point x="209" y="421" type="curve"/>
      <point x="205" y="430"/>
      <point x="195" y="434"/>
      <point x="188" y="433" type="curve"/>
      <point x="160" y="414"/>
      <point x="85" y="382"/>
      <point x="44" y="370" type="curve"/>
      <point x="37" y="364"/>
      <point x="37" y="346"/>
      <point x="44" y="340" type="curve"/>
      <point x="58" y="331" type="line" smooth="yes"/>
      <point x="77" y="319"/>
      <point x="77" y="307"/>
      <point x="77" y="267" type="curve" smooth="yes"/>
    </contour>
    <contour>
      <point x="207" y="273" type="line" smooth="yes"/>
      <point x="207" y="312"/>
      <point x="213" y="325"/>
      <point x="218" y="331" type="curve" smooth="yes"/>
      <point x="226" y="341"/>
      <point x="243" y="345"/>
      <point x="260" y="345" type="curve" smooth="yes"/>
      <point x="326" y="345"/>
      <point x="374" y="289"/>
      <point x="374" y="191" type="curve" smooth="yes"/>
      <point x="374" y="98"/>
      <point x="340" y="32"/>
      <point x="278" y="32" type="curve" smooth="yes"/>
      <point x="262" y="32"/>
      <point x="243" y="41"/>
      <point x="230" y="55" type="curve" smooth="yes"/>
      <point x="215" y="70"/>
      <point x="207" y="91"/>
      <point x="207" y="113" type="curve" smooth="yes"/>
    </contour>
  </outline>
</glyph>
<glyph name="q" format="1">
  <advance width="528"/>
  <unicode hex="0071"/>
  <outline>
    <contour>
      <point x="466" y="281" type="line" smooth="yes" name="hr01"/>
      <point x="466" y="336"/>
      <point x="466" y="369"/>
      <point x="471" y="410" type="curve"/>
      <point x="469" y="417"/>
      <point x="458" y="421"/>
      <point x="446" y="420" type="curve"/>
      <point x="440" y="413" type="line"/>
      <point x="425" y="400"/>
      <point x="418" y="399"/>
      <point x="410" y="399" type="curve" smooth="yes"/>
      <point x="405" y="399"/>
      <point x="399" y="400"/>
      <point x="391" y="402" type="curve" smooth="yes"/>
      <point x="368" y="407"/>
      <point x="326" y="414"/>
      <point x="283" y="414" type="curve" smooth="yes"/>
      <point x="138" y="414"/>
      <point x="31" y="324"/>
      <point x="31" y="183" type="curve" smooth="yes"/>
      <point x="31" y="76"/>
      <point x="105" y="-14"/>
      <point x="228" y="-14" type="curve" smooth="yes"/>
      <point x="253" y="-14"/>
      <point x="279" y="-12"/>
      <point x="327" y="10" type="curve"/>
      <point x="335" y="10"/>
      <point x="336" y="2"/>
      <point x="336" y="-9" type="curve" smooth="yes" name="hr02"/>
      <point x="336" y="-139" type="line" smooth="yes"/>
      <point x="336" y="-209"/>
      <point x="332" y="-218"/>
      <point x="297" y="-221" type="curve" smooth="yes"/>
      <point x="275" y="-223" type="line"/>
      <point x="267" y="-229"/>
      <point x="267" y="-252"/>
      <point x="276" y="-258" type="curve"/>
      <point x="314" y="-256"/>
      <point x="356" y="-255"/>
      <point x="401" y="-255" type="curve" smooth="yes"/>
      <point x="448" y="-255"/>
      <point x="489" y="-256"/>
      <point x="536" y="-258" type="curve"/>
      <point x="545" y="-252"/>
      <point x="545" y="-229"/>
      <point x="537" y="-223" type="curve"/>
      <point x="503" y="-220" type="line" smooth="yes"/>
      <point x="470" y="-217"/>
      <point x="466" y="-209"/>
      <point x="466" y="-139" type="curve" smooth="yes"/>
    </contour>
    <contour>
      <point x="336" y="78" type="line" smooth="yes" name="hr03"/>
      <point x="336" y="67"/>
      <point x="335" y="57"/>
      <point x="329" y="53" type="curve" smooth="yes"/>
      <point x="323" y="49"/>
      <point x="314" y="46"/>
      <point x="299" y="46" type="curve" smooth="yes"/>
      <point x="237" y="46"/>
      <point x="170" y="104"/>
      <point x="170" y="220" type="curve" smooth="yes"/>
      <point x="170" y="308"/>
      <point x="215" y="368"/>
      <point x="268" y="368" type="curve" smooth="yes"/>
      <point x="292" y="368"/>
      <point x="307" y="357"/>
      <point x="316" y="346" type="curve" smooth="yes"/>
      <point x="327" y="332"/>
      <point x="336" y="299"/>
      <point x="336" y="257" type="curve" smooth="yes"/>
    </contour>
  </outline>
</glyph>
<glyph name="t" format="1">
  <advance width="323"/>
  <unicode hex="0074"/>
  <outline>
    <contour>
      <point x="311" y="346" type="line" name="hr00"/>
      <point x="321" y="352"/>
      <point x="324" y="370"/>
      <point x="324" y="381" type="curve" smooth="yes"/>
      <point x="324" y="390"/>
      <point x="321" y="396"/>
      <point x="316" y="400" type="curve"/>
      <point x="227" y="400" type="line" smooth="yes"/>
      <point x="209" y="400"/>
      <point x="208" y="401"/>
      <point x="208" y="420" type="curve" smooth="yes"/>
      <point x="208" y="495" type="line"/>
      <point x="203" y="503"/>
      <point x="185" y="504"/>
      <point x="178" y="500" type="curve"/>
      <point x="147" y="456"/>
      <point x="122" y="435"/>
      <point x="104" y="422" type="curve" smooth="yes"/>
      <point x="80" y="406"/>
      <point x="52" y="388"/>
      <point x="21" y="377" type="curve"/>
      <point x="13" y="370"/>
      <point x="16" y="350"/>
      <point x="27" y="346" type="curve"/>
      <point x="58" y="346" type="line" smooth="yes"/>
      <point x="76" y="346"/>
      <point x="77" y="344"/>
      <point x="77" y="323" type="curve" smooth="yes"/>
      <point x="77" y="100" type="line" smooth="yes"/>
      <point x="77" y="34"/>
      <point x="106" y="-14"/>
      <point x="189" y="-14" type="curve" smooth="yes"/>
      <point x="251" y="-14"/>
      <point x="305" y="14"/>
      <point x="333" y="44" type="curve"/>
      <point x="335" y="56"/>
      <point x="329" y="67"/>
      <point x="319" y="70" type="curve"/>
      <point x="307" y="62"/>
      <point x="291" y="55"/>
      <point x="277" y="55" type="curve" smooth="yes"/>
      <point x="207" y="55"/>
      <point x="207" y="117"/>
      <point x="207" y="173" type="curve" smooth="yes"/>
      <point x="207" y="323" type="line" smooth="yes"/>
      <point x="207" y="345"/>
      <point x="208" y="346"/>
      <point x="221" y="346" type="curve" smooth="yes"/>
    </contour>
  </outline>
</glyph>
<glyph name="v" format="1">
  <advance width="457"/>
  <unicode hex="0076"/>
  <outline>
    <contour>
      <point x="16" y="363" type="line" smooth="yes" name="hr00"/>
      <point x="41" y="357"/>
      <point x="47" y="349"/>
      <point x="71" y="300" type="curve" smooth="yes"/>
      <point x="134" y="167"/>
      <point x="155" y="119"/>
      <point x="207" y="-7" type="curve"/>
      <point x="213" y="-11"/>
      <point x="222" y="-14"/>
      <point x="231" y="-14" type="curve" smooth="yes"/>
      <point x="241" y="-14"/>
      <point x="249" y="-11"/>
      <point x="254" y="-7" type="curve"/>
      <point x="300" y="100"/>
      <point x="345" y="207"/>
      <point x="397" y="310" type="curve" smooth="yes"/>
      <point x="417" y="348"/>
      <point x="425" y="360"/>
      <point x="455" y="365" type="curve" smooth="yes"/>
      <point x="472" y="368" type="line"/>
      <point x="479" y="374"/>
      <point x="481" y="398"/>
      <point x="470" y="403" type="curve"/>
      <point x="448" y="402"/>
      <point x="425" y="400"/>
      <point x="393" y="400" type="curve" smooth="yes"/>
      <point x="364" y="400"/>
      <point x="343" y="401"/>
      <point x="311" y="403" type="curve"/>
      <point x="301" y="398"/>
      <point x="301" y="374"/>
      <point x="310" y="368" type="curve"/>
      <point x="324" y="365" type="line" smooth="yes"/>
      <point x="341" y="361"/>
      <point x="348" y="358"/>
      <point x="348" y="353" type="curve" smooth="yes"/>
      <point x="348" y="347"/>
      <point x="346" y="338"/>
      <point x="342" y="328" type="curve" smooth="yes"/>
      <point x="321" y="267"/>
      <point x="296" y="214"/>
      <point x="274" y="164" type="curve"/>
      <point x="253" y="212"/>
      <point x="231" y="264"/>
      <point x="211" y="319" type="curve" smooth="yes"/>
      <point x="206" y="334"/>
      <point x="202" y="348"/>
      <point x="202" y="354" type="curve" smooth="yes"/>
      <point x="202" y="360"/>
      <point x="207" y="361"/>
      <point x="219" y="364" type="curve" smooth="yes"/>
      <point x="235" y="368" type="line"/>
      <point x="241" y="373"/>
      <point x="242" y="398"/>
      <point x="233" y="403" type="curve"/>
      <point x="196" y="402"/>
      <point x="159" y="400"/>
      <point x="122" y="400" type="curve" smooth="yes"/>
      <point x="69" y="400"/>
      <point x="35" y="401"/>
      <point x="-2" y="403" type="curve"/>
      <point x="-15" y="399"/>
      <point x="-14" y="375"/>
      <point x="-5" y="368" type="curve"/>
    </contour>
  </outline>
</glyph>
<glyph name="w" format="1">
  <advance width="682"/>
  <unicode hex="0077"/>
  <outline>
    <contour>
      <point x="111" y="400" type="line" smooth="yes" name="hr01"/>
      <point x="69" y="400"/>
      <point x="37" y="401"/>
      <point x="-4" y="403" type="curve" name="hr02"/>
      <point x="-14" y="398"/>
      <point x="-14" y="376"/>
      <point x="-7" y="368" type="curve"/>
      <point x="11" y="363" type="line" smooth="yes"/>
      <point x="28" y="358"/>
      <point x="38" y="354"/>
      <point x="52" y="325" type="curve" smooth="yes"/>
      <point x="101" y="221"/>
      <point x="150" y="106"/>
      <point x="198" y="-7" type="curve"/>
      <point x="204" y="-13"/>
      <point x="211" y="-14"/>
      <point x="221" y="-14" type="curve" smooth="yes"/>
      <point x="231" y="-14"/>
      <point x="238" y="-13"/>
      <point x="244" y="-7" type="curve"/>
      <point x="267" y="43"/>
      <point x="327" y="176"/>
      <point x="353" y="228" type="curve"/>
      <point x="383" y="164"/>
      <point x="435" y="47"/>
      <point x="456" y="-7" type="curve"/>
      <point x="462" y="-13"/>
      <point x="469" y="-14"/>
      <point x="479" y="-14" type="curve" smooth="yes"/>
      <point x="489" y="-14"/>
      <point x="496" y="-13"/>
      <point x="502" y="-7" type="curve"/>
      <point x="544" y="99"/>
      <point x="590" y="209"/>
      <point x="636" y="311" type="curve" smooth="yes"/>
      <point x="652" y="348"/>
      <point x="659" y="358"/>
      <point x="692" y="365" type="curve" smooth="yes"/>
      <point x="706" y="368" type="line"/>
      <point x="714" y="377"/>
      <point x="712" y="399"/>
      <point x="703" y="403" type="curve"/>
      <point x="681" y="401"/>
      <point x="655" y="400"/>
      <point x="626" y="400" type="curve" smooth="yes"/>
      <point x="601" y="400"/>
      <point x="577" y="401"/>
      <point x="544" y="403" type="curve"/>
      <point x="534" y="399"/>
      <point x="534" y="375"/>
      <point x="540" y="368" type="curve"/>
      <point x="557" y="364" type="line" smooth="yes"/>
      <point x="574" y="360"/>
      <point x="582" y="355"/>
      <point x="582" y="350" type="curve" smooth="yes"/>
      <point x="582" y="343"/>
      <point x="579" y="329"/>
      <point x="573" y="311" type="curve" smooth="yes"/>
      <point x="557" y="265"/>
      <point x="541" y="216"/>
      <point x="517" y="158" type="curve"/>
      <point x="495" y="206"/>
      <point x="467" y="271"/>
      <point x="449" y="319" type="curve" smooth="yes"/>
      <point x="443" y="336"/>
      <point x="441" y="342"/>
      <point x="441" y="350" type="curve" smooth="yes"/>
      <point x="441" y="355"/>
      <point x="455" y="360"/>
      <point x="478" y="365" type="curve" smooth="yes"/>
      <point x="493" y="368" type="line"/>
      <point x="500" y="372"/>
      <point x="501" y="402"/>
      <point x="490" y="403" type="curve"/>
      <point x="426" y="401"/>
      <point x="376" y="400"/>
      <point x="313" y="400" type="curve" smooth="yes" name="hr03"/>
    </contour>
    <contour>
      <point x="323" y="307" type="curve" smooth="yes"/>
      <point x="323" y="299"/>
      <point x="323" y="290"/>
      <point x="320" y="277" type="curve" smooth="yes"/>
      <point x="315" y="257"/>
      <point x="281" y="185"/>
      <point x="267" y="158" type="curve"/>
      <point x="250" y="190"/>
      <point x="210" y="280"/>
      <point x="196" y="315" type="curve" smooth="yes"/>
      <point x="190" y="330"/>
      <point x="187" y="342"/>
      <point x="187" y="348" type="curve" smooth="yes"/>
      <point x="187" y="359"/>
      <point x="206" y="363"/>
      <point x="238" y="363" type="curve" smooth="yes"/>
      <point x="256" y="363"/>
      <point x="272" y="362"/>
      <point x="286" y="359" type="curve" smooth="yes"/>
      <point x="306" y="355"/>
      <point x="323" y="323"/>
    </contour>
  </outline>
</glyph>
<glyph name="x" format="1">
  <advance width="458"/>
  <unicode hex="0078"/>
  <outline>
    <contour>
      <point x="447" y="368" type="line" name="hr00"/>
      <point x="456" y="374"/>
      <point x="455" y="400"/>
      <point x="445" y="403" type="curve"/>
      <point x="420" y="401"/>
      <point x="394" y="400"/>
      <point x="369" y="400" type="curve" smooth="yes"/>
      <point x="333" y="400"/>
      <point x="307" y="401"/>
      <point x="278" y="403" type="curve"/>
      <point x="268" y="399"/>
      <point x="266" y="374"/>
      <point x="275" y="368" type="curve"/>
      <point x="286" y="365" type="line" smooth="yes"/>
      <point x="296" y="362"/>
      <point x="302" y="360"/>
      <point x="302" y="356" type="curve" smooth="yes"/>
      <point x="302" y="351"/>
      <point x="301" y="347"/>
      <point x="295" y="338" type="curve" smooth="yes"/>
      <point x="279" y="314"/>
      <point x="262" y="290"/>
      <point x="252" y="276" type="curve"/>
      <point x="238" y="296"/>
      <point x="224" y="315"/>
      <point x="211" y="337" type="curve" smooth="yes"/>
      <point x="204" y="349"/>
      <point x="202" y="354"/>
      <point x="202" y="358" type="curve" smooth="yes"/>
      <point x="202" y="361"/>
      <point x="209" y="364"/>
      <point x="217" y="365" type="curve"/>
      <point x="229" y="368" type="line"/>
      <point x="240" y="374"/>
      <point x="239" y="399"/>
      <point x="227" y="403" type="curve"/>
      <point x="191" y="401"/>
      <point x="156" y="400"/>
      <point x="120" y="400" type="curve" smooth="yes"/>
      <point x="65" y="400"/>
      <point x="38" y="401"/>
      <point x="-1" y="403" type="curve"/>
      <point x="-11" y="400"/>
      <point x="-11" y="373"/>
      <point x="-4" y="368" type="curve"/>
      <point x="17" y="363" type="line" smooth="yes"/>
      <point x="39" y="358"/>
      <point x="58" y="350"/>
      <point x="78" y="319" type="curve" smooth="yes"/>
      <point x="132" y="236" type="line" smooth="yes"/>
      <point x="155" y="200"/>
      <point x="164" y="187"/>
      <point x="164" y="183" type="curve" smooth="yes"/>
      <point x="164" y="178"/>
      <point x="161" y="171"/>
      <point x="155" y="161" type="curve" smooth="yes"/>
      <point x="141" y="140"/>
      <point x="88" y="71"/>
      <point x="73" y="56" type="curve" smooth="yes"/>
      <point x="64" y="46"/>
      <point x="43" y="39"/>
      <point x="26" y="36" type="curve" smooth="yes"/>
      <point x="1" y="32" type="line"/>
      <point x="-9" y="24"/>
      <point x="-6" y="2"/>
      <point x="3" y="-3" type="curve"/>
      <point x="34" y="-1"/>
      <point x="58" y="0"/>
      <point x="81" y="0" type="curve" smooth="yes"/>
      <point x="112" y="0"/>
      <point x="142" y="-1"/>
      <point x="171" y="-3" type="curve"/>
      <point x="179" y="1"/>
      <point x="181" y="26"/>
      <point x="173" y="32" type="curve"/>
      <point x="157" y="35" type="line" smooth="yes"/>
      <point x="143" y="38"/>
      <point x="139" y="40"/>
      <point x="139" y="45" type="curve" smooth="yes"/>
      <point x="139" y="51"/>
      <point x="143" y="60"/>
      <point x="151" y="74" type="curve" smooth="yes"/>
      <point x="164" y="96"/>
      <point x="178" y="119"/>
      <point x="192" y="140" type="curve"/>
      <point x="208" y="117"/>
      <point x="221" y="96"/>
      <point x="235" y="74" type="curve" smooth="yes"/>
      <point x="243" y="61"/>
      <point x="247" y="51"/>
      <point x="247" y="47" type="curve" smooth="yes"/>
      <point x="247" y="43"/>
      <point x="244" y="39"/>
      <point x="230" y="36" type="curve" smooth="yes"/>
      <point x="208" y="32" type="line"/>
      <point x="200" y="25"/>
      <point x="202" y="1"/>
      <point x="211" y="-3" type="curve"/>
      <point x="257" y="-1"/>
      <point x="304" y="0"/>
      <point x="344" y="0" type="curve" smooth="yes"/>
      <point x="382" y="0"/>
      <point x="421" y="-1"/>
      <point x="465" y="-3" type="curve"/>
      <point x="476" y="1"/>
      <point x="476" y="25"/>
      <point x="468" y="32" type="curve"/>
      <point x="457" y="33" type="line" smooth="yes"/>
      <point x="423" y="36"/>
      <point x="403" y="46"/>
      <point x="368" y="98" type="curve" smooth="yes"/>
      <point x="300" y="199" type="line" smooth="yes"/>
      <point x="291" y="212"/>
      <point x="279" y="232"/>
      <point x="279" y="238" type="curve" smooth="yes"/>
      <point x="279" y="243"/>
      <point x="286" y="252"/>
      <point x="298" y="268" type="curve" smooth="yes"/>
      <point x="321" y="297"/>
      <point x="359" y="339"/>
      <point x="373" y="348" type="curve" smooth="yes"/>
      <point x="389" y="358"/>
      <point x="404" y="362"/>
      <point x="433" y="366" type="curve" smooth="yes"/>
    </contour>
  </outline>
</glyph>
<glyph name="z" format="1">
  <advance width="415"/>
  <unicode hex="007A"/>
  <outline>
    <contour>
      <point x="223" y="0" type="line" smooth="yes" name="hr01"/>
      <point x="269" y="0"/>
      <point x="301" y="-1"/>
      <point x="383" y="-3" type="curve"/>
      <point x="396" y="16"/>
      <point x="418" y="89"/>
      <point x="421" y="127" type="curve"/>
      <point x="416" y="137"/>
      <point x="393" y="140"/>
      <point x="385" y="132" type="curve"/>
      <point x="372" y="106"/>
      <point x="362" y="88"/>
      <point x="355" y="78" type="curve" smooth="yes"/>
      <point x="338" y="51"/>
      <point x="304" y="44"/>
      <point x="261" y="44" type="curve" smooth="yes"/>
      <point x="237" y="44" type="line" smooth="yes"/>
      <point x="208" y="44"/>
      <point x="197" y="45"/>
      <point x="197" y="50" type="curve" smooth="yes"/>
      <point x="197" y="57"/>
      <point x="203" y="70"/>
      <point x="215" y="91" type="curve" smooth="yes"/>
      <point x="322" y="273" type="line" smooth="yes"/>
      <point x="354" y="327"/>
      <point x="374" y="364"/>
      <point x="393" y="390" type="curve" name="hr02"/>
      <point x="394" y="394"/>
      <point x="391" y="401"/>
      <point x="387" y="403" type="curve"/>
      <point x="375" y="401"/>
      <point x="347" y="400"/>
      <point x="304" y="400" type="curve" smooth="yes" name="hr03"/>
      <point x="124" y="400" type="line" smooth="yes"/>
      <point x="73" y="400"/>
      <point x="71" y="403"/>
      <point x="68" y="419" type="curve"/>
      <point x="64" y="424"/>
      <point x="52" y="424"/>
      <point x="47" y="419" type="curve"/>
      <point x="37" y="394"/>
      <point x="22" y="327"/>
      <point x="16" y="287" type="curve"/>
      <point x="21" y="276"/>
      <point x="43" y="271"/>
      <point x="52" y="279" type="curve"/>
      <point x="62" y="309"/>
      <point x="76" y="329"/>
      <point x="84" y="337" type="curve" smooth="yes"/>
      <point x="97" y="352"/>
      <point x="119" y="356"/>
      <point x="155" y="356" type="curve" smooth="yes"/>
      <point x="186" y="356" type="line" smooth="yes"/>
      <point x="208" y="356"/>
      <point x="214" y="354"/>
      <point x="214" y="351" type="curve" smooth="yes"/>
      <point x="214" y="346"/>
      <point x="211" y="337"/>
      <point x="203" y="322" type="curve" smooth="yes"/>
      <point x="110" y="157" type="line" smooth="yes"/>
      <point x="82" y="107"/>
      <point x="38" y="37"/>
      <point x="22" y="13" type="curve"/>
      <point x="20" y="6"/>
      <point x="23" y="-1"/>
      <point x="29" y="-3" type="curve"/>
      <point x="45" y="-1"/>
      <point x="72" y="0"/>
      <point x="126" y="0" type="curve" smooth="yes" name="hr04"/>
    </contour>
  </outline>
</glyph>
<glyph name="braceleft" format="1">
  <advance width="340"/>
  <unicode hex="007B"/>
  <outline>
    <contour>
      <point x="239" y="162" type="curve" smooth="yes" name="hr01"/>
      <point x="239" y="217"/>
      <point x="216" y="253"/>
      <point x="164" y="266" type="curve"/>
      <point x="164" y="270" type="line"/>
      <point x="216" y="283"/>
      <point x="239" y="319"/>
      <point x="239" y="374" type="curve" smooth="yes"/>
      <point x="239" y="443"/>
      <point x="220" y="511"/>
      <point x="220" y="579" type="curve" smooth="yes" name="hr02"/>
      <point x="220" y="609"/>
      <point x="230" y="653"/>
      <point x="304" y="666" type="curve"/>
      <point x="310" y="672"/>
      <point x="308" y="691"/>
      <point x="302" y="694" type="curve"/>
      <point x="217" y="694"/>
      <point x="133" y="681"/>
      <point x="133" y="563" type="curve" smooth="yes"/>
      <point x="133" y="497"/>
      <point x="149" y="422"/>
      <point x="149" y="359" type="curve" smooth="yes" name="hr03"/>
      <point x="149" y="328"/>
      <point x="151" y="287"/>
      <point x="61" y="281" type="curve"/>
      <point x="54" y="276"/>
      <point x="54" y="263"/>
      <point x="61" y="255" type="curve" name="hr04"/>
      <point x="145" y="249"/>
      <point x="149" y="205"/>
      <point x="149" y="177" type="curve" smooth="yes" name="hr05"/>
      <point x="149" y="114"/>
      <point x="133" y="39"/>
      <point x="133" y="-27" type="curve" smooth="yes"/>
      <point x="133" y="-145"/>
      <point x="211" y="-158"/>
      <point x="302" y="-158" type="curve" name="hr06"/>
      <point x="308" y="-155"/>
      <point x="310" y="-136"/>
      <point x="304" y="-130" type="curve"/>
      <point x="230" y="-117"/>
      <point x="220" y="-79"/>
      <point x="220" y="-43" type="curve" smooth="yes"/>
      <point x="220" y="25"/>
      <point x="239" y="93"/>
    </contour>
  </outline>
</glyph>
<glyph name="bar" format="1">
  <advance width="248"/>
  <unicode hex="007C"/>
  <outline>
    <contour>
      <point x="168" y="750" type="line" name="hr00"/>
      <point x="80" y="750" type="line"/>
      <point x="80" y="-250" type="line"/>
      <point x="168" y="-250" type="line"/>
    </contour>
  </outline>
</glyph>
<glyph name="sterling" format="1">
  <advance width="520"/>
  <unicode hex="00A3"/>
  <outline>
    <contour>
      <point x="273" y="340" type="line" smooth="yes" name="hr01"/>
      <point x="255" y="340"/>
      <point x="253" y="342"/>
      <point x="252" y="355" type="curve" smooth="yes"/>
      <point x="248" y="394"/>
      <point x="246" y="422"/>
      <point x="246" y="458" type="curve" smooth="yes"/>
      <point x="246" y="552"/>
      <point x="275" y="584"/>
      <point x="292" y="584" type="curve" smooth="yes"/>
      <point x="307" y="584"/>
      <point x="327" y="580"/>
      <point x="370" y="545" type="curve" smooth="yes"/>
      <point x="380" y="536"/>
      <point x="385" y="535"/>
      <point x="394" y="535" type="curve" smooth="yes"/>
      <point x="405" y="535"/>
      <point x="430" y="562"/>
      <point x="430" y="592" type="curve" smooth="yes"/>
      <point x="430" y="607"/>
      <point x="426" y="618"/>
      <point x="418" y="625" type="curve"/>
      <point x="405" y="634"/>
      <point x="382" y="640"/>
      <point x="353" y="640" type="curve" smooth="yes"/>
      <point x="217" y="640"/>
      <point x="107" y="539"/>
      <point x="107" y="386" type="curve" smooth="yes"/>
      <point x="107" y="375"/>
      <point x="107" y="359"/>
      <point x="108" y="349" type="curve" smooth="yes"/>
      <point x="109" y="341"/>
      <point x="108" y="340"/>
      <point x="93" y="340" type="curve" smooth="yes"/>
      <point x="13" y="340" type="line"/>
      <point x="0" y="327"/>
      <point x="0" y="303"/>
      <point x="8" y="295" type="curve"/>
      <point x="94" y="295" type="line" name="hr02"/>
      <point x="110" y="291"/>
      <point x="111" y="296"/>
      <point x="111" y="283" type="curve" smooth="yes"/>
      <point x="111" y="179"/>
      <point x="89" y="110"/>
      <point x="38" y="69" type="curve" smooth="yes"/>
      <point x="11" y="48"/>
      <point x="-12" y="24"/>
      <point x="-12" y="4" type="curve" smooth="yes"/>
      <point x="-12" y="-8"/>
      <point x="-7" y="-14"/>
      <point x="7" y="-14" type="curve" smooth="yes"/>
      <point x="18" y="-14"/>
      <point x="70" y="-1"/>
      <point x="73" y="13" type="curve" smooth="yes"/>
      <point x="75" y="27"/>
      <point x="85" y="51"/>
      <point x="110" y="51" type="curve" smooth="yes"/>
      <point x="143" y="51"/>
      <point x="183" y="28"/>
      <point x="223" y="3" type="curve" smooth="yes"/>
      <point x="272" y="-28"/>
      <point x="303" y="-40"/>
      <point x="339" y="-40" type="curve" smooth="yes" name="hr03"/>
      <point x="425" y="-40"/>
      <point x="499" y="41"/>
      <point x="499" y="100" type="curve" smooth="yes"/>
      <point x="499" y="146"/>
      <point x="471" y="162"/>
      <point x="449" y="162" type="curve" smooth="yes"/>
      <point x="429" y="162"/>
      <point x="406" y="147"/>
      <point x="421" y="109" type="curve" smooth="yes"/>
      <point x="437" y="69"/>
      <point x="439" y="55"/>
      <point x="410" y="55" type="curve" smooth="yes"/>
      <point x="386" y="55"/>
      <point x="348" y="67"/>
      <point x="315" y="84" type="curve" smooth="yes"/>
      <point x="274" y="105"/>
      <point x="239" y="119"/>
      <point x="216" y="122" type="curve" smooth="yes" name="hr04"/>
      <point x="180" y="128"/>
      <point x="163" y="125"/>
      <point x="147" y="123" type="curve"/>
      <point x="146" y="125" type="line"/>
      <point x="208" y="155"/>
      <point x="252" y="193"/>
      <point x="252" y="281" type="curve" smooth="yes"/>
      <point x="252" y="294"/>
      <point x="256" y="295"/>
      <point x="274" y="295" type="curve" smooth="yes"/>
      <point x="396" y="295" type="line"/>
      <point x="405" y="306"/>
      <point x="410" y="330"/>
      <point x="401" y="340" type="curve"/>
    </contour>
  </outline>
</glyph>
<glyph name="currency" format="1">
  <advance width="520"/>
  <unicode hex="00A4"/>
  <outline>
    <contour>
      <point x="260" y="450" type="curve" smooth="yes" name="hr00"/>
      <point x="326" y="450"/>
      <point x="384" y="394"/>
      <point x="384" y="313" type="curve" smooth="yes"/>
      <point x="384" y="232"/>
      <point x="326" y="176"/>
      <point x="260" y="176" type="curve" smooth="yes"/>
      <point x="194" y="176"/>
      <point x="136" y="231"/>
      <point x="136" y="313" type="curve" smooth="yes"/>
      <point x="136" y="394"/>
      <point x="193" y="450"/>
    </contour>
    <contour>
      <point x="260" y="527" type="curve" smooth="yes"/>
      <point x="213" y="527"/>
      <point x="171" y="513"/>
      <point x="141" y="491" type="curve"/>
      <point x="104" y="540" type="line"/>
      <point x="76" y="537"/>
      <point x="45" y="514"/>
      <point x="39" y="480" type="curve"/>
      <point x="85" y="438" type="line"/>
      <point x="61" y="410"/>
      <point x="44" y="363"/>
      <point x="44" y="313" type="curve" smooth="yes"/>
      <point x="44" y="263"/>
      <point x="61" y="216"/>
      <point x="85" y="188" type="curve"/>
      <point x="39" y="146" type="line"/>
      <point x="45" y="112"/>
      <point x="76" y="89"/>
      <point x="104" y="86" type="curve"/>
      <point x="141" y="135" type="line"/>
      <point x="171" y="113"/>
      <point x="213" y="99"/>
      <point x="260" y="99" type="curve" smooth="yes"/>
      <point x="307" y="99"/>
      <point x="349" y="113"/>
      <point x="379" y="135" type="curve"/>
      <point x="416" y="86" type="line"/>
      <point x="444" y="89"/>
      <point x="475" y="112"/>
      <point x="481" y="146" type="curve"/>
      <point x="435" y="188" type="line"/>
      <point x="459" y="216"/>
      <point x="476" y="263"/>
      <point x="476" y="313" type="curve" smooth="yes"/>
      <point x="476" y="363"/>
      <point x="459" y="410"/>
      <point x="435" y="438" type="curve"/>
      <point x="481" y="480" type="line"/>
      <point x="475" y="514"/>
      <point x="444" y="537"/>
      <point x="416" y="540" type="curve"/>
      <point x="379" y="491" type="line"/>
      <point x="349" y="513"/>
      <point x="307" y="527"/>
    </contour>
  </outline>
</glyph>
<glyph name="dieresis" format="1">
  <advance width="380"/>
  <unicode hex="00A8"/>
  <outline>
    <contour>
      <point x="101" y="487" type="curve" smooth="yes" name="hr00"/>
      <point x="136" y="487"/>
      <point x="162" y="512"/>
      <point x="162" y="551" type="curve" smooth="yes"/>
      <point x="162" y="582"/>
      <point x="136" y="610"/>
      <point x="101" y="610" type="curve" smooth="yes"/>
      <point x="65" y="610"/>
      <point x="38" y="583"/>
      <point x="38" y="546" type="curve" smooth="yes"/>
      <point x="39" y="507"/>
      <point x="66" y="487"/>
    </contour>
    <contour>
      <point x="281" y="487" type="curve" smooth="yes"/>
      <point x="316" y="487"/>
      <point x="342" y="512"/>
      <point x="342" y="551" type="curve" smooth="yes"/>
      <point x="342" y="582"/>
      <point x="316" y="610"/>
      <point x="281" y="610" type="curve" smooth="yes"/>
      <point x="245" y="610"/>
      <point x="218" y="583"/>
      <point x="218" y="546" type="curve" smooth="yes"/>
      <point x="219" y="507"/>
      <point x="246" y="487"/>
    </contour>
  </outline>
</glyph>
<glyph name="ordfeminine" format="1">
  <advance width="374"/>
  <unicode hex="00AA"/>
  <outline>
    <contour>
      <point x="196" y="540" type="curve" smooth="yes" name="hr00"/>
      <point x="142" y="540"/>
      <point x="88" y="516"/>
      <point x="63" y="495" type="curve" smooth="yes"/>
      <point x="37" y="472"/>
      <point x="32" y="456"/>
      <point x="32" y="444" type="curve" smooth="yes"/>
      <point x="32" y="435"/>
      <point x="41" y="427"/>
      <point x="57" y="427" type="curve" smooth="yes"/>
      <point x="81" y="427"/>
      <point x="104" y="435"/>
      <point x="116" y="442" type="curve"/>
      <point x="125" y="449"/>
      <point x="130" y="459"/>
      <point x="132" y="473" type="curve" smooth="yes"/>
      <point x="135" y="494"/>
      <point x="146" y="505"/>
      <point x="166" y="505" type="curve" smooth="yes"/>
      <point x="200" y="505"/>
      <point x="210" y="474"/>
      <point x="210" y="445" type="curve" smooth="yes"/>
      <point x="210" y="435" type="line"/>
      <point x="209" y="428"/>
      <point x="206" y="421"/>
      <point x="188" y="416" type="curve" smooth="yes"/>
      <point x="165" y="410"/>
      <point x="135" y="402"/>
      <point x="87" y="386" type="curve" smooth="yes"/>
      <point x="46" y="373"/>
      <point x="32" y="346"/>
      <point x="32" y="316" type="curve" smooth="yes"/>
      <point x="32" y="284"/>
      <point x="56" y="240"/>
      <point x="127" y="240" type="curve" smooth="yes"/>
      <point x="150" y="240"/>
      <point x="175" y="250"/>
      <point x="188" y="257" type="curve"/>
      <point x="200" y="265"/>
      <point x="206" y="269"/>
      <point x="209" y="269" type="curve" smooth="yes"/>
      <point x="212" y="269"/>
      <point x="219" y="265"/>
      <point x="225" y="259" type="curve" smooth="yes"/>
      <point x="240" y="245"/>
      <point x="265" y="240"/>
      <point x="287" y="240" type="curve" smooth="yes"/>
      <point x="313" y="240"/>
      <point x="352" y="254"/>
      <point x="368" y="272" type="curve"/>
      <point x="373" y="284"/>
      <point x="367" y="292"/>
      <point x="359" y="293" type="curve"/>
      <point x="350" y="289"/>
      <point x="342" y="286"/>
      <point x="332" y="286" type="curve" smooth="yes"/>
      <point x="314" y="286"/>
      <point x="301" y="301"/>
      <point x="303" y="336" type="curve" smooth="yes"/>
      <point x="308" y="443" type="line" smooth="yes"/>
      <point x="311" y="514"/>
      <point x="274" y="540"/>
    </contour>
    <contour>
      <point x="132" y="326" type="curve" smooth="yes"/>
      <point x="132" y="357"/>
      <point x="151" y="369"/>
      <point x="172" y="378" type="curve" smooth="yes"/>
      <point x="182" y="382"/>
      <point x="192" y="383"/>
      <point x="200" y="383" type="curve" smooth="yes"/>
      <point x="206" y="383"/>
      <point x="209" y="376"/>
      <point x="208" y="364" type="curve" smooth="yes"/>
      <point x="205" y="315" type="line" smooth="yes"/>
      <point x="204" y="300"/>
      <point x="195" y="287"/>
      <point x="172" y="287" type="curve" smooth="yes"/>
      <point x="149" y="287"/>
      <point x="132" y="307"/>
    </contour>
  </outline>
</glyph>
<glyph name="uni00B5" format="1">
  <advance width="536"/>
  <unicode hex="00B5"/>
  <outline>
    <contour>
      <point x="466" y="320" type="line" smooth="yes" name="hr00"/>
      <point x="466" y="357"/>
      <point x="467" y="372"/>
      <point x="469" y="391" type="curve"/>
      <point x="468" y="396"/>
      <point x="464" y="399"/>
      <point x="459" y="400" type="curve"/>
      <point x="348" y="400" type="line"/>
      <point x="338" y="399"/>
      <point x="336" y="394"/>
      <point x="336" y="385" type="curve" smooth="yes"/>
      <point x="336" y="167" type="line" smooth="yes"/>
      <point x="336" y="150"/>
      <point x="330" y="131"/>
      <point x="324" y="118" type="curve" smooth="yes"/>
      <point x="300" y="66"/>
      <point x="273" y="55"/>
      <point x="249" y="55" type="curve" smooth="yes"/>
      <point x="222" y="55"/>
      <point x="204" y="75"/>
      <point x="204" y="124" type="curve" smooth="yes"/>
      <point x="204" y="314" type="line" smooth="yes"/>
      <point x="204" y="363"/>
      <point x="205" y="379"/>
      <point x="207" y="391" type="curve"/>
      <point x="206" y="396"/>
      <point x="202" y="399"/>
      <point x="197" y="400" type="curve"/>
      <point x="86" y="400" type="line" smooth="yes"/>
      <point x="78" y="400"/>
      <point x="73" y="400"/>
      <point x="73" y="391" type="curve" smooth="yes"/>
      <point x="73" y="-218" type="line" smooth="yes"/>
      <point x="73" y="-255"/>
      <point x="79" y="-269"/>
      <point x="96" y="-269" type="curve" smooth="yes"/>
      <point x="132" y="-269"/>
      <point x="188" y="-236"/>
      <point x="188" y="-206" type="curve" smooth="yes"/>
      <point x="188" y="-184"/>
      <point x="125" y="-109"/>
      <point x="125" y="-34" type="curve" smooth="yes"/>
      <point x="125" y="-15" type="line" smooth="yes"/>
      <point x="125" y="4"/>
      <point x="132" y="7"/>
      <point x="137" y="7" type="curve"/>
      <point x="146" y="1"/>
      <point x="171" y="-14"/>
      <point x="202" y="-14" type="curve" smooth="yes"/>
      <point x="245" y="-14"/>
      <point x="303" y="-1"/>
      <point x="334" y="74" type="curve"/>
      <point x="338" y="75"/>
      <point x="339" y="72"/>
      <point x="340" y="63" type="curve" smooth="yes"/>
      <point x="344" y="17"/>
      <point x="367" y="-13"/>
      <point x="415" y="-13" type="curve" smooth="yes"/>
      <point x="457" y="-13"/>
      <point x="506" y="-1"/>
      <point x="537" y="47" type="curve"/>
      <point x="541" y="55"/>
      <point x="533" y="70"/>
      <point x="525" y="75" type="curve"/>
      <point x="511" y="61"/>
      <point x="500" y="55"/>
      <point x="486" y="55" type="curve" smooth="yes"/>
      <point x="469" y="55"/>
      <point x="466" y="69"/>
      <point x="466" y="106" type="curve" smooth="yes"/>
    </contour>
  </outline>
</glyph>
<glyph name="periodcentered" format="1">
  <advance width="260"/>
  <unicode hex="00B7"/>
  <outline>
    <contour>
      <point x="130" y="126" type="curve" smooth="yes" name="hr00"/>
      <point x="178" y="126"/>
      <point x="211" y="161"/>
      <point x="211" y="207" type="curve" smooth="yes"/>
      <point x="211" y="250"/>
      <point x="178" y="290"/>
      <point x="130" y="290" type="curve" smooth="yes"/>
      <point x="85" y="290"/>
      <point x="49" y="254"/>
      <point x="49" y="207" type="curve" smooth="yes"/>
      <point x="49" y="158"/>
      <point x="90" y="126"/>
    </contour>
  </outline>
</glyph>
<glyph name="cedilla" format="1">
  <advance width="380"/>
  <unicode hex="00B8"/>
  <outline>
    <contour>
      <point x="217" y="0" type="line" name="hr00"/>
      <point x="145" y="-106" type="line"/>
      <point x="148" y="-114" type="line"/>
      <point x="184" y="-129"/>
      <point x="224" y="-154"/>
      <point x="224" y="-186" type="curve" smooth="yes"/>
      <point x="224" y="-202"/>
      <point x="209" y="-211"/>
      <point x="198" y="-211" type="curve" smooth="yes"/>
      <point x="176" y="-211"/>
      <point x="158" y="-174"/>
      <point x="130" y="-174" type="curve" smooth="yes"/>
      <point x="111" y="-174"/>
      <point x="98" y="-189"/>
      <point x="98" y="-207" type="curve" smooth="yes"/>
      <point x="98" y="-235"/>
      <point x="127" y="-251"/>
      <point x="175" y="-251" type="curve" smooth="yes"/>
      <point x="240" y="-251"/>
      <point x="302" y="-213"/>
      <point x="302" y="-158" type="curve" smooth="yes"/>
      <point x="302" y="-119"/>
      <point x="278" y="-93"/>
      <point x="241" y="-73" type="curve" smooth="yes"/>
      <point x="226" y="-65"/>
      <point x="224" y="-62"/>
      <point x="232" y="-52" type="curve" smooth="yes"/>
      <point x="270" y="0" type="line"/>
    </contour>
  </outline>
</glyph>
<glyph name="guillemotright" format="1">
  <advance width="432"/>
  <unicode hex="00BB"/>
  <outline>
    <contour>
      <point x="112" y="224" type="line" smooth="yes" name="hr00"/>
      <point x="117" y="213"/>
      <point x="116" y="204"/>
      <point x="112" y="195" type="curve" smooth="yes"/>
      <point x="36" y="32" type="line"/>
      <point x="40" y="24"/>
      <point x="48" y="16"/>
      <point x="58" y="17" type="curve"/>
      <point x="107" y="75"/>
      <point x="157" y="133"/>
      <point x="210" y="191" type="curve" smooth="yes"/>
      <point x="221" y="204"/>
      <point x="221" y="214"/>
      <point x="210" y="227" type="curve" smooth="yes"/>
      <point x="157" y="284"/>
      <point x="107" y="341"/>
      <point x="58" y="399" type="curve"/>
      <point x="50" y="397"/>
      <point x="40" y="393"/>
      <point x="36" y="384" type="curve"/>
    </contour>
    <contour>
      <point x="290" y="224" type="line" smooth="yes"/>
      <point x="295" y="213"/>
      <point x="294" y="204"/>
      <point x="290" y="195" type="curve" smooth="yes"/>
      <point x="214" y="32" type="line"/>
      <point x="218" y="24"/>
      <point x="226" y="16"/>
      <point x="236" y="17" type="curve"/>
      <point x="285" y="75"/>
      <point x="335" y="133"/>
      <point x="388" y="191" type="curve" smooth="yes"/>
      <point x="399" y="204"/>
      <point x="399" y="214"/>
      <point x="388" y="227" type="curve" smooth="yes"/>
      <point x="335" y="284"/>
      <point x="285" y="341"/>
      <point x="236" y="399" type="curve"/>
      <point x="228" y="397"/>
      <point x="218" y="393"/>
      <point x="214" y="384" type="curve"/>
    </contour>
  </outline>
</glyph>
<glyph name="onequarter" format="1">
  <advance width="840"/>
  <unicode hex="00BC"/>
  <outline>
    <contour>
      <point x="608" y="76" type="line" smooth="yes" name="hr00"/>
      <point x="608" y="34"/>
      <point x="608" y="28"/>
      <point x="567" y="26" type="curve" smooth="yes"/>
      <point x="547" y="25" type="line"/>
      <point x="541" y="20"/>
      <point x="541" y="2"/>
      <point x="549" y="-2" type="curve"/>
      <point x="578" y="-1"/>
      <point x="617" y="0"/>
      <point x="655" y="0" type="curve" smooth="yes"/>
      <point x="693" y="0"/>
      <point x="728" y="-1"/>
      <point x="767" y="-2" type="curve"/>
      <point x="775" y="3"/>
      <point x="775" y="20"/>
      <point x="768" y="25" type="curve"/>
      <point x="755" y="26" type="line" smooth="yes"/>
      <point x="721" y="29"/>
      <point x="719" y="37"/>
      <point x="719" y="76" type="curve" smooth="yes"/>
      <point x="719" y="90" type="line" smooth="yes"/>
      <point x="719" y="107"/>
      <point x="720" y="108"/>
      <point x="734" y="108" type="curve" smooth="yes"/>
      <point x="778" y="108" type="line"/>
      <point x="789" y="114"/>
      <point x="789" y="142"/>
      <point x="778" y="146" type="curve"/>
      <point x="734" y="146" type="line" smooth="yes"/>
      <point x="720" y="146"/>
      <point x="719" y="148"/>
      <point x="719" y="163" type="curve" smooth="yes"/>
      <point x="719" y="268" type="line" smooth="yes"/>
      <point x="719" y="274"/>
      <point x="716" y="278"/>
      <point x="708" y="278" type="curve" smooth="yes"/>
      <point x="697" y="278"/>
      <point x="646" y="266"/>
      <point x="626" y="260" type="curve" smooth="yes"/>
      <point x="616" y="257"/>
      <point x="608" y="252"/>
      <point x="608" y="238" type="curve" smooth="yes"/>
      <point x="608" y="163" type="line" smooth="yes"/>
      <point x="608" y="148"/>
      <point x="607" y="146"/>
      <point x="593" y="146" type="curve" smooth="yes"/>
      <point x="520" y="146" type="line" smooth="yes"/>
      <point x="502" y="146"/>
      <point x="500" y="151"/>
      <point x="505" y="157" type="curve" smooth="yes"/>
      <point x="701" y="404" type="line" smooth="yes"/>
      <point x="711" y="417"/>
      <point x="709" y="426"/>
      <point x="698" y="426" type="curve" smooth="yes"/>
      <point x="669" y="426" type="line" smooth="yes"/>
      <point x="660" y="426"/>
      <point x="655" y="421"/>
      <point x="649" y="414" type="curve" smooth="yes"/>
      <point x="433" y="131" type="line"/>
      <point x="431" y="122"/>
      <point x="433" y="112"/>
      <point x="440" y="108" type="curve"/>
      <point x="593" y="108" type="line" smooth="yes"/>
      <point x="607" y="108"/>
      <point x="608" y="107"/>
      <point x="608" y="90" type="curve" smooth="yes"/>
    </contour>
    <contour>
      <point x="628" y="630" type="line"/>
      <point x="623" y="647"/>
      <point x="596" y="656"/>
      <point x="581" y="654" type="curve"/>
      <point x="211" y="-16" type="line"/>
      <point x="218" y="-33"/>
      <point x="240" y="-44"/>
      <point x="258" y="-40" type="curve"/>
    </contour>
    <contour>
      <point x="140" y="344" type="line" smooth="yes"/>
      <point x="140" y="293"/>
      <point x="141" y="280"/>
      <point x="110" y="276" type="curve" smooth="yes"/>
      <point x="80" y="272" type="line"/>
      <point x="74" y="266"/>
      <point x="75" y="249"/>
      <point x="82" y="245" type="curve"/>
      <point x="119" y="246"/>
      <point x="159" y="247"/>
      <point x="196" y="247" type="curve" smooth="yes"/>
      <point x="234" y="247"/>
      <point x="274" y="246"/>
      <point x="311" y="245" type="curve"/>
      <point x="318" y="249"/>
      <point x="319" y="266"/>
      <point x="313" y="272" type="curve"/>
      <point x="283" y="276" type="line" smooth="yes"/>
      <point x="252" y="280"/>
      <point x="253" y="293"/>
      <point x="253" y="344" type="curve" smooth="yes"/>
      <point x="253" y="544" type="line" smooth="yes"/>
      <point x="253" y="577"/>
      <point x="255" y="615"/>
      <point x="256" y="632" type="curve"/>
      <point x="255" y="637"/>
      <point x="251" y="640"/>
      <point x="244" y="640" type="curve"/>
      <point x="205" y="619"/>
      <point x="136" y="598"/>
      <point x="77" y="590" type="curve"/>
      <point x="69" y="585"/>
      <point x="69" y="567"/>
      <point x="77" y="562" type="curve"/>
      <point x="108" y="558" type="line" smooth="yes"/>
      <point x="137" y="554"/>
      <point x="140" y="539"/>
      <point x="140" y="504" type="curve" smooth="yes"/>
    </contour>
  </outline>
</glyph>
<glyph name="threequarters" format="1">
  <advance width="840"/>
  <unicode hex="00BE"/>
  <outline>
    <contour>
      <point x="643" y="76" type="line" smooth="yes" name="hr01"/>
      <point x="643" y="34"/>
      <point x="643" y="28"/>
      <point x="602" y="26" type="curve" smooth="yes"/>
      <point x="582" y="25" type="line"/>
      <point x="576" y="20"/>
      <point x="576" y="2"/>
      <point x="584" y="-2" type="curve"/>
      <point x="613" y="-1"/>
      <point x="652" y="0"/>
      <point x="690" y="0" type="curve" smooth="yes"/>
      <point x="728" y="0"/>
      <point x="763" y="-1"/>
      <point x="802" y="-2" type="curve"/>
      <point x="810" y="3"/>
      <point x="810" y="20"/>
      <point x="803" y="25" type="curve"/>
      <point x="790" y="26" type="line" smooth="yes"/>
      <point x="756" y="29"/>
      <point x="754" y="37"/>
      <point x="754" y="76" type="curve" smooth="yes"/>
      <point x="754" y="90" type="line" smooth="yes"/>
      <point x="754" y="107"/>
      <point x="755" y="108"/>
      <point x="769" y="108" type="curve" smooth="yes"/>
      <point x="813" y="108" type="line"/>
      <point x="824" y="114"/>
      <point x="824" y="142"/>
      <point x="813" y="146" type="curve"/>
      <point x="769" y="146" type="line" smooth="yes"/>
      <point x="755" y="146"/>
      <point x="754" y="148"/>
      <point x="754" y="163" type="curve" smooth="yes"/>
      <point x="754" y="268" type="line" smooth="yes"/>
      <point x="754" y="274"/>
      <point x="751" y="278"/>
      <point x="743" y="278" type="curve" smooth="yes"/>
      <point x="732" y="278"/>
      <point x="681" y="266"/>
      <point x="661" y="260" type="curve" smooth="yes"/>
      <point x="651" y="257"/>
      <point x="643" y="252"/>
      <point x="643" y="238" type="curve" smooth="yes"/>
      <point x="643" y="163" type="line" smooth="yes"/>
      <point x="643" y="148"/>
      <point x="642" y="146"/>
      <point x="628" y="146" type="curve" smooth="yes"/>
      <point x="555" y="146" type="line" smooth="yes"/>
      <point x="537" y="146"/>
      <point x="535" y="151"/>
      <point x="540" y="157" type="curve" smooth="yes"/>
      <point x="736" y="404" type="line" smooth="yes"/>
      <point x="746" y="417"/>
      <point x="744" y="426"/>
      <point x="733" y="426" type="curve" smooth="yes"/>
      <point x="704" y="426" type="line" smooth="yes"/>
      <point x="695" y="426"/>
      <point x="690" y="421"/>
      <point x="684" y="414" type="curve" smooth="yes"/>
      <point x="468" y="131" type="line"/>
      <point x="466" y="122"/>
      <point x="468" y="112"/>
      <point x="475" y="108" type="curve"/>
      <point x="628" y="108" type="line" smooth="yes"/>
      <point x="642" y="108"/>
      <point x="643" y="107"/>
      <point x="643" y="90" type="curve" smooth="yes"/>
    </contour>
    <contour>
      <point x="653" y="630" type="line"/>
      <point x="648" y="647"/>
      <point x="621" y="656"/>
      <point x="606" y="654" type="curve"/>
      <point x="236" y="-16" type="line"/>
      <point x="243" y="-33"/>
      <point x="265" y="-44"/>
      <point x="283" y="-40" type="curve"/>
    </contour>
    <contour>
      <point x="119" y="208" type="curve" smooth="yes"/>
      <point x="155" y="208"/>
      <point x="219" y="220"/>
      <point x="274" y="255" type="curve" smooth="yes"/>
      <point x="332" y="291"/>
      <point x="357" y="332"/>
      <point x="357" y="381" type="curve" smooth="yes"/>
      <point x="357" y="448"/>
      <point x="303" y="473"/>
      <point x="252" y="479" type="curve" smooth="yes"/>
      <point x="244" y="480"/>
      <point x="237" y="485"/>
      <point x="244" y="488" type="curve" smooth="yes"/>
      <point x="308" y="514"/>
      <point x="321" y="537"/>
      <point x="321" y="566" type="curve" smooth="yes" name="hr02"/>
      <point x="321" y="608"/>
      <point x="277" y="640"/>
      <point x="212" y="640" type="curve" smooth="yes"/>
      <point x="155" y="640"/>
      <point x="98" y="609"/>
      <point x="70" y="555" type="curve"/>
      <point x="69" y="543"/>
      <point x="83" y="533"/>
      <point x="95" y="538" type="curve"/>
      <point x="119" y="574"/>
      <point x="147" y="588"/>
      <point x="169" y="588" type="curve" smooth="yes"/>
      <point x="198" y="588"/>
      <point x="214" y="571"/>
      <point x="214" y="548" type="curve" smooth="yes"/>
      <point x="214" y="493"/>
      <point x="129" y="463"/>
      <point x="89" y="448" type="curve"/>
      <point x="81" y="437"/>
      <point x="86" y="416"/>
      <point x="105" y="412" type="curve"/>
      <point x="123" y="428"/>
      <point x="145" y="437"/>
      <point x="172" y="437" type="curve" smooth="yes" name="hr03"/>
      <point x="210" y="437"/>
      <point x="237" y="405"/>
      <point x="237" y="353" type="curve" smooth="yes"/>
      <point x="237" y="278"/>
      <point x="190" y="247"/>
      <point x="162" y="248" type="curve" smooth="yes"/>
      <point x="149" y="248"/>
      <point x="141" y="253"/>
      <point x="133" y="265" type="curve" smooth="yes"/>
      <point x="125" y="276"/>
      <point x="111" y="302"/>
      <point x="86" y="302" type="curve" smooth="yes"/>
      <point x="54" y="302"/>
      <point x="43" y="278"/>
      <point x="43" y="261" type="curve" smooth="yes"/>
      <point x="43" y="223"/>
      <point x="85" y="208"/>
    </contour>
  </outline>
</glyph>
<glyph name="questiondown" format="1">
  <advance width="332"/>
  <unicode hex="00BF"/>
  <outline>
    <contour>
      <point x="222" y="-266" type="curve" smooth="yes" name="hr01"/>
      <point x="264" y="-266"/>
      <point x="292" y="-237"/>
      <point x="292" y="-204" type="curve" smooth="yes"/>
      <point x="292" y="-159"/>
      <point x="256" y="-140"/>
      <point x="237" y="-140" type="curve" smooth="yes"/>
      <point x="131" y="-140"/>
      <point x="92" y="-126"/>
      <point x="92" y="-96" type="curve" smooth="yes"/>
      <point x="92" y="-82"/>
      <point x="110" y="-73"/>
      <point x="140" y="-60" type="curve" smooth="yes"/>
      <point x="187" y="-40" type="line" smooth="yes"/>
      <point x="245" y="-15"/>
      <point x="277" y="3"/>
      <point x="277" y="59" type="curve" smooth="yes"/>
      <point x="277" y="100"/>
      <point x="250" y="154"/>
      <point x="233" y="177" type="curve"/>
      <point x="225" y="185"/>
      <point x="205" y="181"/>
      <point x="200" y="172" type="curve"/>
      <point x="207" y="152"/>
      <point x="210" y="133"/>
      <point x="210" y="118" type="curve" smooth="yes"/>
      <point x="210" y="102"/>
      <point x="196" y="87"/>
      <point x="169" y="75" type="curve" smooth="yes"/>
      <point x="103" y="45" type="line" smooth="yes"/>
      <point x="66" y="28"/>
      <point x="40" y="-4"/>
      <point x="40" y="-62" type="curve" smooth="yes"/>
      <point x="40" y="-171"/>
      <point x="130" y="-266"/>
    </contour>
    <contour>
      <point x="201" y="394" type="curve" smooth="yes" name="hr02"/>
      <point x="156" y="394"/>
      <point x="120" y="358"/>
      <point x="120" y="311" type="curve" smooth="yes"/>
      <point x="120" y="262"/>
      <point x="161" y="230"/>
      <point x="201" y="230" type="curve" smooth="yes"/>
      <point x="249" y="230"/>
      <point x="282" y="265"/>
      <point x="282" y="311" type="curve" smooth="yes"/>
      <point x="282" y="354"/>
      <point x="249" y="394"/>
    </contour>
  </outline>
</glyph>
<glyph name="AE" format="1">
  <advance width="841"/>
  <unicode hex="00C6"/>
  <outline>
    <contour>
      <point x="367" y="144" type="line" smooth="yes" name="hr01"/>
      <point x="367" y="52"/>
      <point x="361" y="46"/>
      <point x="316" y="39" type="curve" smooth="yes" name="hr02"/>
      <point x="269" y="32" type="line"/>
      <point x="261" y="27"/>
      <point x="261" y="3"/>
      <point x="269" y="-3" type="curve" name="hr03"/>
      <point x="344" y="-1"/>
      <point x="393" y="0"/>
      <point x="436" y="0" type="curve" smooth="yes" name="hr04"/>
      <point x="566" y="0" type="line" smooth="yes"/>
      <point x="653" y="0"/>
      <point x="725" y="-1"/>
      <point x="797" y="-3" type="curve"/>
      <point x="811" y="24"/>
      <point x="835" y="105"/>
      <point x="839" y="157" type="curve"/>
      <point x="835" y="169"/>
      <point x="810" y="173"/>
      <point x="802" y="162" type="curve"/>
      <point x="747" y="49"/>
      <point x="713" y="46"/>
      <point x="626" y="46" type="curve" smooth="yes"/>
      <point x="553" y="46"/>
      <point x="534" y="54"/>
      <point x="521" y="72" type="curve" smooth="yes"/>
      <point x="509" y="89"/>
      <point x="505" y="121"/>
      <point x="505" y="167" type="curve" smooth="yes"/>
      <point x="505" y="286" type="line" smooth="yes"/>
      <point x="505" y="316"/>
      <point x="506" y="317"/>
      <point x="533" y="317" type="curve" smooth="yes"/>
      <point x="602" y="317" type="line" smooth="yes"/>
      <point x="654" y="317"/>
      <point x="666" y="309"/>
      <point x="676" y="261" type="curve" smooth="yes"/>
      <point x="681" y="236" type="line"/>
      <point x="688" y="227"/>
      <point x="713" y="228"/>
      <point x="718" y="237" type="curve"/>
      <point x="716" y="269"/>
      <point x="715" y="305"/>
      <point x="715" y="343" type="curve" smooth="yes"/>
      <point x="715" y="381"/>
      <point x="716" y="417"/>
      <point x="718" y="449" type="curve"/>
      <point x="713" y="458"/>
      <point x="688" y="458"/>
      <point x="681" y="450" type="curve"/>
      <point x="676" y="425" type="line" smooth="yes"/>
      <point x="666" y="377"/>
      <point x="654" y="370"/>
      <point x="602" y="370" type="curve" smooth="yes"/>
      <point x="533" y="370" type="line" smooth="yes"/>
      <point x="506" y="370"/>
      <point x="505" y="372"/>
      <point x="505" y="400" type="curve" smooth="yes"/>
      <point x="505" y="575" type="line" smooth="yes"/>
      <point x="505" y="612"/>
      <point x="505" y="614"/>
      <point x="538" y="614" type="curve" smooth="yes"/>
      <point x="618" y="614" type="line" smooth="yes"/>
      <point x="667" y="614"/>
      <point x="697" y="602"/>
      <point x="716" y="583" type="curve" smooth="yes"/>
      <point x="729" y="569"/>
      <point x="743" y="539"/>
      <point x="754" y="504" type="curve"/>
      <point x="764" y="495"/>
      <point x="787" y="497"/>
      <point x="791" y="508" type="curve"/>
      <point x="786" y="575"/>
      <point x="779" y="647"/>
      <point x="778" y="663" type="curve" name="hr05"/>
      <point x="765" y="661"/>
      <point x="708" y="660"/>
      <point x="644" y="660" type="curve" smooth="yes" name="hr06"/>
      <point x="386" y="660" type="line" smooth="yes"/>
      <point x="308" y="660"/>
      <point x="260" y="661"/>
      <point x="213" y="663" type="curve"/>
      <point x="199" y="658"/>
      <point x="201" y="635"/>
      <point x="210" y="628" type="curve"/>
      <point x="268" y="618" type="line" smooth="yes"/>
      <point x="280" y="616"/>
      <point x="289" y="610"/>
      <point x="289" y="602" type="curve" smooth="yes"/>
      <point x="289" y="592"/>
      <point x="274" y="560"/>
      <point x="259" y="530" type="curve" smooth="yes"/>
      <point x="182" y="377"/>
      <point x="105" y="231"/>
      <point x="31" y="99" type="curve" smooth="yes"/>
      <point x="5" y="53"/>
      <point x="-14" y="40"/>
      <point x="-43" y="36" type="curve" smooth="yes"/>
      <point x="-70" y="32" type="line"/>
      <point x="-79" y="26"/>
      <point x="-78" y="3"/>
      <point x="-69" y="-3" type="curve"/>
      <point x="-33" y="-1"/>
      <point x="-7" y="0"/>
      <point x="34" y="0" type="curve" smooth="yes"/>
      <point x="79" y="0"/>
      <point x="114" y="-1"/>
      <point x="148" y="-3" type="curve"/>
      <point x="159" y="1"/>
      <point x="160" y="25"/>
      <point x="149" y="32" type="curve"/>
      <point x="111" y="38" type="line" smooth="yes"/>
      <point x="92" y="41"/>
      <point x="86" y="46"/>
      <point x="86" y="53" type="curve" smooth="yes"/>
      <point x="86" y="59"/>
      <point x="88" y="67"/>
      <point x="94" y="82" type="curve" smooth="yes"/>
      <point x="112" y="124"/>
      <point x="150" y="206"/>
      <point x="198" y="298" type="curve" smooth="yes"/>
      <point x="206" y="313"/>
      <point x="211" y="317"/>
      <point x="236" y="317" type="curve" smooth="yes"/>
      <point x="341" y="317" type="line" smooth="yes"/>
      <point x="365" y="317"/>
      <point x="367" y="313"/>
      <point x="367" y="284" type="curve" smooth="yes"/>
    </contour>
    <contour>
      <point x="254" y="370" type="line" smooth="yes"/>
      <point x="238" y="370"/>
      <point x="233" y="371"/>
      <point x="240" y="386" type="curve" smooth="yes"/>
      <point x="319" y="542" type="line" smooth="yes"/>
      <point x="341" y="587"/>
      <point x="351" y="604"/>
      <point x="359" y="614" type="curve"/>
      <point x="364" y="614" type="line"/>
      <point x="366" y="609"/>
      <point x="367" y="594"/>
      <point x="367" y="568" type="curve" smooth="yes"/>
      <point x="367" y="408" type="line" smooth="yes"/>
      <point x="367" y="374"/>
      <point x="365" y="370"/>
      <point x="341" y="370" type="curve" smooth="yes"/>
    </contour>
  </outline>
</glyph>
<glyph name="Igrave" format="1">
  <advance width="371"/>
  <unicode hex="00CC"/>
  <outline>
    <contour>
      <point x="257" y="514" type="line" smooth="yes" name="hr00"/>
      <point x="257" y="608"/>
      <point x="263" y="615"/>
      <point x="309" y="623" type="curve" smooth="yes"/>
      <point x="337" y="628" type="line"/>
      <point x="345" y="634"/>
      <point x="345" y="657"/>
      <point x="337" y="663" type="curve"/>
      <point x="283" y="661"/>
      <point x="233" y="660"/>
      <point x="186" y="660" type="curve" smooth="yes"/>
      <point x="138" y="660"/>
      <point x="88" y="661"/>
      <point x="34" y="663" type="curve"/>
      <point x="26" y="657"/>
      <point x="26" y="634"/>
      <point x="34" y="628" type="curve"/>
      <point x="62" y="623" type="line" smooth="yes"/>
      <point x="108" y="615"/>
      <point x="114" y="608"/>
      <point x="114" y="514" type="curve" smooth="yes"/>
      <point x="114" y="146" type="line" smooth="yes"/>
      <point x="114" y="52"/>
      <point x="108" y="45"/>
      <point x="62" y="37" type="curve" smooth="yes"/>
      <point x="34" y="32" type="line"/>
      <point x="26" y="26"/>
      <point x="26" y="3"/>
      <point x="34" y="-3" type="curve"/>
      <point x="88" y="-1"/>
      <point x="138" y="0"/>
      <point x="186" y="0" type="curve" smooth="yes"/>
      <point x="233" y="0"/>
      <point x="282" y="-1"/>
      <point x="336" y="-3" type="curve"/>
      <point x="344" y="3"/>
      <point x="345" y="26"/>
      <point x="337" y="32" type="curve"/>
      <point x="309" y="37" type="line" smooth="yes"/>
      <point x="263" y="45"/>
      <point x="257" y="52"/>
      <point x="257" y="146" type="curve" smooth="yes"/>
    </contour>
    <contour>
      <point x="99" y="858" type="line" smooth="yes"/>
      <point x="84" y="870"/>
      <point x="74" y="874"/>
      <point x="67" y="874" type="curve" smooth="yes"/>
      <point x="57" y="874"/>
      <point x="45" y="861"/>
      <point x="29" y="837" type="curve" smooth="yes"/>
      <point x="16" y="817"/>
      <point x="16" y="802"/>
      <point x="18" y="795" type="curve" smooth="yes"/>
      <point x="20" y="787"/>
      <point x="30" y="776"/>
      <point x="50" y="770" type="curve" smooth="yes"/>
      <point x="246" y="706" type="line"/>
      <point x="254" y="713"/>
      <point x="260" y="728"/>
      <point x="257" y="736" type="curve"/>
    </contour>
  </outline>
</glyph>
<glyph name="Iacute" format="1">
  <advance width="371"/>
  <unicode hex="00CD"/>
  <outline>
    <contour>
      <point x="257" y="514" type="line" smooth="yes" name="hr00"/>
      <point x="257" y="608"/>
      <point x="263" y="615"/>
      <point x="309" y="623" type="curve" smooth="yes"/>
      <point x="337" y="628" type="line"/>
      <point x="345" y="634"/>
      <point x="345" y="657"/>
      <point x="337" y="663" type="curve"/>
      <point x="283" y="661"/>
      <point x="233" y="660"/>
      <point x="186" y="660" type="curve" smooth="yes"/>
      <point x="138" y="660"/>
      <point x="88" y="661"/>
      <point x="34" y="663" type="curve"/>
      <point x="26" y="657"/>
      <point x="26" y="634"/>
      <point x="34" y="628" type="curve"/>
      <point x="62" y="623" type="line" smooth="yes"/>
      <point x="108" y="615"/>
      <point x="114" y="608"/>
      <point x="114" y="514" type="curve" smooth="yes"/>
      <point x="114" y="146" type="line" smooth="yes"/>
      <point x="114" y="52"/>
      <point x="108" y="45"/>
      <point x="62" y="37" type="curve" smooth="yes"/>
      <point x="34" y="32" type="line"/>
      <point x="26" y="26"/>
      <point x="26" y="3"/>
      <point x="34" y="-3" type="curve"/>
      <point x="88" y="-1"/>
      <point x="138" y="0"/>
      <point x="186" y="0" type="curve" smooth="yes"/>
      <point x="233" y="0"/>
      <point x="282" y="-1"/>
      <point x="336" y="-3" type="curve"/>
      <point x="344" y="3"/>
      <point x="345" y="26"/>
      <point x="337" y="32" type="curve"/>
      <point x="309" y="37" type="line" smooth="yes"/>
      <point x="263" y="45"/>
      <point x="257" y="52"/>
      <point x="257" y="146" type="curve" smooth="yes"/>
    </contour>
    <contour>
      <point x="113" y="731" type="line"/>
      <point x="110" y="720"/>
      <point x="116" y="709"/>
      <point x="124" y="706" type="curve"/>
      <point x="320" y="770" type="line" smooth="yes"/>
      <point x="340" y="776"/>
      <point x="350" y="787"/>
      <point x="352" y="795" type="curve" smooth="yes"/>
      <point x="354" y="802"/>
      <point x="354" y="817"/>
      <point x="342" y="842" type="curve" smooth="yes"/>
      <point x="330" y="865"/>
      <point x="318" y="873"/>
      <point x="308" y="873" type="curve" smooth="yes"/>
      <point x="301" y="873"/>
      <point x="291" y="868"/>
      <point x="275" y="856" type="curve" smooth="yes"/>
    </contour>
  </outline>
</glyph>
<glyph name="Icircumflex" format="1">
  <advance width="371"/>
  <unicode hex="00CE"/>
  <outline>
    <contour>
      <point x="257" y="514" type="line" smooth="yes" name="hr00"/>
      <point x="257" y="608"/>
      <point x="263" y="615"/>
      <point x="309" y="623" type="curve" smooth="yes"/>
      <point x="337" y="628" type="line"/>
      <point x="345" y="634"/>
      <point x="345" y="657"/>
      <point x="337" y="663" type="curve"/>
      <point x="283" y="661"/>
      <point x="233" y="660"/>
      <point x="186" y="660" type="curve" smooth="yes"/>
      <point x="138" y="660"/>
      <point x="88" y="661"/>
      <point x="34" y="663" type="curve"/>
      <point x="26" y="657"/>
      <point x="26" y="634"/>
      <point x="34" y="628" type="curve"/>
      <point x="62" y="623" type="line" smooth="yes"/>
      <point x="108" y="615"/>
      <point x="114" y="608"/>
      <point x="114" y="514" type="curve" smooth="yes"/>
      <point x="114" y="146" type="line" smooth="yes"/>
      <point x="114" y="52"/>
      <point x="108" y="45"/>
      <point x="62" y="37" type="curve" smooth="yes"/>
      <point x="34" y="32" type="line"/>
      <point x="26" y="26"/>
      <point x="26" y="3"/>
      <point x="34" y="-3" type="curve"/>
      <point x="88" y="-1"/>
      <point x="138" y="0"/>
      <point x="186" y="0" type="curve" smooth="yes"/>
      <point x="233" y="0"/>
      <point x="282" y="-1"/>
      <point x="336" y="-3" type="curve"/>
      <point x="344" y="3"/>
      <point x="345" y="26"/>
      <point x="337" y="32" type="curve"/>
      <point x="309" y="37" type="line" smooth="yes"/>
      <point x="263" y="45"/>
      <point x="257" y="52"/>
      <point x="257" y="146" type="curve" smooth="yes"/>
    </contour>
    <contour>
      <point x="328" y="706" type="line"/>
      <point x="335" y="707"/>
      <point x="345" y="719"/>
      <point x="341" y="730" type="curve"/>
      <point x="214" y="849" type="line" smooth="yes"/>
      <point x="200" y="862"/>
      <point x="181" y="863"/>
      <point x="167" y="849" type="curve" smooth="yes"/>
      <point x="40" y="730" type="line"/>
      <point x="36" y="719"/>
      <point x="45" y="706"/>
      <point x="54" y="706" type="curve"/>
      <point x="174" y="759" type="line" smooth="yes"/>
      <point x="185" y="764"/>
      <point x="196" y="764"/>
      <point x="207" y="759" type="curve" smooth="yes"/>
    </contour>
  </outline>
</glyph>
<glyph name="Odieresis" format="1">
  <advance width="788"/>
  <unicode hex="00D6"/>
  <outline>
    <contour>
      <point x="397" y="676" type="curve" smooth="yes" name="hr01"/>
      <point x="188" y="676"/>
      <point x="40" y="523"/>
      <point x="40" y="325" type="curve" smooth="yes"/>
      <point x="40" y="116"/>
      <point x="186" y="-16"/>
      <point x="387" y="-16" type="curve" smooth="yes"/>
      <point x="602" y="-16"/>
      <point x="748" y="115"/>
      <point x="748" y="333" type="curve" smooth="yes"/>
      <point x="748" y="536"/>
      <point x="605" y="676"/>
    </contour>
    <contour>
      <point x="588" y="320" type="curve" smooth="yes"/>
      <point x="588" y="158"/>
      <point x="537" y="30"/>
      <point x="406" y="30" type="curve" smooth="yes"/>
      <point x="243" y="30"/>
      <point x="200" y="226"/>
      <point x="200" y="348" type="curve" smooth="yes"/>
      <point x="200" y="515"/>
      <point x="266" y="630"/>
      <point x="389" y="630" type="curve" smooth="yes"/>
      <point x="513" y="630"/>
      <point x="588" y="491"/>
    </contour>
    <contour>
      <point x="290" y="712" type="curve" smooth="yes" name="hr02"/>
      <point x="325" y="712"/>
      <point x="350" y="737"/>
      <point x="350" y="775" type="curve" smooth="yes"/>
      <point x="350" y="806"/>
      <point x="325" y="834"/>
      <point x="290" y="834" type="curve" smooth="yes"/>
      <point x="255" y="834"/>
      <point x="229" y="807"/>
      <point x="229" y="770" type="curve" smooth="yes"/>
      <point x="230" y="732"/>
      <point x="256" y="712"/>
    </contour>
    <contour>
      <point x="499" y="712" type="curve" smooth="yes"/>
      <point x="534" y="712"/>
      <point x="559" y="737"/>
      <point x="559" y="775" type="curve" smooth="yes"/>
      <point x="559" y="806"/>
      <point x="534" y="834"/>
      <point x="499" y="834" type="curve" smooth="yes"/>
      <point x="464" y="834"/>
      <point x="438" y="807"/>
      <point x="438" y="770" type="curve" smooth="yes"/>
      <point x="439" y="732"/>
      <point x="465" y="712"/>
    </contour>
  </outline>
</glyph>
<glyph name="Oslash" format="1">
  <advance width="788"/>
  <unicode hex="00D8"/>
  <outline>
    <contour>
      <point x="236" y="157" type="line" name="hr01"/>
      <point x="209" y="218"/>
      <point x="200" y="291"/>
      <point x="200" y="348" type="curve" smooth="yes"/>
      <point x="200" y="515"/>
      <point x="266" y="630"/>
      <point x="389" y="630" type="curve" smooth="yes"/>
      <point x="443" y="630"/>
      <point x="488" y="604"/>
      <point x="521" y="560" type="curve"/>
    </contour>
    <contour>
      <point x="550" y="509" type="line"/>
      <point x="575" y="458"/>
      <point x="588" y="392"/>
      <point x="588" y="320" type="curve" smooth="yes"/>
      <point x="588" y="158"/>
      <point x="537" y="30"/>
      <point x="406" y="30" type="curve" smooth="yes"/>
      <point x="342" y="30"/>
      <point x="296" y="60"/>
      <point x="265" y="105" type="curve"/>
    </contour>
    <contour>
      <point x="663" y="668" type="line"/>
      <point x="658" y="684"/>
      <point x="636" y="698"/>
      <point x="618" y="697" type="curve"/>
      <point x="575" y="637" type="line"/>
      <point x="525" y="662"/>
      <point x="465" y="676"/>
      <point x="397" y="676" type="curve" smooth="yes"/>
      <point x="188" y="676"/>
      <point x="40" y="523"/>
      <point x="40" y="325" type="curve" smooth="yes"/>
      <point x="40" y="207"/>
      <point x="87" y="113"/>
      <point x="163" y="54" type="curve" name="hr02"/>
      <point x="117" y="-11" type="line"/>
      <point x="121" y="-29"/>
      <point x="144" y="-44"/>
      <point x="160" y="-43" type="curve" name="hr03"/>
      <point x="209" y="26" type="line"/>
      <point x="260" y="-2"/>
      <point x="321" y="-16"/>
      <point x="387" y="-16" type="curve" smooth="yes"/>
      <point x="602" y="-16"/>
      <point x="748" y="115"/>
      <point x="748" y="332" type="curve" smooth="yes"/>
      <point x="748" y="453"/>
      <point x="701" y="550"/>
      <point x="621" y="609" type="curve"/>
    </contour>
  </outline>
</glyph>
<glyph name="Thorn" format="1">
  <advance width="594"/>
  <unicode hex="00DE"/>
  <outline>
    <contour>
      <point x="257" y="429" type="line" smooth="yes" name="hr00"/>
      <point x="257" y="470"/>
      <point x="261" y="480"/>
      <point x="302" y="480" type="curve" smooth="yes"/>
      <point x="376" y="480"/>
      <point x="410" y="404"/>
      <point x="410" y="341" type="curve" smooth="yes"/>
      <point x="410" y="262"/>
      <point x="394" y="217"/>
      <point x="319" y="192" type="curve"/>
      <point x="312" y="186"/>
      <point x="312" y="171"/>
      <point x="322" y="166" type="curve"/>
      <point x="330" y="166"/>
      <point x="335" y="165"/>
      <point x="341" y="165" type="curve" smooth="yes"/>
      <point x="453" y="165"/>
      <point x="565" y="216"/>
      <point x="565" y="342" type="curve" smooth="yes"/>
      <point x="565" y="432"/>
      <point x="513" y="484"/>
      <point x="450" y="506" type="curve" smooth="yes"/>
      <point x="418" y="518"/>
      <point x="372" y="526"/>
      <point x="324" y="526" type="curve" smooth="yes"/>
      <point x="257" y="526" type="line"/>
      <point x="257" y="609"/>
      <point x="263" y="615"/>
      <point x="308" y="623" type="curve" smooth="yes"/>
      <point x="336" y="628" type="line"/>
      <point x="346" y="634"/>
      <point x="346" y="657"/>
      <point x="336" y="663" type="curve"/>
      <point x="285" y="661"/>
      <point x="235" y="660"/>
      <point x="187" y="660" type="curve" smooth="yes"/>
      <point x="139" y="660"/>
      <point x="87" y="661"/>
      <point x="38" y="663" type="curve"/>
      <point x="26" y="657"/>
      <point x="26" y="634"/>
      <point x="35" y="628" type="curve"/>
      <point x="63" y="623" type="line" smooth="yes"/>
      <point x="108" y="615"/>
      <point x="114" y="609"/>
      <point x="114" y="516" type="curve" smooth="yes"/>
      <point x="114" y="144" type="line" smooth="yes"/>
      <point x="114" y="51"/>
      <point x="108" y="45"/>
      <point x="63" y="37" type="curve" smooth="yes"/>
      <point x="35" y="32" type="line"/>
      <point x="27" y="26"/>
      <point x="27" y="3"/>
      <point x="35" y="-3" type="curve"/>
      <point x="90" y="-1"/>
      <point x="140" y="0"/>
      <point x="187" y="0" type="curve" smooth="yes"/>
      <point x="235" y="0"/>
      <point x="283" y="-1"/>
      <point x="341" y="-3" type="curve"/>
      <point x="349" y="3"/>
      <point x="349" y="26"/>
      <point x="341" y="32" type="curve"/>
      <point x="308" y="37" type="line" smooth="yes"/>
      <point x="263" y="44"/>
      <point x="257" y="51"/>
      <point x="257" y="144" type="curve" smooth="yes"/>
    </contour>
  </outline>
</glyph>
<glyph name="ae" format="1">
  <advance width="627"/>
  <unicode hex="00E6"/>
  <outline>
    <contour>
      <point x="249" y="102" type="line" smooth="yes" name="hr01"/>
      <point x="249" y="70"/>
      <point x="234" y="53"/>
      <point x="208" y="53" type="curve" smooth="yes"/>
      <point x="184" y="53"/>
      <point x="157" y="73"/>
      <point x="157" y="111" type="curve" smooth="yes"/>
      <point x="157" y="140"/>
      <point x="173" y="159"/>
      <point x="196" y="169" type="curve" smooth="yes"/>
      <point x="211" y="176"/>
      <point x="228" y="181"/>
      <point x="239" y="182" type="curve" smooth="yes"/>
      <point x="246" y="182"/>
      <point x="249" y="178"/>
      <point x="249" y="168" type="curve" smooth="yes"/>
    </contour>
    <contour>
      <point x="442" y="-14" type="curve" smooth="yes" name="hr02"/>
      <point x="514" y="-14"/>
      <point x="585" y="14"/>
      <point x="622" y="99" type="curve"/>
      <point x="620" y="113"/>
      <point x="609" y="119"/>
      <point x="597" y="119" type="curve"/>
      <point x="569" y="73"/>
      <point x="532" y="63"/>
      <point x="504" y="63" type="curve" smooth="yes"/>
      <point x="417" y="63"/>
      <point x="370" y="117"/>
      <point x="370" y="194" type="curve" smooth="yes"/>
      <point x="370" y="214"/>
      <point x="373" y="215"/>
      <point x="387" y="219" type="curve" smooth="yes"/>
      <point x="584" y="272" type="line" smooth="yes"/>
      <point x="608" y="278"/>
      <point x="618" y="287"/>
      <point x="618" y="308" type="curve" smooth="yes"/>
      <point x="618" y="357"/>
      <point x="562" y="414"/>
      <point x="472" y="414" type="curve" smooth="yes"/>
      <point x="424" y="414"/>
      <point x="376" y="402"/>
      <point x="337" y="370" type="curve"/>
      <point x="313" y="403"/>
      <point x="279" y="414"/>
      <point x="237" y="414" type="curve" smooth="yes"/>
      <point x="180" y="414"/>
      <point x="118" y="382"/>
      <point x="83" y="354" type="curve" smooth="yes"/>
      <point x="57" y="332"/>
      <point x="34" y="301"/>
      <point x="34" y="275" type="curve" smooth="yes"/>
      <point x="34" y="262"/>
      <point x="42" y="251"/>
      <point x="57" y="251" type="curve" smooth="yes"/>
      <point x="73" y="251"/>
      <point x="113" y="263"/>
      <point x="128" y="274" type="curve" smooth="yes" name="hr03"/>
      <point x="137" y="281"/>
      <point x="143" y="290"/>
      <point x="145" y="306" type="curve" smooth="yes"/>
      <point x="152" y="349"/>
      <point x="172" y="363"/>
      <point x="196" y="363" type="curve" smooth="yes"/>
      <point x="249" y="363"/>
      <point x="249" y="306"/>
      <point x="249" y="263" type="curve" smooth="yes"/>
      <point x="249" y="252" type="line" smooth="yes"/>
      <point x="249" y="234"/>
      <point x="247" y="229"/>
      <point x="236" y="226" type="curve" smooth="yes"/>
      <point x="132" y="196" type="line" smooth="yes"/>
      <point x="63" y="176"/>
      <point x="32" y="142"/>
      <point x="32" y="93" type="curve" smooth="yes"/>
      <point x="32" y="26"/>
      <point x="90" y="-14"/>
      <point x="140" y="-14" type="curve" smooth="yes"/>
      <point x="194" y="-14"/>
      <point x="228" y="14"/>
      <point x="275" y="46" type="curve" smooth="yes"/>
      <point x="282" y="50"/>
      <point x="285" y="53"/>
      <point x="289" y="53" type="curve" smooth="yes"/>
      <point x="293" y="53"/>
      <point x="297" y="49"/>
      <point x="300" y="45" type="curve" smooth="yes"/>
      <point x="325" y="11"/>
      <point x="374" y="-14"/>
    </contour>
    <contour>
      <point x="496" y="313" type="curve" smooth="yes"/>
      <point x="496" y="299"/>
      <point x="492" y="294"/>
      <point x="475" y="289" type="curve" smooth="yes"/>
      <point x="393" y="267" type="line" smooth="yes"/>
      <point x="376" y="262"/>
      <point x="373" y="267"/>
      <point x="373" y="287" type="curve" smooth="yes"/>
      <point x="373" y="324"/>
      <point x="402" y="368"/>
      <point x="445" y="368" type="curve" smooth="yes"/>
      <point x="475" y="368"/>
      <point x="496" y="345"/>
    </contour>
  </outline>
</glyph>
<glyph name="edieresis" format="1">
  <advance width="420"/>
  <unicode hex="00EB"/>
  <outline>
    <contour>
      <point x="372" y="237" type="line" smooth="yes" name="hr01"/>
      <point x="403" y="237"/>
      <point x="408" y="251"/>
      <point x="408" y="270" type="curve" smooth="yes"/>
      <point x="408" y="347"/>
      <point x="352" y="414"/>
      <point x="248" y="414" type="curve" smooth="yes"/>
      <point x="123" y="414"/>
      <point x="32" y="316"/>
      <point x="32" y="190" type="curve" smooth="yes"/>
      <point x="32" y="81"/>
      <point x="105" y="-14"/>
      <point x="240" y="-14" type="curve" smooth="yes"/>
      <point x="300" y="-14"/>
      <point x="374" y="15"/>
      <point x="415" y="100" type="curve"/>
      <point x="415" y="117"/>
      <point x="400" y="125"/>
      <point x="389" y="123" type="curve"/>
      <point x="362" y="77"/>
      <point x="324" y="71"/>
      <point x="296" y="71" type="curve" smooth="yes"/>
      <point x="203" y="71"/>
      <point x="155" y="144"/>
      <point x="155" y="219" type="curve" smooth="yes"/>
      <point x="155" y="235"/>
      <point x="157" y="237"/>
      <point x="180" y="237" type="curve" smooth="yes"/>
    </contour>
    <contour>
      <point x="209" y="281" type="line" smooth="yes"/>
      <point x="177" y="281"/>
      <point x="163" y="282"/>
      <point x="163" y="296" type="curve" smooth="yes"/>
      <point x="163" y="328"/>
      <point x="199" y="368"/>
      <point x="241" y="368" type="curve" smooth="yes"/>
      <point x="275" y="368"/>
      <point x="294" y="346"/>
      <point x="294" y="313" type="curve" smooth="yes"/>
      <point x="294" y="303"/>
      <point x="292" y="293"/>
      <point x="287" y="290" type="curve" smooth="yes"/>
      <point x="276" y="283"/>
      <point x="260" y="281"/>
      <point x="246" y="281" type="curve" smooth="yes"/>
    </contour>
    <contour>
      <point x="141" y="482" type="curve" smooth="yes" name="hr02"/>
      <point x="176" y="482"/>
      <point x="202" y="507"/>
      <point x="202" y="546" type="curve" smooth="yes"/>
      <point x="202" y="577"/>
      <point x="176" y="605"/>
      <point x="141" y="605" type="curve" smooth="yes"/>
      <point x="105" y="605"/>
      <point x="78" y="578"/>
      <point x="78" y="541" type="curve" smooth="yes"/>
      <point x="79" y="502"/>
      <point x="106" y="482"/>
    </contour>
    <contour>
      <point x="321" y="482" type="curve" smooth="yes"/>
      <point x="356" y="482"/>
      <point x="382" y="507"/>
      <point x="382" y="546" type="curve" smooth="yes"/>
      <point x="382" y="577"/>
      <point x="356" y="605"/>
      <point x="321" y="605" type="curve" smooth="yes"/>
      <point x="285" y="605"/>
      <point x="258" y="578"/>
      <point x="258" y="541" type="curve" smooth="yes"/>
      <point x="259" y="502"/>
      <point x="286" y="482"/>
    </contour>
  </outline>
</glyph>
<glyph name="iacute" format="1">
  <advance width="286"/>
  <unicode hex="00ED"/>
  <outline>
    <contour>
      <point x="214" y="300" type="line" smooth="yes" name="hr00"/>
      <point x="214" y="345"/>
      <point x="215" y="389"/>
      <point x="217" y="419" type="curve"/>
      <point x="213" y="425"/>
      <point x="207" y="428"/>
      <point x="199" y="428" type="curve"/>
      <point x="169" y="410"/>
      <point x="98" y="383"/>
      <point x="51" y="370" type="curve"/>
      <point x="44" y="364"/>
      <point x="44" y="346"/>
      <point x="51" y="340" type="curve"/>
      <point x="65" y="331" type="line" smooth="yes"/>
      <point x="84" y="319"/>
      <point x="84" y="307"/>
      <point x="84" y="267" type="curve" smooth="yes"/>
      <point x="84" y="116" type="line" smooth="yes"/>
      <point x="84" y="46"/>
      <point x="80" y="37"/>
      <point x="47" y="34" type="curve" smooth="yes"/>
      <point x="28" y="32" type="line"/>
      <point x="20" y="26"/>
      <point x="20" y="3"/>
      <point x="29" y="-3" type="curve"/>
      <point x="62" y="-1"/>
      <point x="104" y="0"/>
      <point x="149" y="0" type="curve" smooth="yes"/>
      <point x="195" y="0"/>
      <point x="234" y="-1"/>
      <point x="269" y="-3" type="curve"/>
      <point x="278" y="3"/>
      <point x="278" y="26"/>
      <point x="270" y="32" type="curve"/>
      <point x="251" y="34" type="line" smooth="yes"/>
      <point x="218" y="37"/>
      <point x="214" y="46"/>
      <point x="214" y="116" type="curve" smooth="yes"/>
    </contour>
    <contour>
      <point x="96" y="470" type="line"/>
      <point x="98" y="458"/>
      <point x="107" y="452"/>
      <point x="121" y="454" type="curve"/>
      <point x="262" y="593" type="line" smooth="yes"/>
      <point x="275" y="606"/>
      <point x="284" y="619"/>
      <point x="284" y="630" type="curve" smooth="yes"/>
      <point x="284" y="641"/>
      <point x="275" y="652"/>
      <point x="257" y="666" type="curve" smooth="yes"/>
      <point x="240" y="678"/>
      <point x="229" y="682"/>
      <point x="218" y="682" type="curve" smooth="yes"/>
      <point x="208" y="682"/>
      <point x="198" y="675"/>
      <point x="187" y="652" type="curve" smooth="yes"/>
    </contour>
  </outline>
</glyph>
<glyph name="icircumflex" format="1">
  <advance width="286"/>
  <unicode hex="00EE"/>
  <outline>
    <contour>
      <point x="214" y="300" type="line" smooth="yes" name="hr00"/>
      <point x="214" y="345"/>
      <point x="215" y="389"/>
      <point x="217" y="419" type="curve"/>
      <point x="213" y="425"/>
      <point x="207" y="428"/>
      <point x="199" y="428" type="curve"/>
      <point x="169" y="410"/>
      <point x="98" y="383"/>
      <point x="51" y="370" type="curve"/>
      <point x="44" y="364"/>
      <point x="44" y="346"/>
      <point x="51" y="340" type="curve"/>
      <point x="65" y="331" type="line" smooth="yes"/>
      <point x="84" y="319"/>
      <point x="84" y="307"/>
      <point x="84" y="267" type="curve" smooth="yes"/>
      <point x="84" y="116" type="line" smooth="yes"/>
      <point x="84" y="46"/>
      <point x="80" y="37"/>
      <point x="47" y="34" type="curve" smooth="yes"/>
      <point x="28" y="32" type="line"/>
      <point x="20" y="26"/>
      <point x="20" y="3"/>
      <point x="29" y="-3" type="curve"/>
      <point x="62" y="-1"/>
      <point x="104" y="0"/>
      <point x="149" y="0" type="curve" smooth="yes"/>
      <point x="195" y="0"/>
      <point x="234" y="-1"/>
      <point x="269" y="-3" type="curve"/>
      <point x="278" y="3"/>
      <point x="278" y="26"/>
      <point x="270" y="32" type="curve"/>
      <point x="251" y="34" type="line" smooth="yes"/>
      <point x="218" y="37"/>
      <point x="214" y="46"/>
      <point x="214" y="116" type="curve" smooth="yes"/>
    </contour>
    <contour>
      <point x="14" y="473" type="line"/>
      <point x="19" y="461"/>
      <point x="32" y="456"/>
      <point x="42" y="455" type="curve"/>
      <point x="122" y="548" type="line" smooth="yes"/>
      <point x="133" y="560"/>
      <point x="140" y="566"/>
      <point x="143" y="566" type="curve" smooth="yes"/>
      <point x="146" y="566"/>
      <point x="152" y="560"/>
      <point x="163" y="547" type="curve" smooth="yes"/>
      <point x="243" y="455" type="line"/>
      <point x="254" y="456"/>
      <point x="267" y="461"/>
      <point x="272" y="473" type="curve"/>
      <point x="166" y="664" type="line" smooth="yes"/>
      <point x="160" y="675"/>
      <point x="155" y="677"/>
      <point x="143" y="677" type="curve" smooth="yes"/>
      <point x="131" y="677"/>
      <point x="126" y="675"/>
      <point x="120" y="664" type="curve" smooth="yes"/>
    </contour>
  </outline>
</glyph>
<glyph name="idieresis" format="1">
  <advance width="286"/>
  <unicode hex="00EF"/>
  <outline>
    <contour>
      <point x="214" y="300" type="line" smooth="yes" name="hr01"/>
      <point x="214" y="345"/>
      <point x="215" y="389"/>
      <point x="217" y="419" type="curve"/>
      <point x="213" y="425"/>
      <point x="207" y="428"/>
      <point x="199" y="428" type="curve"/>
      <point x="169" y="410"/>
      <point x="98" y="383"/>
      <point x="51" y="370" type="curve"/>
      <point x="44" y="364"/>
      <point x="44" y="346"/>
      <point x="51" y="340" type="curve"/>
      <point x="65" y="331" type="line" smooth="yes"/>
      <point x="84" y="319"/>
      <point x="84" y="307"/>
      <point x="84" y="267" type="curve" smooth="yes"/>
      <point x="84" y="116" type="line" smooth="yes"/>
      <point x="84" y="46"/>
      <point x="80" y="37"/>
      <point x="47" y="34" type="curve" smooth="yes"/>
      <point x="28" y="32" type="line"/>
      <point x="20" y="26"/>
      <point x="20" y="3"/>
      <point x="29" y="-3" type="curve"/>
      <point x="62" y="-1"/>
      <point x="104" y="0"/>
      <point x="149" y="0" type="curve" smooth="yes"/>
      <point x="195" y="0"/>
      <point x="234" y="-1"/>
      <point x="269" y="-3" type="curve"/>
      <point x="278" y="3"/>
      <point x="278" y="26"/>
      <point x="270" y="32" type="curve"/>
      <point x="251" y="34" type="line" smooth="yes"/>
      <point x="218" y="37"/>
      <point x="214" y="46"/>
      <point x="214" y="116" type="curve" smooth="yes"/>
    </contour>
    <contour>
      <point x="54" y="482" type="curve" smooth="yes" name="hr02"/>
      <point x="89" y="482"/>
      <point x="115" y="507"/>
      <point x="115" y="546" type="curve" smooth="yes"/>
      <point x="115" y="577"/>
      <point x="89" y="605"/>
      <point x="54" y="605" type="curve" smooth="yes"/>
      <point x="18" y="605"/>
      <point x="-9" y="578"/>
      <point x="-9" y="541" type="curve" smooth="yes"/>
      <point x="-8" y="502"/>
      <point x="19" y="482"/>
    </contour>
    <contour>
      <point x="234" y="482" type="curve" smooth="yes"/>
      <point x="269" y="482"/>
      <point x="295" y="507"/>
      <point x="295" y="546" type="curve" smooth="yes"/>
      <point x="295" y="577"/>
      <point x="269" y="605"/>
      <point x="234" y="605" type="curve" smooth="yes"/>
      <point x="198" y="605"/>
      <point x="171" y="578"/>
      <point x="171" y="541" type="curve" smooth="yes"/>
      <point x="172" y="502"/>
      <point x="199" y="482"/>
    </contour>
  </outline>
</glyph>
<glyph name="ograve" format="1">
  <advance width="516"/>
  <unicode hex="00F2"/>
  <outline>
    <contour>
      <point x="255" y="-14" type="curve" smooth="yes" name="hr00"/>
      <point x="378" y="-14"/>
      <point x="485" y="55"/>
      <point x="485" y="201" type="curve" smooth="yes"/>
      <point x="485" y="342"/>
      <point x="379" y="414"/>
      <point x="261" y="414" type="curve" smooth="yes"/>
      <point x="143" y="414"/>
      <point x="30" y="335"/>
      <point x="31" y="192" type="curve" smooth="yes"/>
      <point x="32" y="54"/>
      <point x="136" y="-14"/>
    </contour>
    <contour>
      <point x="255" y="368" type="curve" smooth="yes"/>
      <point x="312" y="368"/>
      <point x="340" y="284"/>
      <point x="341" y="187" type="curve" smooth="yes"/>
      <point x="342" y="97"/>
      <point x="323" y="32"/>
      <point x="266" y="32" type="curve" smooth="yes"/>
      <point x="208" y="32"/>
      <point x="175" y="109"/>
      <point x="175" y="214" type="curve" smooth="yes"/>
      <point x="175" y="323"/>
      <point x="211" y="368"/>
    </contour>
    <contour>
      <point x="208" y="649" type="line" smooth="yes"/>
      <point x="197" y="672"/>
      <point x="187" y="679"/>
      <point x="177" y="679" type="curve" smooth="yes"/>
      <point x="166" y="679"/>
      <point x="155" y="675"/>
      <point x="138" y="663" type="curve" smooth="yes"/>
      <point x="120" y="649"/>
      <point x="111" y="638"/>
      <point x="111" y="627" type="curve" smooth="yes"/>
      <point x="111" y="616"/>
      <point x="120" y="603"/>
      <point x="133" y="590" type="curve" smooth="yes"/>
      <point x="274" y="451" type="line"/>
      <point x="288" y="449"/>
      <point x="297" y="455"/>
      <point x="299" y="467" type="curve"/>
    </contour>
  </outline>
</glyph>
<glyph name="oacute" format="1">
  <advance width="516"/>
  <unicode hex="00F3"/>
  <outline>
    <contour>
      <point x="255" y="-14" type="curve" smooth="yes" name="hr00"/>
      <point x="378" y="-14"/>
      <point x="485" y="55"/>
      <point x="485" y="201" type="curve" smooth="yes"/>
      <point x="485" y="342"/>
      <point x="379" y="414"/>
      <point x="261" y="414" type="curve" smooth="yes"/>
      <point x="143" y="414"/>
      <point x="30" y="335"/>
      <point x="31" y="192" type="curve" smooth="yes"/>
      <point x="32" y="54"/>
      <point x="136" y="-14"/>
    </contour>
    <contour>
      <point x="255" y="368" type="curve" smooth="yes"/>
      <point x="312" y="368"/>
      <point x="340" y="284"/>
      <point x="341" y="187" type="curve" smooth="yes"/>
      <point x="342" y="97"/>
      <point x="323" y="32"/>
      <point x="266" y="32" type="curve" smooth="yes"/>
      <point x="208" y="32"/>
      <point x="175" y="109"/>
      <point x="175" y="214" type="curve" smooth="yes"/>
      <point x="175" y="323"/>
      <point x="211" y="368"/>
    </contour>
    <contour>
      <point x="204" y="468" type="line"/>
      <point x="206" y="456"/>
      <point x="215" y="450"/>
      <point x="229" y="452" type="curve"/>
      <point x="370" y="591" type="line" smooth="yes"/>
      <point x="383" y="604"/>
      <point x="392" y="617"/>
      <point x="392" y="628" type="curve" smooth="yes"/>
      <point x="392" y="639"/>
      <point x="383" y="650"/>
      <point x="365" y="664" type="curve" smooth="yes"/>
      <point x="348" y="676"/>
      <point x="337" y="680"/>
      <point x="326" y="680" type="curve" smooth="yes"/>
      <point x="316" y="680"/>
      <point x="306" y="673"/>
      <point x="295" y="650" type="curve" smooth="yes"/>
    </contour>
  </outline>
</glyph>
<glyph name="otilde" format="1">
  <advance width="516"/>
  <unicode hex="00F5"/>
  <outline>
    <contour>
      <point x="255" y="-14" type="curve" smooth="yes" name="hr00"/>
      <point x="378" y="-14"/>
      <point x="485" y="55"/>
      <point x="485" y="201" type="curve" smooth="yes"/>
      <point x="485" y="342"/>
      <point x="379" y="414"/>
      <point x="261" y="414" type="curve" smooth="yes"/>
      <point x="143" y="414"/>
      <point x="30" y="335"/>
      <point x="31" y="192" type="curve" smooth="yes"/>
      <point x="32" y="54"/>
      <point x="136" y="-14"/>
    </contour>
    <contour>
      <point x="255" y="368" type="curve" smooth="yes"/>
      <point x="312" y="368"/>
      <point x="340" y="284"/>
      <point x="341" y="187" type="curve" smooth="yes"/>
      <point x="342" y="97"/>
      <point x="323" y="32"/>
      <point x="266" y="32" type="curve" smooth="yes"/>
      <point x="208" y="32"/>
      <point x="175" y="109"/>
      <point x="175" y="214" type="curve" smooth="yes"/>
      <point x="175" y="323"/>
      <point x="211" y="368"/>
    </contour>
    <contour>
      <point x="298" y="510" type="line" smooth="yes"/>
      <point x="329" y="510"/>
      <point x="344" y="517"/>
      <point x="358" y="538" type="curve" smooth="yes"/>
      <point x="373" y="561"/>
      <point x="385" y="592"/>
      <point x="391" y="624" type="curve"/>
      <point x="387" y="630"/>
      <point x="369" y="632"/>
      <point x="361" y="629" type="curve"/>
      <point x="345" y="588"/>
      <point x="323" y="582"/>
      <point x="283" y="582" type="curve" smooth="yes"/>
      <point x="227" y="582" type="line" smooth="yes"/>
      <point x="200" y="582"/>
      <point x="183" y="575"/>
      <point x="166" y="554" type="curve" smooth="yes"/>
      <point x="150" y="534"/>
      <point x="131" y="486"/>
      <point x="125" y="467" type="curve"/>
      <point x="129" y="459"/>
      <point x="150" y="457"/>
      <point x="156" y="461" type="curve"/>
      <point x="174" y="492"/>
      <point x="197" y="510"/>
      <point x="242" y="510" type="curve" smooth="yes"/>
    </contour>
  </outline>
</glyph>
<glyph name="oslash" format="1">
  <advance width="516"/>
  <unicode hex="00F8"/>
  <outline>
    <contour>
      <point x="183" y="129" type="line" name="hr00"/>
      <point x="175" y="156"/>
      <point x="172" y="184"/>
      <point x="172" y="214" type="curve" smooth="yes"/>
      <point x="172" y="323"/>
      <point x="208" y="368"/>
      <point x="255" y="368" type="curve" smooth="yes"/>
      <point x="283" y="368"/>
      <point x="304" y="350"/>
      <point x="317" y="321" type="curve"/>
    </contour>
    <contour>
      <point x="334" y="271" type="line"/>
      <point x="341" y="244"/>
      <point x="344" y="216"/>
      <point x="344" y="187" type="curve" smooth="yes"/>
      <point x="345" y="97"/>
      <point x="326" y="32"/>
      <point x="266" y="32" type="curve" smooth="yes"/>
      <point x="237" y="32"/>
      <point x="213" y="50"/>
      <point x="200" y="80" type="curve"/>
    </contour>
    <contour>
      <point x="147" y="9" type="line"/>
      <point x="180" y="-8"/>
      <point x="218" y="-14"/>
      <point x="255" y="-14" type="curve" smooth="yes"/>
      <point x="378" y="-14"/>
      <point x="485" y="55"/>
      <point x="485" y="201" type="curve" smooth="yes"/>
      <point x="485" y="278"/>
      <point x="454" y="334"/>
      <point x="405" y="369" type="curve"/>
      <point x="438" y="413" type="line"/>
      <point x="434" y="428"/>
      <point x="419" y="438"/>
      <point x="403" y="439" type="curve"/>
      <point x="368" y="391" type="line"/>
      <point x="338" y="407"/>
      <point x="297" y="414"/>
      <point x="261" y="414" type="curve" smooth="yes"/>
      <point x="143" y="414"/>
      <point x="30" y="335"/>
      <point x="31" y="192" type="curve" smooth="yes"/>
      <point x="32" y="118"/>
      <point x="62" y="64"/>
      <point x="110" y="30" type="curve"/>
      <point x="72" y="-21" type="line"/>
      <point x="76" y="-35"/>
      <point x="87" y="-44"/>
      <point x="106" y="-47" type="curve"/>
    </contour>
  </outline>
</glyph>
<glyph name="thorn" format="1">
  <advance width="533"/>
  <unicode hex="00FE"/>
  <outline>
    <contour>
      <point x="73" y="-139" type="line" smooth="yes" name="hr01"/>
      <point x="73" y="-209"/>
      <point x="69" y="-218"/>
      <point x="36" y="-221" type="curve" smooth="yes"/>
      <point x="16" y="-223" type="line"/>
      <point x="8" y="-229"/>
      <point x="8" y="-252"/>
      <point x="17" y="-258" type="curve"/>
      <point x="53" y="-256"/>
      <point x="92" y="-255"/>
      <point x="136" y="-255" type="curve" smooth="yes"/>
      <point x="183" y="-255"/>
      <point x="223" y="-256"/>
      <point x="273" y="-258" type="curve"/>
      <point x="282" y="-252"/>
      <point x="282" y="-229"/>
      <point x="274" y="-223" type="curve"/>
      <point x="240" y="-220" type="line" smooth="yes"/>
      <point x="207" y="-217"/>
      <point x="203" y="-209"/>
      <point x="203" y="-139" type="curve" smooth="yes"/>
      <point x="203" y="-40" type="line" smooth="yes" name="hr02"/>
      <point x="203" y="-19"/>
      <point x="209" y="-13"/>
      <point x="218" y="-11" type="curve"/>
      <point x="227" y="-13"/>
      <point x="249" y="-14"/>
      <point x="263" y="-14" type="curve" smooth="yes" name="hr03"/>
      <point x="409" y="-14"/>
      <point x="508" y="83"/>
      <point x="508" y="223" type="curve" smooth="yes"/>
      <point x="508" y="331"/>
      <point x="444" y="414"/>
      <point x="338" y="414" type="curve" smooth="yes"/>
      <point x="283" y="414"/>
      <point x="239" y="389"/>
      <point x="211" y="374" type="curve"/>
      <point x="207" y="375"/>
      <point x="203" y="381"/>
      <point x="203" y="383" type="curve" smooth="yes"/>
      <point x="203" y="542" type="line" smooth="yes"/>
      <point x="203" y="605"/>
      <point x="204" y="647"/>
      <point x="206" y="688" type="curve"/>
      <point x="202" y="693"/>
      <point x="195" y="695"/>
      <point x="189" y="695" type="curve"/>
      <point x="137" y="673"/>
      <point x="77" y="649"/>
      <point x="36" y="639" type="curve"/>
      <point x="29" y="633"/>
      <point x="29" y="615"/>
      <point x="36" y="609" type="curve"/>
      <point x="53" y="599" type="line" smooth="yes"/>
      <point x="73" y="587"/>
      <point x="73" y="576"/>
      <point x="73" y="536" type="curve" smooth="yes"/>
    </contour>
    <contour>
      <point x="203" y="273" type="line" smooth="yes"/>
      <point x="203" y="312"/>
      <point x="209" y="325"/>
      <point x="214" y="331" type="curve" smooth="yes"/>
      <point x="222" y="341"/>
      <point x="239" y="345"/>
      <point x="256" y="345" type="curve" smooth="yes"/>
      <point x="322" y="345"/>
      <point x="370" y="289"/>
      <point x="370" y="191" type="curve" smooth="yes"/>
      <point x="370" y="98"/>
      <point x="336" y="32"/>
      <point x="274" y="32" type="curve" smooth="yes"/>
      <point x="258" y="32"/>
      <point x="239" y="41"/>
      <point x="226" y="55" type="curve" smooth="yes"/>
      <point x="211" y="70"/>
      <point x="203" y="91"/>
      <point x="203" y="113" type="curve" smooth="yes"/>
    </contour>
  </outline>
</glyph>
<glyph name="Aogonek" format="1">
  <advance width="624"/>
  <unicode hex="0104"/>
  <outline>
    <contour>
      <point x="225" y="279" type="line" smooth="yes" name="hr01"/>
      <point x="200" y="279"/>
      <point x="195" y="282"/>
      <point x="204" y="309" type="curve" smooth="yes"/>
      <point x="229" y="384" type="line" smooth="yes"/>
      <point x="244" y="430"/>
      <point x="262" y="483"/>
      <point x="272" y="505" type="curve"/>
      <point x="281" y="484"/>
      <point x="299" y="432"/>
      <point x="313" y="389" type="curve" smooth="yes"/>
      <point x="339" y="308" type="line" smooth="yes"/>
      <point x="347" y="282"/>
      <point x="342" y="279"/>
      <point x="319" y="279" type="curve" smooth="yes"/>
    </contour>
    <contour>
      <point x="324" y="226" type="line" smooth="yes"/>
      <point x="359" y="226"/>
      <point x="367" y="224"/>
      <point x="372" y="208" type="curve" smooth="yes"/>
      <point x="399" y="122" type="line" smooth="yes"/>
      <point x="411" y="85"/>
      <point x="418" y="61"/>
      <point x="418" y="54" type="curve" smooth="yes"/>
      <point x="418" y="48"/>
      <point x="414" y="41"/>
      <point x="391" y="37" type="curve" smooth="yes"/>
      <point x="359" y="32" type="line"/>
      <point x="348" y="24"/>
      <point x="350" y="3"/>
      <point x="361" y="-3" type="curve"/>
      <point x="376" y="-3"/>
      <point x="474" y="0"/>
      <point x="525" y="0" type="curve"/>
      <point x="447" y="-51"/>
      <point x="408" y="-101"/>
      <point x="408" y="-148" type="curve" smooth="yes"/>
      <point x="408" y="-199"/>
      <point x="442" y="-241"/>
      <point x="513" y="-241" type="curve" smooth="yes"/>
      <point x="554" y="-241"/>
      <point x="595" y="-224"/>
      <point x="622" y="-192" type="curve"/>
      <point x="622" y="-183"/>
      <point x="619" y="-171"/>
      <point x="613" y="-168" type="curve"/>
      <point x="599" y="-175"/>
      <point x="581" y="-177"/>
      <point x="568" y="-177" type="curve" smooth="yes"/>
      <point x="528" y="-177"/>
      <point x="503" y="-162"/>
      <point x="503" y="-115" type="curve" smooth="yes"/>
      <point x="503" y="-88"/>
      <point x="529" y="-30"/>
      <point x="576" y="0" type="curve" name="hr02"/>
      <point x="608" y="0"/>
      <point x="602" y="-1"/>
      <point x="650" y="-3" type="curve"/>
      <point x="659" y="3"/>
      <point x="657" y="27"/>
      <point x="651" y="32" type="curve"/>
      <point x="613" y="38" type="line" smooth="yes"/>
      <point x="576" y="44"/>
      <point x="567" y="67"/>
      <point x="546" y="127" type="curve" smooth="yes"/>
      <point x="410" y="519" type="line" smooth="yes"/>
      <point x="385" y="590"/>
      <point x="373" y="627"/>
      <point x="365" y="656" type="curve" smooth="yes"/>
      <point x="361" y="671"/>
      <point x="355" y="676"/>
      <point x="342" y="676" type="curve" smooth="yes"/>
      <point x="340" y="676"/>
      <point x="303" y="627"/>
      <point x="255" y="616" type="curve"/>
      <point x="258" y="587"/>
      <point x="242" y="552"/>
      <point x="219" y="489" type="curve" smooth="yes"/>
      <point x="127" y="245" type="line" smooth="yes"/>
      <point x="100" y="173"/>
      <point x="81" y="125"/>
      <point x="64" y="85" type="curve" smooth="yes" name="hr03"/>
      <point x="47" y="46"/>
      <point x="27" y="38"/>
      <point x="3" y="35" type="curve" smooth="yes"/>
      <point x="-24" y="32" type="line"/>
      <point x="-31" y="24"/>
      <point x="-32" y="3"/>
      <point x="-21" y="-3" type="curve"/>
      <point x="25" y="-3"/>
      <point x="48" y="0"/>
      <point x="82" y="0" type="curve" smooth="yes"/>
      <point x="124" y="-1"/>
      <point x="160" y="-1"/>
      <point x="195" y="-3" type="curve"/>
      <point x="205" y="2"/>
      <point x="203" y="25"/>
      <point x="197" y="32" type="curve"/>
      <point x="167" y="37" type="line" smooth="yes"/>
      <point x="139" y="42"/>
      <point x="127" y="48"/>
      <point x="127" y="54" type="curve" smooth="yes"/>
      <point x="127" y="62"/>
      <point x="128" y="70"/>
      <point x="134" y="90" type="curve" smooth="yes"/>
      <point x="171" y="206" type="line" smooth="yes"/>
      <point x="177" y="225"/>
      <point x="180" y="226"/>
      <point x="204" y="226" type="curve" smooth="yes"/>
    </contour>
  </outline>
</glyph>
<glyph name="aogonek" format="1">
  <advance width="443"/>
  <unicode hex="0105"/>
  <outline>
    <contour>
      <point x="249" y="100" type="line" smooth="yes" name="hr01"/>
      <point x="248" y="69"/>
      <point x="242" y="51"/>
      <point x="211" y="51" type="curve" smooth="yes"/>
      <point x="183" y="51"/>
      <point x="160" y="79"/>
      <point x="160" y="111" type="curve" smooth="yes"/>
      <point x="160" y="158"/>
      <point x="199" y="175"/>
      <point x="244" y="181" type="curve" smooth="yes"/>
      <point x="251" y="182"/>
      <point x="252" y="179"/>
      <point x="251" y="163" type="curve" smooth="yes"/>
    </contour>
    <contour>
      <point x="250" y="414" type="curve" smooth="yes"/>
      <point x="179" y="414"/>
      <point x="116" y="380"/>
      <point x="82" y="353" type="curve" smooth="yes"/>
      <point x="58" y="334"/>
      <point x="34" y="302"/>
      <point x="34" y="276" type="curve" smooth="yes"/>
      <point x="34" y="262"/>
      <point x="40" y="251"/>
      <point x="57" y="251" type="curve" smooth="yes"/>
      <point x="75" y="251"/>
      <point x="114" y="263"/>
      <point x="129" y="274" type="curve" smooth="yes"/>
      <point x="138" y="281"/>
      <point x="144" y="290"/>
      <point x="146" y="306" type="curve" smooth="yes"/>
      <point x="153" y="349"/>
      <point x="174" y="363"/>
      <point x="198" y="363" type="curve" smooth="yes" name="hr02"/>
      <point x="241" y="363"/>
      <point x="256" y="315"/>
      <point x="256" y="277" type="curve" smooth="yes"/>
      <point x="256" y="265"/>
      <point x="255" y="254"/>
      <point x="254" y="243" type="curve" smooth="yes"/>
      <point x="253" y="235"/>
      <point x="248" y="228"/>
      <point x="230" y="223" type="curve" smooth="yes"/>
      <point x="202" y="215"/>
      <point x="174" y="207"/>
      <point x="136" y="195" type="curve" smooth="yes"/>
      <point x="63" y="173"/>
      <point x="32" y="142"/>
      <point x="32" y="91" type="curve" smooth="yes"/>
      <point x="32" y="21"/>
      <point x="86" y="-14"/>
      <point x="144" y="-14" type="curve" smooth="yes"/>
      <point x="181" y="-14"/>
      <point x="211" y="5"/>
      <point x="229" y="18" type="curve" smooth="yes"/>
      <point x="239" y="25"/>
      <point x="245" y="29"/>
      <point x="250" y="29" type="curve" smooth="yes" name="hr03"/>
      <point x="255" y="29"/>
      <point x="259" y="27"/>
      <point x="264" y="19" type="curve" smooth="yes"/>
      <point x="280" y="-3"/>
      <point x="316" y="-14"/>
      <point x="335" y="-14" type="curve" smooth="yes" name="hr04"/>
      <point x="351" y="-14"/>
      <point x="364" y="-11"/>
      <point x="374" y="-7" type="curve"/>
      <point x="288" y="-65"/>
      <point x="262" y="-112"/>
      <point x="262" y="-155" type="curve" smooth="yes"/>
      <point x="262" y="-197"/>
      <point x="287" y="-245"/>
      <point x="364" y="-245" type="curve" smooth="yes"/>
      <point x="398" y="-245"/>
      <point x="444" y="-229"/>
      <point x="470" y="-190" type="curve"/>
      <point x="470" y="-182"/>
      <point x="467" y="-171"/>
      <point x="460" y="-169" type="curve"/>
      <point x="445" y="-177"/>
      <point x="430" y="-182"/>
      <point x="410" y="-182" type="curve" smooth="yes"/>
      <point x="373" y="-182"/>
      <point x="354" y="-159"/>
      <point x="354" y="-125" type="curve" smooth="yes"/>
      <point x="354" y="-81"/>
      <point x="378" y="-41"/>
      <point x="439" y="14" type="curve" smooth="yes"/>
      <point x="451" y="24"/>
      <point x="461" y="34"/>
      <point x="466" y="40" type="curve" name="hr05"/>
      <point x="469" y="49"/>
      <point x="463" y="61"/>
      <point x="454" y="63" type="curve"/>
      <point x="438" y="54"/>
      <point x="428" y="51"/>
      <point x="416" y="51" type="curve" smooth="yes"/>
      <point x="396" y="51"/>
      <point x="367" y="69"/>
      <point x="371" y="137" type="curve" smooth="yes"/>
      <point x="378" y="269" type="line" smooth="yes"/>
      <point x="383" y="372"/>
      <point x="334" y="414"/>
    </contour>
  </outline>
</glyph>
<glyph name="Cacute" format="1">
  <advance width="689"/>
  <unicode hex="0106"/>
  <outline>
    <contour>
      <point x="438" y="676" type="curve" smooth="yes" name="hr00"/>
      <point x="334" y="676"/>
      <point x="232" y="646"/>
      <point x="161" y="587" type="curve" smooth="yes"/>
      <point x="92" y="530"/>
      <point x="40" y="444"/>
      <point x="40" y="322" type="curve" smooth="yes"/>
      <point x="40" y="198"/>
      <point x="95" y="115"/>
      <point x="167" y="60" type="curve" smooth="yes"/>
      <point x="238" y="7"/>
      <point x="338" y="-16"/>
      <point x="436" y="-16" type="curve" smooth="yes"/>
      <point x="514" y="-16"/>
      <point x="585" y="6"/>
      <point x="639" y="21" type="curve"/>
      <point x="653" y="44"/>
      <point x="670" y="104"/>
      <point x="677" y="178" type="curve"/>
      <point x="671" y="190"/>
      <point x="647" y="193"/>
      <point x="639" y="185" type="curve"/>
      <point x="612" y="117"/>
      <point x="556" y="30"/>
      <point x="435" y="30" type="curve" smooth="yes"/>
      <point x="315" y="30"/>
      <point x="200" y="137"/>
      <point x="200" y="336" type="curve" smooth="yes"/>
      <point x="200" y="535"/>
      <point x="319" y="630"/>
      <point x="430" y="630" type="curve" smooth="yes"/>
      <point x="527" y="630"/>
      <point x="591" y="580"/>
      <point x="618" y="487" type="curve"/>
      <point x="625" y="478"/>
      <point x="652" y="482"/>
      <point x="656" y="494" type="curve"/>
      <point x="647" y="552"/>
      <point x="644" y="632"/>
      <point x="644" y="650" type="curve"/>
      <point x="614" y="652"/>
      <point x="540" y="676"/>
    </contour>
    <contour>
      <point x="352" y="731" type="line"/>
      <point x="349" y="720"/>
      <point x="355" y="709"/>
      <point x="363" y="706" type="curve"/>
      <point x="559" y="770" type="line" smooth="yes"/>
      <point x="579" y="776"/>
      <point x="589" y="787"/>
      <point x="591" y="795" type="curve" smooth="yes"/>
      <point x="593" y="802"/>
      <point x="593" y="817"/>
      <point x="581" y="838" type="curve" smooth="yes"/>
      <point x="569" y="861"/>
      <point x="557" y="869"/>
      <point x="547" y="869" type="curve" smooth="yes"/>
      <point x="540" y="869"/>
      <point x="530" y="864"/>
      <point x="514" y="852" type="curve" smooth="yes"/>
    </contour>
  </outline>
</glyph>
<glyph name="cacute" format="1">
  <advance width="416"/>
  <unicode hex="0107"/>
  <outline>
    <contour>
      <point x="281" y="414" type="curve" smooth="yes" name="hr00"/>
      <point x="146" y="414"/>
      <point x="31" y="330"/>
      <point x="31" y="188" type="curve" smooth="yes"/>
      <point x="31" y="70"/>
      <point x="117" y="-14"/>
      <point x="243" y="-14" type="curve" smooth="yes"/>
      <point x="338" y="-14"/>
      <point x="398" y="43"/>
      <point x="420" y="93" type="curve"/>
      <point x="420" y="109"/>
      <point x="406" y="116"/>
      <point x="394" y="115" type="curve"/>
      <point x="372" y="78"/>
      <point x="342" y="66"/>
      <point x="305" y="66" type="curve" smooth="yes"/>
      <point x="213" y="66"/>
      <point x="162" y="146"/>
      <point x="162" y="225" type="curve" smooth="yes"/>
      <point x="162" y="294"/>
      <point x="197" y="368"/>
      <point x="262" y="368" type="curve" smooth="yes"/>
      <point x="298" y="368"/>
      <point x="337" y="333"/>
      <point x="365" y="293" type="curve" smooth="yes"/>
      <point x="367" y="290"/>
      <point x="376" y="288"/>
      <point x="381" y="288" type="curve" smooth="yes"/>
      <point x="393" y="288"/>
      <point x="407" y="315"/>
      <point x="407" y="345" type="curve" smooth="yes"/>
      <point x="407" y="372"/>
      <point x="399" y="386"/>
      <point x="386" y="397" type="curve"/>
      <point x="359" y="407"/>
      <point x="315" y="414"/>
    </contour>
    <contour>
      <point x="213" y="465" type="line"/>
      <point x="215" y="453"/>
      <point x="224" y="447"/>
      <point x="238" y="449" type="curve"/>
      <point x="379" y="588" type="line" smooth="yes"/>
      <point x="392" y="601"/>
      <point x="401" y="614"/>
      <point x="401" y="625" type="curve" smooth="yes"/>
      <point x="401" y="636"/>
      <point x="392" y="647"/>
      <point x="374" y="661" type="curve" smooth="yes"/>
      <point x="357" y="673"/>
      <point x="346" y="677"/>
      <point x="335" y="677" type="curve" smooth="yes"/>
      <point x="325" y="677"/>
      <point x="315" y="670"/>
      <point x="304" y="647" type="curve" smooth="yes"/>
    </contour>
  </outline>
</glyph>
<glyph name="Ccaron" format="1">
  <advance width="689"/>
  <unicode hex="010C"/>
  <outline>
    <contour>
      <point x="438" y="676" type="curve" smooth="yes" name="hr00"/>
      <point x="334" y="676"/>
      <point x="232" y="646"/>
      <point x="161" y="587" type="curve" smooth="yes"/>
      <point x="92" y="530"/>
      <point x="40" y="444"/>
      <point x="40" y="322" type="curve" smooth="yes"/>
      <point x="40" y="198"/>
      <point x="95" y="115"/>
      <point x="167" y="60" type="curve" smooth="yes"/>
      <point x="238" y="7"/>
      <point x="338" y="-16"/>
      <point x="436" y="-16" type="curve" smooth="yes"/>
      <point x="514" y="-16"/>
      <point x="585" y="6"/>
      <point x="639" y="21" type="curve"/>
      <point x="653" y="44"/>
      <point x="670" y="104"/>
      <point x="677" y="178" type="curve"/>
      <point x="671" y="190"/>
      <point x="647" y="193"/>
      <point x="639" y="185" type="curve"/>
      <point x="612" y="117"/>
      <point x="556" y="30"/>
      <point x="435" y="30" type="curve" smooth="yes"/>
      <point x="315" y="30"/>
      <point x="200" y="137"/>
      <point x="200" y="336" type="curve" smooth="yes"/>
      <point x="200" y="535"/>
      <point x="319" y="630"/>
      <point x="430" y="630" type="curve" smooth="yes"/>
      <point x="527" y="630"/>
      <point x="591" y="580"/>
      <point x="618" y="487" type="curve"/>
      <point x="625" y="478"/>
      <point x="652" y="482"/>
      <point x="656" y="494" type="curve"/>
      <point x="647" y="552"/>
      <point x="644" y="632"/>
      <point x="644" y="650" type="curve"/>
      <point x="614" y="652"/>
      <point x="540" y="676"/>
    </contour>
    <contour>
      <point x="264" y="861" type="line"/>
      <point x="257" y="860"/>
      <point x="250" y="847"/>
      <point x="252" y="835" type="curve"/>
      <point x="380" y="718" type="line" smooth="yes"/>
      <point x="394" y="705"/>
      <point x="409" y="705"/>
      <point x="424" y="718" type="curve" smooth="yes"/>
      <point x="553" y="835" type="line"/>
      <point x="555" y="847"/>
      <point x="549" y="861"/>
      <point x="540" y="861" type="curve"/>
      <point x="420" y="803" type="line" smooth="yes"/>
      <point x="406" y="796"/>
      <point x="398" y="797"/>
      <point x="385" y="803" type="curve" smooth="yes"/>
    </contour>
  </outline>
</glyph>
<glyph name="ccaron" format="1">
  <advance width="416"/>
  <unicode hex="010D"/>
  <outline>
    <contour>
      <point x="281" y="414" type="curve" smooth="yes" name="hr00"/>
      <point x="146" y="414"/>
      <point x="31" y="330"/>
      <point x="31" y="188" type="curve" smooth="yes"/>
      <point x="31" y="70"/>
      <point x="117" y="-14"/>
      <point x="243" y="-14" type="curve" smooth="yes"/>
      <point x="338" y="-14"/>
      <point x="398" y="43"/>
      <point x="420" y="93" type="curve"/>
      <point x="420" y="109"/>
      <point x="406" y="116"/>
      <point x="394" y="115" type="curve"/>
      <point x="372" y="78"/>
      <point x="342" y="66"/>
      <point x="305" y="66" type="curve" smooth="yes"/>
      <point x="213" y="66"/>
      <point x="162" y="146"/>
      <point x="162" y="225" type="curve" smooth="yes"/>
      <point x="162" y="294"/>
      <point x="197" y="368"/>
      <point x="262" y="368" type="curve" smooth="yes"/>
      <point x="298" y="368"/>
      <point x="337" y="333"/>
      <point x="365" y="293" type="curve" smooth="yes"/>
      <point x="367" y="290"/>
      <point x="376" y="288"/>
      <point x="381" y="288" type="curve" smooth="yes"/>
      <point x="393" y="288"/>
      <point x="407" y="315"/>
      <point x="407" y="345" type="curve" smooth="yes"/>
      <point x="407" y="372"/>
      <point x="399" y="386"/>
      <point x="386" y="397" type="curve"/>
      <point x="359" y="407"/>
      <point x="315" y="414"/>
    </contour>
    <contour>
      <point x="380" y="657" type="line"/>
      <point x="375" y="669"/>
      <point x="362" y="674"/>
      <point x="352" y="675" type="curve"/>
      <point x="272" y="582" type="line" smooth="yes"/>
      <point x="261" y="570"/>
      <point x="254" y="564"/>
      <point x="251" y="564" type="curve" smooth="yes"/>
      <point x="248" y="564"/>
      <point x="242" y="570"/>
      <point x="231" y="583" type="curve" smooth="yes"/>
      <point x="151" y="675" type="line"/>
      <point x="140" y="674"/>
      <point x="127" y="669"/>
      <point x="122" y="657" type="curve"/>
      <point x="228" y="466" type="line" smooth="yes"/>
      <point x="234" y="455"/>
      <point x="239" y="453"/>
      <point x="251" y="453" type="curve" smooth="yes"/>
      <point x="263" y="453"/>
      <point x="268" y="455"/>
      <point x="274" y="466" type="curve" smooth="yes"/>
    </contour>
  </outline>
</glyph>
<glyph name="dcaron" format="1">
  <advance width="537"/>
  <unicode hex="010F"/>
  <outline>
    <contour>
      <point x="466" y="562" type="line" smooth="yes" name="hr01"/>
      <point x="466" y="625"/>
      <point x="467" y="667"/>
      <point x="469" y="708" type="curve"/>
      <point x="465" y="713"/>
      <point x="459" y="715"/>
      <point x="452" y="715" type="curve"/>
      <point x="403" y="693"/>
      <point x="342" y="669"/>
      <point x="299" y="659" type="curve"/>
      <point x="292" y="653"/>
      <point x="291" y="635"/>
      <point x="299" y="629" type="curve"/>
      <point x="316" y="619" type="line" smooth="yes"/>
      <point x="336" y="607"/>
      <point x="336" y="596"/>
      <point x="336" y="556" type="curve" smooth="yes"/>
      <point x="336" y="428" type="line" smooth="yes" name="hr02"/>
      <point x="336" y="420"/>
      <point x="333" y="412"/>
      <point x="326" y="409" type="curve"/>
      <point x="315" y="412"/>
      <point x="291" y="414"/>
      <point x="269" y="414" type="curve" smooth="yes" name="hr03"/>
      <point x="137" y="414"/>
      <point x="31" y="324"/>
      <point x="31" y="183" type="curve" smooth="yes"/>
      <point x="31" y="75"/>
      <point x="108" y="-14"/>
      <point x="222" y="-14" type="curve" smooth="yes"/>
      <point x="259" y="-14"/>
      <point x="295" y="7"/>
      <point x="330" y="29" type="curve" smooth="yes"/>
      <point x="334" y="32"/>
      <point x="338" y="29"/>
      <point x="339" y="21" type="curve"/>
      <point x="336" y="-10" type="line"/>
      <point x="338" y="-18"/>
      <point x="346" y="-24"/>
      <point x="353" y="-24" type="curve" smooth="yes"/>
      <point x="356" y="-24"/>
      <point x="434" y="6"/>
      <point x="533" y="12" type="curve"/>
      <point x="543" y="21"/>
      <point x="543" y="46"/>
      <point x="532" y="55" type="curve"/>
      <point x="515" y="49"/>
      <point x="507" y="47"/>
      <point x="489" y="47" type="curve" smooth="yes"/>
      <point x="470" y="47"/>
      <point x="466" y="70"/>
      <point x="466" y="164" type="curve" smooth="yes"/>
    </contour>
    <contour>
      <point x="336" y="103" type="line" smooth="yes"/>
      <point x="336" y="85"/>
      <point x="335" y="72"/>
      <point x="324" y="65" type="curve" smooth="yes"/>
      <point x="311" y="57"/>
      <point x="297" y="53"/>
      <point x="283" y="53" type="curve" smooth="yes"/>
      <point x="201" y="53"/>
      <point x="171" y="144"/>
      <point x="171" y="210" type="curve" smooth="yes"/>
      <point x="171" y="315"/>
      <point x="221" y="368"/>
      <point x="272" y="368" type="curve" smooth="yes"/>
      <point x="295" y="368"/>
      <point x="317" y="352"/>
      <point x="329" y="331" type="curve" smooth="yes"/>
      <point x="333" y="323"/>
      <point x="336" y="313"/>
      <point x="336" y="297" type="curve" smooth="yes"/>
    </contour>
    <contour>
      <point x="597" y="715" type="curve" smooth="yes" name="hr04"/>
      <point x="560" y="715"/>
      <point x="521" y="682"/>
      <point x="521" y="669" type="curve" smooth="yes"/>
      <point x="521" y="661"/>
      <point x="521" y="659"/>
      <point x="523" y="652" type="curve" smooth="yes"/>
      <point x="526" y="643"/>
      <point x="541" y="619"/>
      <point x="541" y="601" type="curve" smooth="yes"/>
      <point x="541" y="559"/>
      <point x="528" y="504"/>
      <point x="515" y="472" type="curve" smooth="yes"/>
      <point x="511" y="462"/>
      <point x="528" y="460"/>
      <point x="540" y="464" type="curve"/>
      <point x="578" y="502"/>
      <point x="619" y="595"/>
      <point x="619" y="663" type="curve" smooth="yes"/>
      <point x="619" y="707"/>
      <point x="606" y="715"/>
    </contour>
  </outline>
</glyph>
<glyph name="eogonek" format="1">
  <advance width="420"/>
  <unicode hex="0119"/>
  <outline>
    <contour>
      <point x="209" y="281" type="line" smooth="yes" name="hr01"/>
      <point x="177" y="281"/>
      <point x="163" y="282"/>
      <point x="163" y="296" type="curve" smooth="yes"/>
      <point x="163" y="328"/>
      <point x="199" y="368"/>
      <point x="241" y="368" type="curve" smooth="yes"/>
      <point x="275" y="368"/>
      <point x="294" y="346"/>
      <point x="294" y="313" type="curve" smooth="yes"/>
      <point x="294" y="303"/>
      <point x="292" y="293"/>
      <point x="287" y="290" type="curve" smooth="yes"/>
      <point x="276" y="283"/>
      <point x="260" y="281"/>
      <point x="246" y="281" type="curve" smooth="yes"/>
    </contour>
    <contour>
      <point x="248" y="414" type="curve" smooth="yes"/>
      <point x="123" y="414"/>
      <point x="32" y="316"/>
      <point x="32" y="190" type="curve" smooth="yes"/>
      <point x="32" y="81"/>
      <point x="105" y="-14"/>
      <point x="240" y="-14" type="curve" smooth="yes"/>
      <point x="256" y="-14"/>
      <point x="267" y="-12"/>
      <point x="277" y="-9" type="curve"/>
      <point x="195" y="-75"/>
      <point x="173" y="-114"/>
      <point x="173" y="-155" type="curve" smooth="yes" name="hr02"/>
      <point x="173" y="-197"/>
      <point x="197" y="-245"/>
      <point x="274" y="-245" type="curve" smooth="yes"/>
      <point x="313" y="-245"/>
      <point x="357" y="-229"/>
      <point x="383" y="-190" type="curve"/>
      <point x="383" y="-182"/>
      <point x="380" y="-173"/>
      <point x="373" y="-171" type="curve"/>
      <point x="358" y="-178"/>
      <point x="340" y="-183"/>
      <point x="320" y="-183" type="curve" smooth="yes"/>
      <point x="283" y="-183"/>
      <point x="266" y="-161"/>
      <point x="266" y="-127" type="curve" smooth="yes"/>
      <point x="266" y="-89"/>
      <point x="280" y="-50"/>
      <point x="347" y="16" type="curve" smooth="yes"/>
      <point x="369" y="38"/>
      <point x="398" y="64"/>
      <point x="415" y="100" type="curve"/>
      <point x="415" y="117"/>
      <point x="400" y="125"/>
      <point x="389" y="123" type="curve"/>
      <point x="362" y="77"/>
      <point x="324" y="71"/>
      <point x="296" y="71" type="curve" smooth="yes"/>
      <point x="203" y="71"/>
      <point x="155" y="144"/>
      <point x="155" y="219" type="curve" smooth="yes" name="hr03"/>
      <point x="155" y="235"/>
      <point x="157" y="237"/>
      <point x="180" y="237" type="curve" smooth="yes"/>
      <point x="372" y="237" type="line" smooth="yes"/>
      <point x="403" y="237"/>
      <point x="408" y="251"/>
      <point x="408" y="270" type="curve" smooth="yes"/>
      <point x="408" y="347"/>
      <point x="352" y="414"/>
    </contour>
  </outline>
</glyph>
<glyph name="uni0122" format="1">
  <advance width="734"/>
  <unicode hex="0122"/>
  <outline>
    <contour>
      <point x="663" y="169" type="line" smooth="yes" name="hr01"/>
      <point x="663" y="223"/>
      <point x="669" y="233"/>
      <point x="699" y="238" type="curve" smooth="yes"/>
      <point x="722" y="242" type="line"/>
      <point x="730" y="248"/>
      <point x="730" y="271"/>
      <point x="722" y="277" type="curve"/>
      <point x="688" y="275"/>
      <point x="639" y="274"/>
      <point x="591" y="274" type="curve" smooth="yes"/>
      <point x="542" y="274"/>
      <point x="493" y="275"/>
      <point x="422" y="277" type="curve"/>
      <point x="411" y="271"/>
      <point x="411" y="248"/>
      <point x="422" y="242" type="curve"/>
      <point x="466" y="236" type="line" smooth="yes"/>
      <point x="514" y="229"/>
      <point x="520" y="223"/>
      <point x="520" y="169" type="curve" smooth="yes"/>
      <point x="520" y="106" type="line" smooth="yes"/>
      <point x="520" y="41"/>
      <point x="508" y="30"/>
      <point x="451" y="30" type="curve" smooth="yes"/>
      <point x="414" y="30"/>
      <point x="362" y="36"/>
      <point x="314" y="68" type="curve" smooth="yes"/>
      <point x="249" y="112"/>
      <point x="200" y="197"/>
      <point x="200" y="340" type="curve" smooth="yes"/>
      <point x="200" y="498"/>
      <point x="277" y="630"/>
      <point x="436" y="630" type="curve" smooth="yes"/>
      <point x="529" y="630"/>
      <point x="592" y="583"/>
      <point x="624" y="489" type="curve"/>
      <point x="631" y="479"/>
      <point x="658" y="480"/>
      <point x="662" y="491" type="curve" name="hr02"/>
      <point x="652" y="552"/>
      <point x="651" y="622"/>
      <point x="648" y="652" type="curve"/>
      <point x="616" y="652"/>
      <point x="561" y="676"/>
      <point x="450" y="676" type="curve" smooth="yes" name="hr03"/>
      <point x="365" y="676"/>
      <point x="284" y="660"/>
      <point x="216" y="623" type="curve" smooth="yes"/>
      <point x="96" y="556"/>
      <point x="40" y="446"/>
      <point x="40" y="321" type="curve" smooth="yes"/>
      <point x="40" y="177"/>
      <point x="120" y="66"/>
      <point x="237" y="19" type="curve" smooth="yes"/>
      <point x="308" y="-9"/>
      <point x="366" y="-16"/>
      <point x="434" y="-16" type="curve" smooth="yes"/>
      <point x="490" y="-16"/>
      <point x="576" y="-3"/>
      <point x="611" y="8" type="curve" smooth="yes"/>
      <point x="638" y="17"/>
      <point x="664" y="20"/>
      <point x="681" y="23" type="curve" name="hr04"/>
      <point x="687" y="26"/>
      <point x="688" y="43"/>
      <point x="684" y="47" type="curve"/>
      <point x="665" y="51"/>
      <point x="663" y="71"/>
      <point x="663" y="113" type="curve" smooth="yes"/>
    </contour>
    <contour>
      <point x="404" y="-55" type="curve" smooth="yes" name="hr05"/>
      <point x="373" y="-55"/>
      <point x="347" y="-78"/>
      <point x="347" y="-106" type="curve" smooth="yes"/>
      <point x="347" y="-128"/>
      <point x="359" y="-141"/>
      <point x="372" y="-145" type="curve" smooth="yes"/>
      <point x="392" y="-150"/>
      <point x="418" y="-163"/>
      <point x="418" y="-193" type="curve" smooth="yes"/>
      <point x="418" y="-227"/>
      <point x="377" y="-258"/>
      <point x="347" y="-269" type="curve"/>
      <point x="339" y="-275"/>
      <point x="342" y="-301"/>
      <point x="356" y="-302" type="curve"/>
      <point x="431" y="-287"/>
      <point x="492" y="-242"/>
      <point x="492" y="-157" type="curve" smooth="yes"/>
      <point x="492" y="-83"/>
      <point x="444" y="-55"/>
    </contour>
  </outline>
</glyph>
<glyph name="uni0123" format="1">
  <advance width="479"/>
  <unicode hex="0123"/>
  <outline>
    <contour>
      <point x="377" y="377" type="line" name="hr01"/>
      <point x="340" y="397"/>
      <point x="287" y="414"/>
      <point x="228" y="414" type="curve" smooth="yes" name="hr02"/>
      <point x="98" y="414"/>
      <point x="33" y="336"/>
      <point x="33" y="253" type="curve" smooth="yes"/>
      <point x="33" y="192"/>
      <point x="68" y="144"/>
      <point x="118" y="124" type="curve"/>
      <point x="123" y="115"/>
      <point x="119" y="109"/>
      <point x="110" y="102" type="curve" smooth="yes" name="hr03"/>
      <point x="104" y="96"/>
      <point x="74" y="73"/>
      <point x="46" y="55" type="curve"/>
      <point x="41" y="50"/>
      <point x="39" y="42"/>
      <point x="39" y="34" type="curve" smooth="yes"/>
      <point x="39" y="-1"/>
      <point x="64" y="-34"/>
      <point x="101" y="-46" type="curve" smooth="yes"/>
      <point x="109" y="-48"/>
      <point x="112" y="-53"/>
      <point x="100" y="-60" type="curve" smooth="yes"/>
      <point x="89" y="-66"/>
      <point x="71" y="-79"/>
      <point x="51" y="-91" type="curve" smooth="yes"/>
      <point x="34" y="-101"/>
      <point x="19" y="-117"/>
      <point x="19" y="-141" type="curve" smooth="yes"/>
      <point x="19" y="-203"/>
      <point x="71" y="-269"/>
      <point x="215" y="-269" type="curve" smooth="yes"/>
      <point x="273" y="-269"/>
      <point x="338" y="-256"/>
      <point x="390" y="-225" type="curve" smooth="yes"/>
      <point x="442" y="-193"/>
      <point x="480" y="-137"/>
      <point x="480" y="-74" type="curve" smooth="yes"/>
      <point x="480" y="27"/>
      <point x="400" y="47"/>
      <point x="325" y="47" type="curve" smooth="yes"/>
      <point x="278" y="47"/>
      <point x="237" y="45"/>
      <point x="203" y="45" type="curve" smooth="yes"/>
      <point x="173" y="45"/>
      <point x="152" y="59"/>
      <point x="152" y="81" type="curve" smooth="yes"/>
      <point x="152" y="93"/>
      <point x="159" y="101"/>
      <point x="169" y="105" type="curve"/>
      <point x="180" y="104"/>
      <point x="194" y="102"/>
      <point x="210" y="102" type="curve" smooth="yes"/>
      <point x="368" y="102"/>
      <point x="415" y="198"/>
      <point x="415" y="277" type="curve" smooth="yes" name="hr04"/>
      <point x="415" y="294"/>
      <point x="414" y="303"/>
      <point x="412" y="312" type="curve"/>
      <point x="486" y="312" type="line"/>
      <point x="496" y="318"/>
      <point x="501" y="336"/>
      <point x="501" y="352" type="curve" smooth="yes"/>
      <point x="501" y="363"/>
      <point x="499" y="371"/>
      <point x="492" y="377" type="curve"/>
    </contour>
    <contour>
      <point x="163" y="270" type="curve" smooth="yes" name="hr05"/>
      <point x="163" y="338"/>
      <point x="193" y="368"/>
      <point x="224" y="368" type="curve" smooth="yes"/>
      <point x="260" y="368"/>
      <point x="289" y="330"/>
      <point x="289" y="249" type="curve" smooth="yes"/>
      <point x="289" y="176"/>
      <point x="263" y="147"/>
      <point x="232" y="147" type="curve" smooth="yes"/>
      <point x="192" y="147"/>
      <point x="163" y="194"/>
    </contour>
    <contour>
      <point x="277" y="-56" type="line" smooth="yes" name="hr06"/>
      <point x="332" y="-56"/>
      <point x="375" y="-79"/>
      <point x="375" y="-137" type="curve" smooth="yes"/>
      <point x="375" y="-185"/>
      <point x="333" y="-216"/>
      <point x="270" y="-216" type="curve" smooth="yes"/>
      <point x="191" y="-216"/>
      <point x="140" y="-172"/>
      <point x="140" y="-104" type="curve" smooth="yes"/>
      <point x="140" y="-91"/>
      <point x="144" y="-78"/>
      <point x="154" y="-69" type="curve" smooth="yes"/>
      <point x="163" y="-62"/>
      <point x="183" y="-56"/>
      <point x="210" y="-56" type="curve" smooth="yes"/>
    </contour>
    <contour>
      <point x="245" y="476" type="curve" smooth="yes" name="hr07"/>
      <point x="277" y="476"/>
      <point x="303" y="498"/>
      <point x="303" y="524" type="curve" smooth="yes"/>
      <point x="303" y="542"/>
      <point x="292" y="555"/>
      <point x="278" y="559" type="curve" smooth="yes"/>
      <point x="258" y="565"/>
      <point x="238" y="575"/>
      <point x="238" y="603" type="curve" smooth="yes"/>
      <point x="238" y="638"/>
      <point x="273" y="663"/>
      <point x="303" y="673" type="curve"/>
      <point x="312" y="679"/>
      <point x="308" y="701"/>
      <point x="294" y="703" type="curve"/>
      <point x="221" y="689"/>
      <point x="159" y="644"/>
      <point x="159" y="571" type="curve" smooth="yes"/>
      <point x="159" y="503"/>
      <point x="208" y="476"/>
    </contour>
  </outline>
</glyph>
<glyph name="Imacron" format="1">
  <advance width="371"/>
  <unicode hex="012A"/>
  <outline>
    <contour>
      <point x="257" y="514" type="line" smooth="yes" name="hr01"/>
      <point x="257" y="608"/>
      <point x="263" y="615"/>
      <point x="309" y="623" type="curve" smooth="yes"/>
      <point x="337" y="628" type="line"/>
      <point x="345" y="634"/>
      <point x="345" y="657"/>
      <point x="337" y="663" type="curve"/>
      <point x="283" y="661"/>
      <point x="233" y="660"/>
      <point x="186" y="660" type="curve" smooth="yes"/>
      <point x="138" y="660"/>
      <point x="88" y="661"/>
      <point x="34" y="663" type="curve"/>
      <point x="26" y="657"/>
      <point x="26" y="634"/>
      <point x="34" y="628" type="curve"/>
      <point x="62" y="623" type="line" smooth="yes"/>
      <point x="108" y="615"/>
      <point x="114" y="608"/>
      <point x="114" y="514" type="curve" smooth="yes"/>
      <point x="114" y="146" type="line" smooth="yes"/>
      <point x="114" y="52"/>
      <point x="108" y="45"/>
      <point x="62" y="37" type="curve" smooth="yes"/>
      <point x="34" y="32" type="line"/>
      <point x="26" y="26"/>
      <point x="26" y="3"/>
      <point x="34" y="-3" type="curve"/>
      <point x="88" y="-1"/>
      <point x="138" y="0"/>
      <point x="186" y="0" type="curve" smooth="yes"/>
      <point x="233" y="0"/>
      <point x="282" y="-1"/>
      <point x="336" y="-3" type="curve"/>
      <point x="344" y="3"/>
      <point x="345" y="26"/>
      <point x="337" y="32" type="curve"/>
      <point x="309" y="37" type="line" smooth="yes"/>
      <point x="263" y="45"/>
      <point x="257" y="52"/>
      <point x="257" y="146" type="curve" smooth="yes"/>
    </contour>
    <contour>
      <point x="312" y="725" type="line" name="hr02"/>
      <point x="325" y="741"/>
      <point x="325" y="779"/>
      <point x="312" y="795" type="curve"/>
      <point x="59" y="795" type="line"/>
      <point x="47" y="779"/>
      <point x="47" y="741"/>
      <point x="59" y="725" type="curve"/>
    </contour>
  </outline>
</glyph>
<glyph name="imacron" format="1">
  <advance width="286"/>
  <unicode hex="012B"/>
  <outline>
    <contour>
      <point x="214" y="300" type="line" smooth="yes" name="hr01"/>
      <point x="214" y="345"/>
      <point x="215" y="389"/>
      <point x="217" y="419" type="curve"/>
      <point x="213" y="425"/>
      <point x="207" y="428"/>
      <point x="199" y="428" type="curve"/>
      <point x="169" y="410"/>
      <point x="98" y="383"/>
      <point x="51" y="370" type="curve"/>
      <point x="44" y="364"/>
      <point x="44" y="346"/>
      <point x="51" y="340" type="curve"/>
      <point x="65" y="331" type="line" smooth="yes"/>
      <point x="84" y="319"/>
      <point x="84" y="307"/>
      <point x="84" y="267" type="curve" smooth="yes"/>
      <point x="84" y="116" type="line" smooth="yes"/>
      <point x="84" y="46"/>
      <point x="80" y="37"/>
      <point x="47" y="34" type="curve" smooth="yes"/>
      <point x="28" y="32" type="line"/>
      <point x="20" y="26"/>
      <point x="20" y="3"/>
      <point x="29" y="-3" type="curve"/>
      <point x="62" y="-1"/>
      <point x="104" y="0"/>
      <point x="149" y="0" type="curve" smooth="yes"/>
      <point x="195" y="0"/>
      <point x="234" y="-1"/>
      <point x="269" y="-3" type="curve"/>
      <point x="278" y="3"/>
      <point x="278" y="26"/>
      <point x="270" y="32" type="curve"/>
      <point x="251" y="34" type="line" smooth="yes"/>
      <point x="218" y="37"/>
      <point x="214" y="46"/>
      <point x="214" y="116" type="curve" smooth="yes"/>
    </contour>
    <contour>
      <point x="274" y="500" type="line" name="hr02"/>
      <point x="287" y="516"/>
      <point x="287" y="551"/>
      <point x="274" y="567" type="curve"/>
      <point x="21" y="567" type="line"/>
      <point x="9" y="551"/>
      <point x="9" y="516"/>
      <point x="21" y="500" type="curve"/>
    </contour>
  </outline>
</glyph>
